<svg xmlns="http://www.w3.org/2000/svg" width="1600" height="900" style="background: rgb(248, 250, 252); font-family: &quot;Microsoft YaHei&quot;, &quot;PingFang SC&quot;, &quot;SimHei&quot;, sans-serif;"><text x="48" y="62" font-size="44" font-weight="700" fill="#0f172a">业界背景：为什么 AI Agent 必须做可观测性</text><text x="48" y="98" font-size="20" fill="#475569">Agent 相比传统服务引入了更高的不确定性</text><text x="70" y="216" font-size="30" font-weight="700" fill="#0f172a">非确定性输出</text><rect x="360" y="180" width="920" height="46" rx="10" fill="#e2e8f0"></rect><rect x="360" y="180" width="846.4000000000001" height="46" rx="10" fill="#dc2626"></rect><text x="1305" y="213" font-size="24" font-weight="700" fill="#dc2626">92</text><text x="70" y="326" font-size="30" font-weight="700" fill="#0f172a">链路复杂度</text><rect x="360" y="290" width="920" height="46" rx="10" fill="#e2e8f0"></rect><rect x="360" y="290" width="791.1999999999999" height="46" rx="10" fill="#7c3aed"></rect><text x="1305" y="323" font-size="24" font-weight="700" fill="#7c3aed">86</text><text x="70" y="436" font-size="30" font-weight="700" fill="#0f172a">Token 成本波动</text><rect x="360" y="400" width="920" height="46" rx="10" fill="#e2e8f0"></rect><rect x="360" y="400" width="726.8000000000001" height="46" rx="10" fill="#ea580c"></rect><text x="1305" y="433" font-size="24" font-weight="700" fill="#ea580c">79</text><text x="70" y="546" font-size="30" font-weight="700" fill="#0f172a">跨工具依赖</text><rect x="360" y="510" width="920" height="46" rx="10" fill="#e2e8f0"></rect><rect x="360" y="510" width="680.8" height="46" rx="10" fill="#0891b2"></rect><text x="1305" y="543" font-size="24" font-weight="700" fill="#0891b2">74</text><text x="70" y="656" font-size="30" font-weight="700" fill="#0f172a">安全/合规风险</text><rect x="360" y="620" width="920" height="46" rx="10" fill="#e2e8f0"></rect><rect x="360" y="620" width="754.4" height="46" rx="10" fill="#2563eb"></rect><text x="1305" y="653" font-size="24" font-weight="700" fill="#2563eb">82</text><text x="48" y="872" font-size="13" fill="#64748b">Industry pattern: quality/latency/cost/safety must be jointly observable</text></svg>