<svg xmlns="http://www.w3.org/2000/svg" width="1200" height="675" style="background: rgb(247, 249, 252);"><defs><marker id="arrow" viewBox="0 -5 10 10" refX="9" refY="0" markerWidth="6" markerHeight="6" orient="auto"><path d="M0,-5L10,0L0,5" fill="#94A3B8"></path></marker></defs><rect x="80" y="260" width="160" height="90" rx="12" fill="#FFFFFF" stroke="#94A3B8" stroke-width="2"></rect><text x="160" y="305" text-anchor="middle" font-family="Arial, sans-serif" fill="#111827"><tspan x="160" dy="4" font-size="16" font-weight="700">Prompt</tspan></text><line x1="240" y1="305" x2="300" y2="305" stroke="#94A3B8" stroke-width="2" marker-end="url(#arrow)"></line><rect x="300" y="260" width="160" height="90" rx="12" fill="#FFFFFF" stroke="#94A3B8" stroke-width="2"></rect><text x="380" y="305" text-anchor="middle" font-family="Arial, sans-serif" fill="#111827"><tspan x="380" dy="4" font-size="16" font-weight="700">LLM</tspan></text><line x1="460" y1="305" x2="520" y2="305" stroke="#94A3B8" stroke-width="2" marker-end="url(#arrow)"></line><rect x="520" y="260" width="160" height="90" rx="12" fill="#FFFFFF" stroke="#94A3B8" stroke-width="2"></rect><text x="600" y="305" text-anchor="middle" font-family="Arial, sans-serif" fill="#111827"><tspan x="600" dy="4" font-size="16" font-weight="700">JSON</tspan></text><line x1="680" y1="305" x2="740" y2="305" stroke="#94A3B8" stroke-width="2" marker-end="url(#arrow)"></line><rect x="740" y="260" width="160" height="90" rx="12" fill="#FFFFFF" stroke="#94A3B8" stroke-width="2"></rect><text x="820" y="305" text-anchor="middle" font-family="Arial, sans-serif" fill="#111827"><tspan x="820" dy="4" font-size="16" font-weight="700">Validator</tspan></text><line x1="900" y1="305" x2="960" y2="305" stroke="#94A3B8" stroke-width="2" marker-end="url(#arrow)"></line><rect x="960" y="260" width="160" height="90" rx="12" fill="#FFFFFF" stroke="#94A3B8" stroke-width="2"></rect><text x="1040" y="305" text-anchor="middle" font-family="Arial, sans-serif" fill="#111827"><tspan x="1040" dy="4" font-size="16" font-weight="700">Storage</tspan></text><line x1="820" y1="350" x2="820" y2="440" stroke="#EF4444" stroke-width="2" stroke-dasharray="4 4"></line><circle cx="820" cy="470" r="18" fill="#EF4444"></circle><text x="820" y="475" text-anchor="middle" font-size="16" fill="#fff" font-family="Arial, sans-serif">X</text></svg>