<svg xmlns="http://www.w3.org/2000/svg" width="1200" height="675" style="background: rgb(247, 249, 252);"><defs><marker id="arrow" viewBox="0 -5 10 10" refX="9" refY="0" markerWidth="6" markerHeight="6" orient="auto"><path d="M0,-5L10,0L0,5" fill="#94A3B8"></path></marker></defs><rect x="180" y="160" width="540" height="70" rx="12" fill="#FFFFFF" stroke="#94A3B8" stroke-width="2"></rect><text x="198" y="195" text-anchor="start" font-family="Arial, sans-serif" fill="#111827"><tspan x="198" dy="4" font-size="16" font-weight="700">模块化</tspan></text><circle cx="760" cy="195" r="16" fill="#10B981"></circle><text x="760" y="200" text-anchor="middle" font-size="14" fill="#fff" font-family="Arial, sans-serif">✓</text><rect x="180" y="250" width="540" height="70" rx="12" fill="#FFFFFF" stroke="#94A3B8" stroke-width="2"></rect><text x="198" y="285" text-anchor="start" font-family="Arial, sans-serif" fill="#111827"><tspan x="198" dy="4" font-size="16" font-weight="700">输出校验</tspan></text><circle cx="760" cy="285" r="16" fill="#10B981"></circle><text x="760" y="290" text-anchor="middle" font-size="14" fill="#fff" font-family="Arial, sans-serif">✓</text><rect x="180" y="340" width="540" height="70" rx="12" fill="#FFFFFF" stroke="#94A3B8" stroke-width="2"></rect><text x="198" y="375" text-anchor="start" font-family="Arial, sans-serif" fill="#111827"><tspan x="198" dy="4" font-size="16" font-weight="700">安全约束</tspan></text><circle cx="760" cy="375" r="16" fill="#10B981"></circle><text x="760" y="380" text-anchor="middle" font-size="14" fill="#fff" font-family="Arial, sans-serif">✓</text><rect x="180" y="430" width="540" height="70" rx="12" fill="#FFFFFF" stroke="#94A3B8" stroke-width="2"></rect><text x="198" y="465" text-anchor="start" font-family="Arial, sans-serif" fill="#111827"><tspan x="198" dy="4" font-size="16" font-weight="700">评测回归</tspan></text><circle cx="760" cy="465" r="16" fill="#F97316"></circle><text x="760" y="470" text-anchor="middle" font-size="14" fill="#fff" font-family="Arial, sans-serif">!</text><rect x="180" y="520" width="540" height="70" rx="12" fill="#FFFFFF" stroke="#94A3B8" stroke-width="2"></rect><text x="198" y="555" text-anchor="start" font-family="Arial, sans-serif" fill="#111827"><tspan x="198" dy="4" font-size="16" font-weight="700">版本化</tspan></text><circle cx="760" cy="555" r="16" fill="#F97316"></circle><text x="760" y="560" text-anchor="middle" font-size="14" fill="#fff" font-family="Arial, sans-serif">!</text></svg>