<svg xmlns="http://www.w3.org/2000/svg" width="1200" height="675" style="background: rgb(247, 249, 252);"><defs><marker id="arrow" viewBox="0 -5 10 10" refX="9" refY="0" markerWidth="6" markerHeight="6" orient="auto"><path d="M0,-5L10,0L0,5" fill="#94A3B8"></path></marker></defs><rect x="80" y="260" width="160" height="90" rx="12" fill="#F3F4F6" stroke="#94A3B8" stroke-width="2"></rect><text x="160" y="305" text-anchor="middle" font-family="Arial, sans-serif" fill="#111827"><tspan x="160" dy="4" font-size="16" font-weight="700">Markdown</tspan></text><rect x="300" y="260" width="160" height="90" rx="12" fill="#E0E7FF" stroke="#2563EB" stroke-width="2"></rect><text x="380" y="305" text-anchor="middle" font-family="Arial, sans-serif" fill="#111827"><tspan x="380" dy="4" font-size="16" font-weight="700">Parser</tspan></text><rect x="520" y="260" width="160" height="90" rx="12" fill="#EDE9FE" stroke="#7C3AED" stroke-width="2"></rect><text x="600" y="305" text-anchor="middle" font-family="Arial, sans-serif" fill="#111827"><tspan x="600" dy="4" font-size="16" font-weight="700">audio_tasks</tspan></text><line x1="240" y1="305" x2="300" y2="305" stroke="#94A3B8" stroke-width="2" marker-end="url(#arrow)"></line><line x1="460" y1="305" x2="520" y2="305" stroke="#94A3B8" stroke-width="2" marker-end="url(#arrow)"></line><rect x="760" y="180" width="180" height="80" rx="12" fill="#FFEDD5" stroke="#F97316" stroke-width="2"></rect><text x="850" y="220" text-anchor="middle" font-family="Arial, sans-serif" fill="#111827"><tspan x="850" dy="4" font-size="16" font-weight="700">EN TTS</tspan></text><rect x="760" y="340" width="180" height="80" rx="12" fill="#DCFCE7" stroke="#10B981" stroke-width="2"></rect><text x="850" y="380" text-anchor="middle" font-family="Arial, sans-serif" fill="#111827"><tspan x="850" dy="4" font-size="16" font-weight="700">JA TTS</tspan></text><line x1="680" y1="305" x2="760" y2="220" stroke="#94A3B8" stroke-width="2" marker-end="url(#arrow)"></line><line x1="680" y1="305" x2="760" y2="380" stroke="#94A3B8" stroke-width="2" marker-end="url(#arrow)"></line><rect x="980" y="260" width="160" height="90" rx="12" fill="#FFFFFF" stroke="#94A3B8" stroke-width="2"></rect><text x="1060" y="305" text-anchor="middle" font-family="Arial, sans-serif" fill="#111827"><tspan x="1060" dy="4" font-size="16" font-weight="700">Files</tspan></text><line x1="940" y1="220" x2="980" y2="305" stroke="#94A3B8" stroke-width="2" marker-end="url(#arrow)"></line><line x1="940" y1="380" x2="980" y2="305" stroke="#94A3B8" stroke-width="2" marker-end="url(#arrow)"></line></svg>