<svg xmlns="http://www.w3.org/2000/svg" width="920" height="420" style="background: rgb(255, 255, 255);"><text x="460" y="28" text-anchor="middle" font-size="16" font-weight="700" fill="#0f172a">Average Latency (ms)</text><g transform="translate(70,60)"><g transform="translate(0,300)" fill="none" font-size="10" font-family="sans-serif" text-anchor="middle"><path class="domain" stroke="currentColor" d="M0.5,6V0.5H810.5V6"></path><g class="tick" opacity="1" transform="translate(228.91304347826085,0)"><line stroke="currentColor" y2="6"></line><text fill="currentColor" y="9" dy="0.71em">Baseline</text></g><g class="tick" opacity="1" transform="translate(581.0869565217391,0)"><line stroke="currentColor" y2="6"></line><text fill="currentColor" y="9" dy="0.71em">Few-shot</text></g></g><g fill="none" font-size="10" font-family="sans-serif" text-anchor="end"><path class="domain" stroke="currentColor" d="M-6,300.5H0.5V0.5H-6"></path><g class="tick" opacity="1" transform="translate(0,300.5)"><line stroke="currentColor" x2="-6"></line><text fill="currentColor" x="-9" dy="0.32em">0</text></g><g class="tick" opacity="1" transform="translate(0,275.5)"><line stroke="currentColor" x2="-6"></line><text fill="currentColor" x="-9" dy="0.32em">5,000</text></g><g class="tick" opacity="1" transform="translate(0,250.5)"><line stroke="currentColor" x2="-6"></line><text fill="currentColor" x="-9" dy="0.32em">10,000</text></g><g class="tick" opacity="1" transform="translate(0,225.5)"><line stroke="currentColor" x2="-6"></line><text fill="currentColor" x="-9" dy="0.32em">15,000</text></g><g class="tick" opacity="1" transform="translate(0,200.50000000000003)"><line stroke="currentColor" x2="-6"></line><text fill="currentColor" x="-9" dy="0.32em">20,000</text></g><g class="tick" opacity="1" transform="translate(0,175.49999999999997)"><line stroke="currentColor" x2="-6"></line><text fill="currentColor" x="-9" dy="0.32em">25,000</text></g><g class="tick" opacity="1" transform="translate(0,150.5)"><line stroke="currentColor" x2="-6"></line><text fill="currentColor" x="-9" dy="0.32em">30,000</text></g><g class="tick" opacity="1" transform="translate(0,125.49999999999999)"><line stroke="currentColor" x2="-6"></line><text fill="currentColor" x="-9" dy="0.32em">35,000</text></g><g class="tick" opacity="1" transform="translate(0,100.50000000000001)"><line stroke="currentColor" x2="-6"></line><text fill="currentColor" x="-9" dy="0.32em">40,000</text></g><g class="tick" opacity="1" transform="translate(0,75.5)"><line stroke="currentColor" x2="-6"></line><text fill="currentColor" x="-9" dy="0.32em">45,000</text></g><g class="tick" opacity="1" transform="translate(0,50.499999999999986)"><line stroke="currentColor" x2="-6"></line><text fill="currentColor" x="-9" dy="0.32em">50,000</text></g><g class="tick" opacity="1" transform="translate(0,25.50000000000001)"><line stroke="currentColor" x2="-6"></line><text fill="currentColor" x="-9" dy="0.32em">55,000</text></g><g class="tick" opacity="1" transform="translate(0,0.5)"><line stroke="currentColor" x2="-6"></line><text fill="currentColor" x="-9" dy="0.32em">60,000</text></g></g><g stroke="#e5e7eb"><line x1="0" x2="810" y1="300" y2="300"></line><line x1="0" x2="810" y1="250" y2="250"></line><line x1="0" x2="810" y1="200.00000000000003" y2="200.00000000000003"></line><line x1="0" x2="810" y1="150" y2="150"></line><line x1="0" x2="810" y1="100.00000000000001" y2="100.00000000000001"></line><line x1="0" x2="810" y1="49.999999999999986" y2="49.999999999999986"></line><line x1="0" x2="810" y1="0" y2="0"></line></g><rect x="105.65217391304344" y="210.223125" width="246.5217391304348" height="89.77687499999999" fill="#2563eb" rx="6"></rect><rect x="457.82608695652175" y="52.861875000000005" width="246.5217391304348" height="247.138125" fill="#16a34a" rx="6"></rect><text class="bar-label" x="228.91304347826085" y="202.223125" text-anchor="middle" font-size="12" fill="#0f172a">17955.4</text><text class="bar-label" x="581.0869565217391" y="44.861875000000005" text-anchor="middle" font-size="12" fill="#0f172a">49427.6</text></g><text x="70" y="408" font-size="12" fill="#64748b">Latency (ms)</text></svg>