<svg xmlns="http://www.w3.org/2000/svg" width="940" height="460" style="background: rgb(255, 255, 255);"><text x="470" y="28" text-anchor="middle" font-size="16" font-weight="700" fill="#0f172a">Quality vs Tokens (Baseline vs Few-shot)</text><g transform="translate(70,60)"><g transform="translate(0,340)" fill="none" font-size="10" font-family="sans-serif" text-anchor="middle"><path class="domain" stroke="currentColor" d="M0.5,6V0.5H830.5V6"></path><g class="tick" opacity="1" transform="translate(0.5,0)"><line stroke="currentColor" y2="6"></line><text fill="currentColor" y="9" dy="0.71em">0</text></g><g class="tick" opacity="1" transform="translate(59.785714285714285,0)"><line stroke="currentColor" y2="6"></line><text fill="currentColor" y="9" dy="0.71em">100</text></g><g class="tick" opacity="1" transform="translate(119.07142857142857,0)"><line stroke="currentColor" y2="6"></line><text fill="currentColor" y="9" dy="0.71em">200</text></g><g class="tick" opacity="1" transform="translate(178.35714285714286,0)"><line stroke="currentColor" y2="6"></line><text fill="currentColor" y="9" dy="0.71em">300</text></g><g class="tick" opacity="1" transform="translate(237.64285714285714,0)"><line stroke="currentColor" y2="6"></line><text fill="currentColor" y="9" dy="0.71em">400</text></g><g class="tick" opacity="1" transform="translate(296.92857142857144,0)"><line stroke="currentColor" y2="6"></line><text fill="currentColor" y="9" dy="0.71em">500</text></g><g class="tick" opacity="1" transform="translate(356.2142857142857,0)"><line stroke="currentColor" y2="6"></line><text fill="currentColor" y="9" dy="0.71em">600</text></g><g class="tick" opacity="1" transform="translate(415.5,0)"><line stroke="currentColor" y2="6"></line><text fill="currentColor" y="9" dy="0.71em">700</text></g><g class="tick" opacity="1" transform="translate(474.7857142857143,0)"><line stroke="currentColor" y2="6"></line><text fill="currentColor" y="9" dy="0.71em">800</text></g><g class="tick" opacity="1" transform="translate(534.0714285714286,0)"><line stroke="currentColor" y2="6"></line><text fill="currentColor" y="9" dy="0.71em">900</text></g><g class="tick" opacity="1" transform="translate(593.3571428571429,0)"><line stroke="currentColor" y2="6"></line><text fill="currentColor" y="9" dy="0.71em">1,000</text></g><g class="tick" opacity="1" transform="translate(652.6428571428571,0)"><line stroke="currentColor" y2="6"></line><text fill="currentColor" y="9" dy="0.71em">1,100</text></g><g class="tick" opacity="1" transform="translate(711.9285714285714,0)"><line stroke="currentColor" y2="6"></line><text fill="currentColor" y="9" dy="0.71em">1,200</text></g><g class="tick" opacity="1" transform="translate(771.2142857142858,0)"><line stroke="currentColor" y2="6"></line><text fill="currentColor" y="9" dy="0.71em">1,300</text></g><g class="tick" opacity="1" transform="translate(830.5,0)"><line stroke="currentColor" y2="6"></line><text fill="currentColor" y="9" dy="0.71em">1,400</text></g></g><g fill="none" font-size="10" font-family="sans-serif" text-anchor="end"><path class="domain" stroke="currentColor" d="M-6,340.5H0.5V0.5H-6"></path><g class="tick" opacity="1" transform="translate(0,340.5)"><line stroke="currentColor" x2="-6"></line><text fill="currentColor" x="-9" dy="0.32em">0</text></g><g class="tick" opacity="1" transform="translate(0,306.5)"><line stroke="currentColor" x2="-6"></line><text fill="currentColor" x="-9" dy="0.32em">10</text></g><g class="tick" opacity="1" transform="translate(0,272.5)"><line stroke="currentColor" x2="-6"></line><text fill="currentColor" x="-9" dy="0.32em">20</text></g><g class="tick" opacity="1" transform="translate(0,238.49999999999997)"><line stroke="currentColor" x2="-6"></line><text fill="currentColor" x="-9" dy="0.32em">30</text></g><g class="tick" opacity="1" transform="translate(0,204.5)"><line stroke="currentColor" x2="-6"></line><text fill="currentColor" x="-9" dy="0.32em">40</text></g><g class="tick" opacity="1" transform="translate(0,170.5)"><line stroke="currentColor" x2="-6"></line><text fill="currentColor" x="-9" dy="0.32em">50</text></g><g class="tick" opacity="1" transform="translate(0,136.5)"><line stroke="currentColor" x2="-6"></line><text fill="currentColor" x="-9" dy="0.32em">60</text></g><g class="tick" opacity="1" transform="translate(0,102.50000000000001)"><line stroke="currentColor" x2="-6"></line><text fill="currentColor" x="-9" dy="0.32em">70</text></g><g class="tick" opacity="1" transform="translate(0,68.49999999999999)"><line stroke="currentColor" x2="-6"></line><text fill="currentColor" x="-9" dy="0.32em">80</text></g><g class="tick" opacity="1" transform="translate(0,34.49999999999999)"><line stroke="currentColor" x2="-6"></line><text fill="currentColor" x="-9" dy="0.32em">90</text></g><g class="tick" opacity="1" transform="translate(0,0.5)"><line stroke="currentColor" x2="-6"></line><text fill="currentColor" x="-9" dy="0.32em">100</text></g></g><circle cx="561.4357142857142" cy="91.80000000000001" r="6" fill="#2563eb" opacity="0.8"></circle><circle cx="621.3142857142857" cy="54.40000000000001" r="6" fill="#2563eb" opacity="0.8"></circle><circle cx="0" cy="340" r="6" fill="#2563eb" opacity="0.8"></circle><circle cx="0" cy="340" r="6" fill="#2563eb" opacity="0.8"></circle><circle cx="0" cy="340" r="6" fill="#2563eb" opacity="0.8"></circle><circle cx="0" cy="340" r="6" fill="#2563eb" opacity="0.8"></circle><circle cx="662.2214285714285" cy="95.2" r="6" fill="#2563eb" opacity="0.8"></circle><circle cx="0" cy="340" r="6" fill="#2563eb" opacity="0.8"></circle><circle cx="554.9142857142857" cy="108.79999999999998" r="6" fill="#16a34a" opacity="0.8"></circle><circle cx="624.8714285714286" cy="54.40000000000001" r="6" fill="#16a34a" opacity="0.8"></circle><circle cx="712.6142857142856" cy="74.8" r="6" fill="#16a34a" opacity="0.8"></circle><circle cx="614.7928571428572" cy="54.40000000000001" r="6" fill="#16a34a" opacity="0.8"></circle><circle cx="649.7714285714285" cy="64.59999999999998" r="6" fill="#16a34a" opacity="0.8"></circle><circle cx="624.8714285714286" cy="74.8" r="6" fill="#16a34a" opacity="0.8"></circle><circle cx="649.7714285714285" cy="74.8" r="6" fill="#16a34a" opacity="0.8"></circle><circle cx="645.0285714285715" cy="85" r="6" fill="#16a34a" opacity="0.8"></circle></g><g transform="translate(740, 50)"><rect x="0" y="0" width="12" height="12" fill="#2563eb"></rect><rect x="0" y="20" width="12" height="12" fill="#16a34a"></rect><text x="18" y="10" font-size="12" fill="#0f172a">Baseline</text><text x="18" y="30" font-size="12" fill="#0f172a">Few-shot</text></g><text x="470" y="448" text-anchor="middle" font-size="12" fill="#64748b">Tokens</text><text transform="rotate(-90)" x="-230" y="18" text-anchor="middle" font-size="12" fill="#64748b">Quality Score</text></svg>