<svg xmlns="http://www.w3.org/2000/svg" width="1280" height="720" style="background: rgb(255, 255, 255);"><text x="40" y="42" font-size="28" font-weight="700" fill="#0f172a">50 样本 Benchmark 设计分布</text><g transform="translate(380,370)"><path d="M0,-220A220,220,0,0,1,209.232,67.984L114.127,37.082A120,120,0,0,0,0,-120Z" fill="#3b82f6" stroke="#ffffff" stroke-width="3"></path><path d="M209.232,67.984A220,220,0,0,1,-209.232,67.984L-114.127,37.082A120,120,0,0,0,114.127,37.082Z" fill="#10b981" stroke="#ffffff" stroke-width="3"></path><path d="M-209.232,67.984A220,220,0,0,1,0,-220L0,-120A120,120,0,0,0,-114.127,37.082Z" fill="#f59e0b" stroke="#ffffff" stroke-width="3"></path><text transform="translate(137.53288904374108,-99.92349288972042)" text-anchor="middle" font-size="22" font-weight="700" fill="#ffffff">15</text><text transform="translate(1.0409497792752502e-14,170)" text-anchor="middle" font-size="22" font-weight="700" fill="#ffffff">20</text><text transform="translate(-137.53288904374108,-99.92349288972042)" text-anchor="middle" font-size="22" font-weight="700" fill="#ffffff">15</text></g><text x="350" y="380" font-size="30" font-weight="700" fill="#0f172a">N=50</text><rect x="720" y="232" width="26" height="26" fill="#3b82f6"></rect><text x="760" y="252" font-size="28" font-weight="700" fill="#0f172a">日常词汇</text><text x="760" y="288" font-size="22" fill="#334155">15 条 (30%)</text><rect x="720" y="342" width="26" height="26" fill="#10b981"></rect><text x="760" y="362" font-size="28" font-weight="700" fill="#0f172a">技术术语</text><text x="760" y="398" font-size="22" fill="#334155">20 条 (40%)</text><rect x="720" y="452" width="26" height="26" fill="#f59e0b"></rect><text x="760" y="472" font-size="28" font-weight="700" fill="#0f172a">歧义复杂</text><text x="760" y="508" font-size="22" fill="#334155">15 条 (30%)</text><text x="40" y="700" font-size="12" fill="#64748b">Data: benchmark_phrases_50.txt</text></svg>