<svg xmlns="http://www.w3.org/2000/svg" width="1400" height="820" style="background: rgb(255, 255, 255);"><defs><filter id="shadow" x="-20%" y="-20%" width="160%" height="160%"><feDropShadow dx="0" dy="2" stdDeviation="2" flood-color="#0f172a" flood-opacity="0.12"></feDropShadow></filter></defs><text x="36" y="42" font-size="30" font-weight="800" fill="#111827">Prompt 文本差异指标（单案例）</text><text x="36" y="68" font-size="15" fill="#6b7280">可用于变更门禁的轻量指标</text><text x="90" y="202" font-size="30" font-weight="800" fill="#111827">Prompt Chars</text><rect x="420" y="164" width="700" height="20" rx="8" fill="#bae6fd"></rect><rect x="420" y="194" width="700" height="20" rx="8" fill="#bbf7d0"></rect><rect x="420" y="164" width="360.865475070555" height="20" rx="8" fill="#0ea5e9"></rect><rect x="420" y="194" width="700" height="20" rx="8" fill="#22c55e"></rect><text x="1140" y="190" font-size="18" fill="#0369a1">B 1096</text><text x="1140" y="212" font-size="18" fill="#15803d">F 2126</text><text x="1240" y="200" font-size="24" font-weight="800" fill="#7c3aed">+1030 (+94.0%)</text><text x="90" y="392" font-size="30" font-weight="800" fill="#111827">Prompt Lines</text><rect x="420" y="354" width="700" height="20" rx="8" fill="#bae6fd"></rect><rect x="420" y="384" width="700" height="20" rx="8" fill="#bbf7d0"></rect><rect x="420" y="354" width="14.158043273753528" height="20" rx="8" fill="#0ea5e9"></rect><rect x="420" y="384" width="26.01128880526811" height="20" rx="8" fill="#22c55e"></rect><text x="1140" y="380" font-size="18" fill="#0369a1">B 43</text><text x="1140" y="402" font-size="18" fill="#15803d">F 79</text><text x="1240" y="390" font-size="24" font-weight="800" fill="#7c3aed">+36 (+83.7%)</text><text x="90" y="582" font-size="30" font-weight="800" fill="#111827">Prompt Tokens Est</text><rect x="420" y="544" width="700" height="20" rx="8" fill="#bae6fd"></rect><rect x="420" y="574" width="700" height="20" rx="8" fill="#bbf7d0"></rect><rect x="420" y="544" width="90.21636876763876" height="20" rx="8" fill="#0ea5e9"></rect><rect x="420" y="574" width="175.1646284101599" height="20" rx="8" fill="#22c55e"></rect><text x="1140" y="570" font-size="18" fill="#0369a1">B 274</text><text x="1140" y="592" font-size="18" fill="#15803d">F 532</text><text x="1240" y="580" font-size="24" font-weight="800" fill="#7c3aed">+258 (+94.2%)</text><rect x="80" y="700" width="1240" height="90" rx="10" fill="#f3e8ff" stroke="#a855f7"></rect><text x="110" y="755" font-size="28" font-weight="800" fill="#581c87">门禁建议: 若 Prompt Tokens 增幅 &gt; 80%，必须同步满足 Quality 增幅 &gt;= +3 (当前 +9)</text></svg>