<svg xmlns="http://www.w3.org/2000/svg" width="1280" height="720" style="background: rgb(255, 255, 255);"><text x="40" y="42" font-size="28" font-weight="700" fill="#0f172a">核心结果：Baseline vs Fewshot_r1</text><g transform="translate(0,550)" fill="none" font-size="10" font-family="sans-serif" text-anchor="middle"><path class="domain" stroke="currentColor" d="M260.5,6V0.5H1180.5V6"></path><g class="tick" opacity="1" transform="translate(260.5,0)"><line stroke="currentColor" y2="6"></line><text fill="currentColor" y="9" dy="0.71em">0</text></g><g class="tick" opacity="1" transform="translate(421.9114462505937,0)"><line stroke="currentColor" y2="6"></line><text fill="currentColor" y="9" dy="0.71em">10,000</text></g><g class="tick" opacity="1" transform="translate(583.3228925011874,0)"><line stroke="currentColor" y2="6"></line><text fill="currentColor" y="9" dy="0.71em">20,000</text></g><g class="tick" opacity="1" transform="translate(744.7343387517811,0)"><line stroke="currentColor" y2="6"></line><text fill="currentColor" y="9" dy="0.71em">30,000</text></g><g class="tick" opacity="1" transform="translate(906.1457850023749,0)"><line stroke="currentColor" y2="6"></line><text fill="currentColor" y="9" dy="0.71em">40,000</text></g><g class="tick" opacity="1" transform="translate(1067.5572312529684,0)"><line stroke="currentColor" y2="6"></line><text fill="currentColor" y="9" dy="0.71em">50,000</text></g></g><text x="60" y="213.5092024539877" font-size="24" font-weight="700" fill="#0f172a">Quality</text><rect x="260" y="179.5092024539877" width="1.2105858468794963" height="37.99386503067485" fill="#93c5fd"></rect><rect x="260" y="225.50306748466255" width="1.2409311987745468" height="37.99386503067485" fill="#2563eb"></rect><text x="269.2105858468795" y="199.5092024539877" font-size="14" fill="#1e3a8a">B: 75</text><text x="269.24093119877455" y="255.4969325153374" font-size="14" fill="#1e40af">F: 77</text><text x="60" y="327.0061349693251" font-size="24" font-weight="700" fill="#0f172a">Tokens</text><rect x="260" y="293.0061349693251" width="16.60568676736858" height="37.99386503067485" fill="#93c5fd"></rect><rect x="260" y="338.99999999999994" width="22.819058979338934" height="37.99386503067485" fill="#2563eb"></rect><text x="284.6056867673686" y="313.0061349693251" font-size="14" fill="#1e3a8a">B: 1029</text><text x="290.81905897933893" y="368.9938650306748" font-size="14" fill="#1e40af">F: 1414</text><text x="60" y="440.50306748466255" font-size="24" font-weight="700" fill="#0f172a">Latency(ms)</text><rect x="260" y="406.50306748466255" width="753.481866836364" height="37.99386503067485" fill="#93c5fd"></rect><rect x="260" y="452.4969325153374" width="800" height="37.99386503067485" fill="#2563eb"></rect><text x="1021.481866836364" y="426.50306748466255" font-size="14" fill="#1e3a8a">B: 46681</text><text x="1068" y="482.49079754601223" font-size="14" fill="#1e40af">F: 49563</text><rect x="920" y="120" width="260" height="120" rx="12" fill="#f0fdf4" stroke="#16a34a"></rect><text x="940" y="166" font-size="20" font-weight="700" fill="#166534">Delta Quality: +1.88</text><text x="940" y="198" font-size="20" fill="#166534">p-value: 0.0005</text><text x="40" y="700" font-size="12" fill="#64748b">Data: round_metrics_exp_benchmark_50_20260209_140431.csv</text></svg>