<svg xmlns="http://www.w3.org/2000/svg" width="1280" height="720" style="background: rgb(255, 255, 255);"><text x="40" y="42" font-size="28" font-weight="700" fill="#0f172a">Code as Prompt 子页 B：实验门禁与发布判定</text><text x="40" y="72" font-size="15" fill="#475569">以统计显著性和成本效率作为 prompt 变更准入条件</text><rect x="70" y="170" width="1140" height="62" rx="10" fill="#dcfce7" stroke="#16a34a"></rect><text x="88" y="209" font-size="22" font-weight="700" fill="#0f172a">Success Rate &gt;= 95%</text><text x="860" y="209" font-size="20" fill="#1f2937">observed=98.0000%</text><text x="1110" y="209" font-size="20" font-weight="700" fill="#166534">PASS</text><rect x="70" y="252" width="1140" height="62" rx="10" fill="#dcfce7" stroke="#16a34a"></rect><text x="88" y="291" font-size="22" font-weight="700" fill="#0f172a">Delta Quality &gt; 0</text><text x="860" y="291" font-size="20" fill="#1f2937">observed=1.8800</text><text x="1110" y="291" font-size="20" font-weight="700" fill="#166534">PASS</text><rect x="70" y="334" width="1140" height="62" rx="10" fill="#dcfce7" stroke="#16a34a"></rect><text x="88" y="373" font-size="22" font-weight="700" fill="#0f172a">p-value &lt; 0.05</text><text x="860" y="373" font-size="20" fill="#1f2937">observed=0.0005</text><text x="1110" y="373" font-size="20" font-weight="700" fill="#166534">PASS</text><rect x="70" y="416" width="1140" height="62" rx="10" fill="#dcfce7" stroke="#16a34a"></rect><text x="88" y="455" font-size="22" font-weight="700" fill="#0f172a">Cohen's d &gt;= 0.3</text><text x="860" y="455" font-size="20" fill="#1f2937">observed=0.5370</text><text x="1110" y="455" font-size="20" font-weight="700" fill="#166534">PASS</text><rect x="70" y="498" width="1140" height="62" rx="10" fill="#dcfce7" stroke="#16a34a"></rect><text x="88" y="537" font-size="22" font-weight="700" fill="#0f172a">Gain / 1k Tokens &gt;= 3</text><text x="860" y="537" font-size="20" fill="#1f2937">observed=4.8839</text><text x="1110" y="537" font-size="20" font-weight="700" fill="#166534">PASS</text><rect x="70" y="580" width="1140" height="62" rx="10" fill="#fee2e2" stroke="#dc2626"></rect><text x="88" y="619" font-size="22" font-weight="700" fill="#0f172a">Token Increase &lt;= 35%</text><text x="860" y="619" font-size="20" fill="#1f2937">observed=37.4171%</text><text x="1110" y="619" font-size="20" font-weight="700" fill="#991b1b">FAIL</text><rect x="70" y="680" width="1140" height="28" fill="#e2e8f0"></rect><rect x="70" y="680" width="950" height="28" fill="#2563eb"></rect><text x="80" y="668" font-size="16" fill="#334155">Release Gate Coverage: 5/6</text><text x="40" y="700" font-size="12" fill="#64748b">Data: round_metrics_exp_benchmark_50_20260209_140431.csv + round_kpi_summary_exp_benchmark_50_20260209_140431.json</text></svg>