<svg xmlns="http://www.w3.org/2000/svg" width="1680" height="1000" style="background-color: rgb(255, 255, 255);"><defs><marker id="arrow" viewBox="0 -5 10 10" refX="8" refY="0" markerWidth="7" markerHeight="7" orient="auto"><path d="M0,-5L10,0L0,5" fill="#475569"></path></marker><filter id="softShadow" x="-20%" y="-20%" width="160%" height="160%"><feDropShadow dx="0" dy="2" stdDeviation="2.2" flood-color="#0f172a" flood-opacity="0.12"></feDropShadow></filter></defs><text x="40" y="42" font-size="30" font-weight="800" fill="#0f172a">案例数据样例图: "打招呼" baseline vs fewshot_r1</text><text x="40" y="70" font-size="15" font-weight="500" fill="#64748b">关键观测字段与 few-shot 元数据样例</text><g><rect x="60" y="110" width="740" height="284" rx="12" fill="#f8fafc" stroke="#38bdf8" stroke-width="2" filter="url(#softShadow)"></rect><text x="74" y="134" font-size="18" font-weight="600" fill="#1f2937"><tspan x="74" dy="0">Baseline 样例</tspan><tspan x="74" dy="34">quality=64, tokens=870, latency=27552ms</tspan><tspan x="74" dy="34">fewShotEnabled=false, countUsed=0, fallback=none</tspan><tspan x="74" dy="34">basePromptTokens=274, fewshotPromptTokens=0, totalPromptTokensEst=274</tspan></text></g><g><rect x="880" y="110" width="740" height="284" rx="12" fill="#f8fafc" stroke="#22c55e" stroke-width="2" filter="url(#softShadow)"></rect><text x="894" y="134" font-size="18" font-weight="600" fill="#1f2937"><tspan x="894" dy="0">Fewshot_r1 样例</tspan><tspan x="894" dy="34">quality=73, tokens=1291, latency=34387ms</tspan><tspan x="894" dy="34">fewShotEnabled=true, countUsed=1, fallback=budget_reduction</tspan><tspan x="894" dy="34">basePromptTokens=274, fewshotPromptTokens=258, totalPromptTokensEst=532</tspan></text></g><text x="90" y="426" font-size="22" font-weight="800" fill="#0f172a">核心指标条形对照</text><text x="90" y="464" font-size="16" font-weight="700" fill="#334155">quality</text><rect x="220" y="450" width="620" height="26" rx="8" fill="#e2e8f0"></rect><rect x="220" y="450" width="396.8" height="12" rx="6" fill="#0ea5e9"></rect><rect x="220" y="464" width="452.59999999999997" height="12" rx="6" fill="#22c55e"></rect><text x="626.8" y="460" font-size="13" fill="#0369a1">baseline: 64</text><text x="682.5999999999999" y="476" font-size="13" fill="#15803d">fewshot: 73</text><text x="90" y="584" font-size="16" font-weight="700" fill="#334155">tokens</text><rect x="220" y="570" width="620" height="26" rx="8" fill="#e2e8f0"></rect><rect x="220" y="570" width="363.3179537264675" height="12" rx="6" fill="#0ea5e9"></rect><rect x="220" y="584" width="539.1304347826087" height="12" rx="6" fill="#22c55e"></rect><text x="593.3179537264675" y="580" font-size="13" fill="#0369a1">baseline: 870</text><text x="769.1304347826087" y="596" font-size="13" fill="#15803d">fewshot: 1291</text><text x="90" y="704" font-size="16" font-weight="700" fill="#334155">latency(ms)</text><rect x="220" y="690" width="620" height="26" rx="8" fill="#e2e8f0"></rect><rect x="220" y="690" width="413.9703957891063" height="12" rx="6" fill="#0ea5e9"></rect><rect x="220" y="704" width="516.6666666666666" height="12" rx="6" fill="#22c55e"></rect><text x="643.9703957891063" y="700" font-size="13" fill="#0369a1">baseline: 27552</text><text x="746.6666666666666" y="716" font-size="13" fill="#15803d">fewshot: 34387</text><g><rect x="900" y="450" width="720" height="420" rx="12" fill="#111827" stroke="#374151" stroke-width="2" filter="url(#softShadow)"></rect><text x="914" y="474" font-size="18" font-weight="600" fill="#f9fafb"><tspan x="914" dy="0">metadata.fewShot 样例 (fewshot_r1)</tspan><tspan x="914" dy="34">{</tspan><tspan x="914" dy="34">  "enabled": true,</tspan><tspan x="914" dy="34">  "countUsed": 1,</tspan><tspan x="914" dy="34">  "fallbackReason": "budget_reduction",</tspan><tspan x="914" dy="34">  "basePromptTokens": 274,</tspan><tspan x="914" dy="34">  "fewshotPromptTokens": 258,</tspan><tspan x="914" dy="34">  "totalPromptTokensEst": 532,</tspan><tspan x="914" dy="34">  "exampleIds": [27]</tspan><tspan x="914" dy="34">}</tspan></text></g><text x="40" y="970" font-size="12" fill="#64748b">Source: exp_benchmark_50_20260209_140431 baseline.jsonl + fewshot_r1.jsonl</text></svg>