<svg xmlns="http://www.w3.org/2000/svg" width="1600" height="900" style="background: rgb(248, 250, 252); font-family: &quot;Yu Gothic&quot;, &quot;Hiragino Kaku Gothic ProN&quot;, &quot;Meiryo&quot;, sans-serif;"><rect x="18" y="18" width="1564" height="864" rx="20" fill="#ffffff" stroke="#e2e8f0"></rect><text x="56" y="78" font-size="46" font-weight="800" fill="#0f172a">Code as Prompt：精度向上の4施策</text><text x="56" y="114" font-size="22" fill="#475569">対象：1 / 2 / 3 / 4（簡潔版）</text><rect x="68" y="170" width="710" height="300" rx="16" fill="#e0f2fe" stroke="#0284c7" stroke-width="2.6"></rect><circle cx="116" cy="222" r="24" fill="#0f172a"></circle><text x="116" y="230" text-anchor="middle" font-size="25" font-weight="800" fill="#ffffff">1</text><text x="152" y="230" font-size="34" font-weight="800" fill="#0f172a">Schema先行制約</text><text x="108" y="294" font-size="24" fill="#1e293b">- 出力構造と必須項目を先に固定</text><text x="108" y="348" font-size="24" fill="#1e293b">- 不整合は自動修復で再試行</text><text x="108" y="402" font-size="24" fill="#1e293b">- 形式安定性と解析成功率を改善</text><rect x="822" y="170" width="710" height="300" rx="16" fill="#ede9fe" stroke="#7c3aed" stroke-width="2.6"></rect><circle cx="870" cy="222" r="24" fill="#0f172a"></circle><text x="870" y="230" text-anchor="middle" font-size="25" font-weight="800" fill="#ffffff">2</text><text x="906" y="230" font-size="34" font-weight="800" fill="#0f172a">Rule Pack注入</text><text x="862" y="294" font-size="24" fill="#1e293b">- 業務ルールをモジュール化・版管理</text><text x="862" y="348" font-size="24" fill="#1e293b">- テキスト/OCR/比較で切替適用</text><text x="862" y="402" font-size="24" fill="#1e293b">- ルール逸脱と回帰を抑制</text><rect x="68" y="510" width="710" height="300" rx="16" fill="#dcfce7" stroke="#16a34a" stroke-width="2.6"></rect><circle cx="116" cy="562" r="24" fill="#0f172a"></circle><text x="116" y="570" text-anchor="middle" font-size="25" font-weight="800" fill="#ffffff">3</text><text x="152" y="570" font-size="34" font-weight="800" fill="#0f172a">2段階生成</text><text x="108" y="634" font-size="24" fill="#1e293b">- 草案生成 -&gt; 検証 -&gt; ピンポイント修正</text><text x="108" y="688" font-size="24" fill="#1e293b">- 正確性/完全性/形式を検査</text><text x="108" y="742" font-size="24" fill="#1e293b">- 意味エラー発生率を低減</text><rect x="822" y="510" width="710" height="300" rx="16" fill="#ffedd5" stroke="#ea580c" stroke-width="2.6"></rect><circle cx="870" cy="562" r="24" fill="#0f172a"></circle><text x="870" y="570" text-anchor="middle" font-size="25" font-weight="800" fill="#ffffff">4</text><text x="906" y="570" font-size="34" font-weight="800" fill="#0f172a">タスク別Promptルーティング</text><text x="862" y="634" font-size="24" fill="#1e293b">- 入力タイプごとにPromptを切替</text><text x="862" y="688" font-size="24" fill="#1e293b">- ノイズOCR/専門用語/口語を分治</text><text x="862" y="742" font-size="24" fill="#1e293b">- 初回品質ヒット率を向上</text><text x="56" y="860" font-size="16" fill="#64748b">One-page summary for this project</text></svg>