<svg xmlns="http://www.w3.org/2000/svg" width="1600" height="900" style="background: rgb(248, 250, 252); font-family: &quot;Microsoft YaHei&quot;, &quot;PingFang SC&quot;, &quot;SimHei&quot;, sans-serif;"><text x="48" y="62" font-size="44" font-weight="700" fill="#0f172a">业界平台能力对照（抽象维度）</text><text x="48" y="98" font-size="20" fill="#475569">本页展示能力类型，不做产品优劣排名</text><text x="470" y="168" text-anchor="middle" font-size="26" font-weight="700" fill="#0f172a">LangSmith</text><text x="750" y="168" text-anchor="middle" font-size="26" font-weight="700" fill="#0f172a">Phoenix</text><text x="1030" y="168" text-anchor="middle" font-size="26" font-weight="700" fill="#0f172a">W&amp;B Weave</text><text x="1310" y="168" text-anchor="middle" font-size="26" font-weight="700" fill="#0f172a">Azure Foundry</text><text x="74" y="244" font-size="28" font-weight="700" fill="#0f172a">Tracing</text><rect x="350" y="190" width="262" height="74" rx="12" fill="rgb(37, 99, 235)" stroke="#cbd5e1"></rect><text x="481" y="242" text-anchor="middle" font-size="28" font-weight="700" fill="#ffffff">3</text><rect x="630" y="190" width="262" height="74" rx="12" fill="rgb(37, 99, 235)" stroke="#cbd5e1"></rect><text x="761" y="242" text-anchor="middle" font-size="28" font-weight="700" fill="#ffffff">3</text><rect x="910" y="190" width="262" height="74" rx="12" fill="rgb(37, 99, 235)" stroke="#cbd5e1"></rect><text x="1041" y="242" text-anchor="middle" font-size="28" font-weight="700" fill="#ffffff">3</text><rect x="1190" y="190" width="262" height="74" rx="12" fill="rgb(37, 99, 235)" stroke="#cbd5e1"></rect><text x="1321" y="242" text-anchor="middle" font-size="28" font-weight="700" fill="#ffffff">3</text><text x="74" y="334" font-size="28" font-weight="700" fill="#0f172a">Live Monitor</text><rect x="350" y="280" width="262" height="74" rx="12" fill="rgb(37, 99, 235)" stroke="#cbd5e1"></rect><text x="481" y="332" text-anchor="middle" font-size="28" font-weight="700" fill="#ffffff">3</text><rect x="630" y="280" width="262" height="74" rx="12" fill="rgb(132, 166, 238)" stroke="#cbd5e1"></rect><text x="761" y="332" text-anchor="middle" font-size="28" font-weight="700" fill="#ffffff">2</text><rect x="910" y="280" width="262" height="74" rx="12" fill="rgb(132, 166, 238)" stroke="#cbd5e1"></rect><text x="1041" y="332" text-anchor="middle" font-size="28" font-weight="700" fill="#ffffff">2</text><rect x="1190" y="280" width="262" height="74" rx="12" fill="rgb(37, 99, 235)" stroke="#cbd5e1"></rect><text x="1321" y="332" text-anchor="middle" font-size="28" font-weight="700" fill="#ffffff">3</text><text x="74" y="424" font-size="28" font-weight="700" fill="#0f172a">Evaluation</text><rect x="350" y="370" width="262" height="74" rx="12" fill="rgb(37, 99, 235)" stroke="#cbd5e1"></rect><text x="481" y="422" text-anchor="middle" font-size="28" font-weight="700" fill="#ffffff">3</text><rect x="630" y="370" width="262" height="74" rx="12" fill="rgb(37, 99, 235)" stroke="#cbd5e1"></rect><text x="761" y="422" text-anchor="middle" font-size="28" font-weight="700" fill="#ffffff">3</text><rect x="910" y="370" width="262" height="74" rx="12" fill="rgb(37, 99, 235)" stroke="#cbd5e1"></rect><text x="1041" y="422" text-anchor="middle" font-size="28" font-weight="700" fill="#ffffff">3</text><rect x="1190" y="370" width="262" height="74" rx="12" fill="rgb(37, 99, 235)" stroke="#cbd5e1"></rect><text x="1321" y="422" text-anchor="middle" font-size="28" font-weight="700" fill="#ffffff">3</text><text x="74" y="514" font-size="28" font-weight="700" fill="#0f172a">Prompt Versioning</text><rect x="350" y="460" width="262" height="74" rx="12" fill="rgb(132, 166, 238)" stroke="#cbd5e1"></rect><text x="481" y="512" text-anchor="middle" font-size="28" font-weight="700" fill="#ffffff">2</text><rect x="630" y="460" width="262" height="74" rx="12" fill="rgb(132, 166, 238)" stroke="#cbd5e1"></rect><text x="761" y="512" text-anchor="middle" font-size="28" font-weight="700" fill="#ffffff">2</text><rect x="910" y="460" width="262" height="74" rx="12" fill="rgb(37, 99, 235)" stroke="#cbd5e1"></rect><text x="1041" y="512" text-anchor="middle" font-size="28" font-weight="700" fill="#ffffff">3</text><rect x="1190" y="460" width="262" height="74" rx="12" fill="rgb(132, 166, 238)" stroke="#cbd5e1"></rect><text x="1321" y="512" text-anchor="middle" font-size="28" font-weight="700" fill="#ffffff">2</text><text x="74" y="604" font-size="28" font-weight="700" fill="#0f172a">OpenTelemetry</text><rect x="350" y="550" width="262" height="74" rx="12" fill="rgb(37, 99, 235)" stroke="#cbd5e1"></rect><text x="481" y="602" text-anchor="middle" font-size="28" font-weight="700" fill="#ffffff">3</text><rect x="630" y="550" width="262" height="74" rx="12" fill="rgb(37, 99, 235)" stroke="#cbd5e1"></rect><text x="761" y="602" text-anchor="middle" font-size="28" font-weight="700" fill="#ffffff">3</text><rect x="910" y="550" width="262" height="74" rx="12" fill="rgb(132, 166, 238)" stroke="#cbd5e1"></rect><text x="1041" y="602" text-anchor="middle" font-size="28" font-weight="700" fill="#ffffff">2</text><rect x="1190" y="550" width="262" height="74" rx="12" fill="rgb(37, 99, 235)" stroke="#cbd5e1"></rect><text x="1321" y="602" text-anchor="middle" font-size="28" font-weight="700" fill="#ffffff">3</text><text x="74" y="694" font-size="28" font-weight="700" fill="#0f172a">Self-host Option</text><rect x="350" y="640" width="262" height="74" rx="12" fill="rgb(132, 166, 238)" stroke="#cbd5e1"></rect><text x="481" y="692" text-anchor="middle" font-size="28" font-weight="700" fill="#ffffff">2</text><rect x="630" y="640" width="262" height="74" rx="12" fill="rgb(37, 99, 235)" stroke="#cbd5e1"></rect><text x="761" y="692" text-anchor="middle" font-size="28" font-weight="700" fill="#ffffff">3</text><rect x="910" y="640" width="262" height="74" rx="12" fill="rgb(226, 232, 240)" stroke="#cbd5e1"></rect><text x="1041" y="692" text-anchor="middle" font-size="28" font-weight="700" fill="#0f172a">1</text><rect x="1190" y="640" width="262" height="74" rx="12" fill="rgb(226, 232, 240)" stroke="#cbd5e1"></rect><text x="1321" y="692" text-anchor="middle" font-size="28" font-weight="700" fill="#0f172a">1</text><text x="48" y="872" font-size="13" fill="#64748b">Scoring legend: 1=basic, 2=available, 3=strong</text></svg>