<svg xmlns="http://www.w3.org/2000/svg" width="1600" height="900" style="background: rgb(248, 250, 252); font-family: &quot;Microsoft YaHei&quot;, &quot;PingFang SC&quot;, &quot;SimHei&quot;, sans-serif;"><text x="48" y="62" font-size="44" font-weight="700" fill="#0f172a">本工程映射：AI Agent 可观测架构（现状）</text><text x="48" y="98" font-size="20" fill="#475569">Trilingual Records + Gateway + Host Executor</text><rect x="80" y="230" width="250" height="110" rx="16" fill="#dbeafe" stroke="#2563eb" stroke-width="2"></rect><text x="205" y="296" text-anchor="middle" font-size="30" font-weight="700" fill="#0f172a">Web UI</text><rect x="390" y="230" width="340" height="110" rx="16" fill="#dcfce7" stroke="#16a34a" stroke-width="2"></rect><text x="560" y="296" text-anchor="middle" font-size="30" font-weight="700" fill="#0f172a">Node Server :3010</text><rect x="800" y="230" width="330" height="110" rx="16" fill="#fff7ed" stroke="#ea580c" stroke-width="2"></rect><text x="965" y="296" text-anchor="middle" font-size="30" font-weight="700" fill="#0f172a">Gateway :18888</text><rect x="1200" y="230" width="320" height="110" rx="16" fill="#f3e8ff" stroke="#7c3aed" stroke-width="2"></rect><text x="1360" y="296" text-anchor="middle" font-size="30" font-weight="700" fill="#0f172a">Executor :3210</text><rect x="390" y="420" width="260" height="110" rx="16" fill="#e2e8f0" stroke="#64748b" stroke-width="2"></rect><text x="520" y="486" text-anchor="middle" font-size="30" font-weight="700" fill="#0f172a">SQLite + Files</text><rect x="720" y="420" width="220" height="110" rx="16" fill="#e0f2fe" stroke="#0891b2" stroke-width="2"></rect><text x="830" y="486" text-anchor="middle" font-size="30" font-weight="700" fill="#0f172a">TTS EN/JA</text><rect x="1000" y="420" width="220" height="110" rx="16" fill="#fef3c7" stroke="#ca8a04" stroke-width="2"></rect><text x="1110" y="486" text-anchor="middle" font-size="30" font-weight="700" fill="#0f172a">OCR Service</text><line x1="330" y1="285" x2="390" y2="285" stroke="#64748b" stroke-width="2.4"></line><text x="360" y="277" text-anchor="middle" font-size="18" fill="#475569">请求</text><line x1="730" y1="285" x2="800" y2="285" stroke="#64748b" stroke-width="2.4"></line><text x="765" y="277" text-anchor="middle" font-size="18" fill="#475569">模型调用</text><line x1="1130" y1="285" x2="1200" y2="285" stroke="#64748b" stroke-width="2.4"></line><text x="1165" y="277" text-anchor="middle" font-size="18" fill="#475569">转发</text><line x1="560" y1="340" x2="520" y2="420" stroke="#64748b" stroke-width="2.4"></line><text x="540" y="372" text-anchor="middle" font-size="18" fill="#475569">落库</text><line x1="730" y1="340" x2="800" y2="420" stroke="#64748b" stroke-width="2.4"></line><text x="765" y="372" text-anchor="middle" font-size="18" fill="#475569">音频</text><line x1="860" y1="340" x2="1110" y2="420" stroke="#64748b" stroke-width="2.4"></line><text x="985" y="372" text-anchor="middle" font-size="18" fill="#475569">OCR</text><text x="48" y="872" font-size="13" fill="#64748b">Current codebase snapshot: 27 API routes, 16 DB tables</text></svg>