<svg xmlns="http://www.w3.org/2000/svg" width="1600" height="900" style="background: rgb(248, 250, 252); font-family: &quot;Microsoft YaHei&quot;, &quot;PingFang SC&quot;, &quot;SimHei&quot;, sans-serif;"><defs><marker id="arrow" viewBox="0 -5 10 10" refX="9" refY="0" markerWidth="7" markerHeight="7" orient="auto"><path d="M0,-5L10,0L0,5" fill="#64748b"></path></marker></defs><text x="48" y="62" font-size="42" font-weight="700" fill="#0f172a">后台使用方式：review-gated few-shot 注入</text><text x="48" y="96" font-size="20" fill="#475569">先取人工通过样本，再按相似度/评分排序注入</text><rect x="80" y="210" width="250" height="92" rx="14" fill="#dbeafe" stroke="#2563eb" stroke-width="2"></rect><text x="205" y="265" text-anchor="middle" font-size="24" font-weight="700" fill="#0f172a">build fewShotConfig</text><line x1="330" y1="256" x2="370" y2="256" stroke="#64748b" stroke-width="2.4" marker-end="url(#arrow)"></line><rect x="370" y="210" width="270" height="92" rx="14" fill="#fff7ed" stroke="#ea580c" stroke-width="2"></rect><text x="505" y="265" text-anchor="middle" font-size="24" font-weight="700" fill="#0f172a">reviewGated?</text><line x1="640" y1="256" x2="680" y2="256" stroke="#64748b" stroke-width="2.4" marker-end="url(#arrow)"></line><rect x="680" y="210" width="350" height="92" rx="14" fill="#dcfce7" stroke="#16a34a" stroke-width="2"></rect><text x="855" y="265" text-anchor="middle" font-size="24" font-weight="700" fill="#0f172a">getApprovedExamplesForFewShot</text><line x1="1030" y1="256" x2="1070" y2="256" stroke="#64748b" stroke-width="2.4" marker-end="url(#arrow)"></line><rect x="1070" y="210" width="220" height="92" rx="14" fill="#dcfce7" stroke="#16a34a" stroke-width="2"></rect><text x="1180" y="265" text-anchor="middle" font-size="24" font-weight="700" fill="#0f172a">有样本</text><line x1="1290" y1="256" x2="1330" y2="256" stroke="#64748b" stroke-width="2.4" marker-end="url(#arrow)"></line><rect x="1330" y="210" width="210" height="92" rx="14" fill="#e0f2fe" stroke="#0891b2" stroke-width="2"></rect><text x="1435" y="265" text-anchor="middle" font-size="24" font-weight="700" fill="#0f172a">注入 Prompt</text><rect x="450" y="380" width="300" height="92" rx="14" fill="#ffffff" stroke="#94a3b8" stroke-width="2"></rect><text x="600" y="436" text-anchor="middle" font-size="22" fill="#0f172a">无样本 &amp; reviewOnly=true</text><line x1="750" y1="426" x2="800" y2="426" stroke="#64748b" stroke-width="2.4" marker-end="url(#arrow)"></line><text x="775" y="418" text-anchor="middle" font-size="18" fill="#475569">Yes</text><rect x="800" y="380" width="320" height="92" rx="14" fill="#ffffff" stroke="#94a3b8" stroke-width="2"></rect><text x="960" y="436" text-anchor="middle" font-size="22" fill="#0f172a">返回空数组 (不注入)</text><rect x="450" y="520" width="300" height="92" rx="14" fill="#ffffff" stroke="#94a3b8" stroke-width="2"></rect><text x="600" y="576" text-anchor="middle" font-size="22" fill="#0f172a">无样本 &amp; reviewOnly=false</text><line x1="750" y1="566" x2="800" y2="566" stroke="#64748b" stroke-width="2.4" marker-end="url(#arrow)"></line><text x="775" y="558" text-anchor="middle" font-size="18" fill="#475569">No</text><rect x="800" y="520" width="320" height="92" rx="14" fill="#ffffff" stroke="#94a3b8" stroke-width="2"></rect><text x="960" y="576" text-anchor="middle" font-size="22" fill="#0f172a">回退 teacher/历史样本</text><line x1="1120" y1="472" x2="1120" y2="640" stroke="#64748b" stroke-width="2.4" marker-end="url(#arrow)"></line><text x="1120" y="548" text-anchor="middle" font-size="18" fill="#475569">两条路径最终汇合</text><rect x="980" y="640" width="460" height="150" rx="14" fill="#f1f5f9" stroke="#94a3b8" stroke-width="2"></rect><text x="996" y="672" font-size="22" font-weight="700" fill="#0f172a">注入候选排序</text><text x="1010" y="700" font-size="22" fill="#334155">- similarity (bigram)</text><text x="1010" y="730" font-size="22" fill="#334155">- review_score_overall</text><text x="1010" y="760" font-size="22" fill="#334155">- review_votes</text><text x="48" y="874" font-size="13" fill="#64748b">Source: server.js(processFewShotPrompt) + goldenExamplesService.js</text></svg>