<svg xmlns="http://www.w3.org/2000/svg" width="1280" height="720" style="background: rgb(255, 255, 255);"><text x="40" y="42" font-size="28" font-weight="700" fill="#0f172a">システム可観測性カバレッジ：パイプライン・データ・連携窓口</text><text x="32" y="208" font-size="23" fill="#0f172a">生成パイプライン工程</text><rect x="260" y="170" width="760" height="56" rx="12" fill="#e2e8f0"/><rect x="260" y="170" width="633.3333333333334" height="56" rx="12" fill="#2563eb"/><text x="1044" y="208" font-size="22" font-weight="700" fill="#0f172a">10/12</text><text x="32" y="298" font-size="23" fill="#0f172a">主要連携窓口</text><rect x="260" y="260" width="760" height="56" rx="12" fill="#e2e8f0"/><rect x="260" y="260" width="722" height="56" rx="12" fill="#16a34a"/><text x="1044" y="298" font-size="22" font-weight="700" fill="#0f172a">19/20</text><text x="32" y="388" font-size="23" fill="#0f172a">DB主要テーブル</text><rect x="260" y="350" width="760" height="56" rx="12" fill="#e2e8f0"/><rect x="260" y="350" width="696.6666666666666" height="56" rx="12" fill="#ea580c"/><text x="1044" y="388" font-size="22" font-weight="700" fill="#0f172a">11/12</text><text x="32" y="478" font-size="23" fill="#0f172a">実験データ次元</text><rect x="260" y="440" width="760" height="56" rx="12" fill="#e2e8f0"/><rect x="260" y="440" width="760" height="56" rx="12" fill="#9333ea"/><text x="1044" y="478" font-size="22" font-weight="700" fill="#0f172a">6/6</text><text x="40" y="700" font-size="12" fill="#64748b">Source: システム構成と観測設計資料</text></svg>