<svg xmlns="http://www.w3.org/2000/svg" width="1280" height="720" style="background: rgb(255, 255, 255);"><text x="40" y="42" font-size="28" font-weight="700" fill="#0f172a">実験再現パイプライン：実行 -&gt; 集計 -&gt; 可視化 -&gt; 報告</text><rect x="80" y="250" width="220" height="120" rx="14" fill="#dbeafe" stroke="#334155"/><text x="94" y="292" font-size="18" font-weight="700" fill="#0f172a">実験実行</text><text x="94" y="332" font-size="17" fill="#475569">出力: 個票データ</text><line x1="300" y1="310" x2="360" y2="310" stroke="#64748b" stroke-width="3"/><rect x="370" y="250" width="220" height="120" rx="14" fill="#ffedd5" stroke="#334155"/><text x="384" y="292" font-size="18" font-weight="700" fill="#0f172a">集計と統計検定</text><text x="384" y="332" font-size="17" fill="#475569">出力: 集計データ + 検定結果</text><line x1="590" y1="310" x2="680" y2="310" stroke="#64748b" stroke-width="3"/><rect x="690" y="250" width="220" height="120" rx="14" fill="#ede9fe" stroke="#334155"/><text x="704" y="292" font-size="18" font-weight="700" fill="#0f172a">主要指標の可視化</text><text x="704" y="332" font-size="17" fill="#475569">出力: プレゼン図表</text><line x1="910" y1="310" x2="970" y2="310" stroke="#64748b" stroke-width="3"/><rect x="980" y="250" width="220" height="120" rx="14" fill="#dcfce7" stroke="#334155"/><text x="994" y="292" font-size="18" font-weight="700" fill="#0f172a">評価レポート生成</text><text x="994" y="332" font-size="17" fill="#475569">出力: 評価レポート</text><rect x="300" y="430" width="680" height="200" rx="16" fill="#f8fafc" stroke="#cbd5e1"/><text x="350" y="500" font-size="24" fill="#1f2937">データセット: 8+ 集計ファイル</text><text x="350" y="544" font-size="24" fill="#1f2937">図表: 6 主要チャート</text><text x="350" y="588" font-size="24" fill="#1f2937">レポート: KPI版 + 詳細版</text><text x="40" y="700" font-size="12" fill="#64748b">Source: 実験運用手順と自動集計仕様</text></svg>