<svg xmlns="http://www.w3.org/2000/svg" width="1400" height="820" style="background: rgb(255, 255, 255);"><defs><filter id="shadow" x="-20%" y="-20%" width="160%" height="160%"><feDropShadow dx="0" dy="2" stdDeviation="2" flood-color="#0f172a" flood-opacity="0.12"/></filter></defs><text x="36" y="42" font-size="30" font-weight="800" fill="#111827">Code as Prompt ケースKPI（挨拶）</text><text x="36" y="68" font-size="15" fill="#6b7280">baseline vs fewshot_r1</text><rect x="70" y="140" width="390" height="250" rx="14" fill="#f8fafc" stroke="#d1d5db" filter="url(#shadow)"/><text x="90" y="176" font-size="24" font-weight="700" fill="#111827">Quality</text><text x="90" y="226" font-size="18" fill="#0284c7">baseline: 64</text><text x="90" y="260" font-size="18" fill="#15803d">fewshot: 73</text><text x="90" y="320" font-size="34" font-weight="800" fill="#22c55e">+9 (+14.1%)</text><rect x="510" y="140" width="390" height="250" rx="14" fill="#f8fafc" stroke="#d1d5db" filter="url(#shadow)"/><text x="530" y="176" font-size="24" font-weight="700" fill="#111827">Tokens</text><text x="530" y="226" font-size="18" fill="#0284c7">baseline: 870</text><text x="530" y="260" font-size="18" fill="#15803d">fewshot: 1,291</text><text x="530" y="320" font-size="34" font-weight="800" fill="#ef4444">+421 (+48.4%)</text><rect x="950" y="140" width="390" height="250" rx="14" fill="#f8fafc" stroke="#d1d5db" filter="url(#shadow)"/><text x="970" y="176" font-size="24" font-weight="700" fill="#111827">Latency(ms)</text><text x="970" y="226" font-size="18" fill="#0284c7">baseline: 27,552</text><text x="970" y="260" font-size="18" fill="#15803d">fewshot: 34,387</text><text x="970" y="320" font-size="34" font-weight="800" fill="#ef4444">+6,835 (+24.8%)</text><rect x="70" y="440" width="1260" height="280" rx="14" fill="#eef2ff" stroke="#6366f1" stroke-width="2"/><text x="100" y="500" font-size="28" font-weight="700" fill="#312e81">Prompt Tokens: 274 -&gt; 532 (+258)</text><text x="100" y="572" font-size="28" font-weight="700" fill="#312e81">Few-shot: countUsed=1, fallback=budget_reduction</text><text x="100" y="644" font-size="28" font-weight="700" fill="#312e81">結論: 品質 +9、ただし Tokens/Latency は増加</text></svg>