<svg xmlns="http://www.w3.org/2000/svg" width="1280" height="720" style="background: rgb(255, 255, 255);"><text x="40" y="42" font-size="28" font-weight="700" fill="#0f172a">実験成果物カバレッジ：データ/図表/レポート</text><g transform="translate(0,580)" fill="none" font-size="10" font-family="sans-serif" text-anchor="middle"><path class="domain" stroke="currentColor" d="M250.5,6V0.5H1050.5V6"/><g class="tick" opacity="1" transform="translate(411.19402985074623,0)"><line stroke="currentColor" y2="6"/><text fill="currentColor" y="9" dy="0.71em">Chart SVG</text></g><g class="tick" opacity="1" transform="translate(650,0)"><line stroke="currentColor" y2="6"/><text fill="currentColor" y="9" dy="0.71em">Data Files</text></g><g class="tick" opacity="1" transform="translate(888.8059701492539,0)"><line stroke="currentColor" y2="6"/><text fill="currentColor" y="9" dy="0.71em">Reports</text></g></g><g transform="translate(250,0)" fill="none" font-size="10" font-family="sans-serif" text-anchor="end"><path class="domain" stroke="currentColor" d="M-6,580.5H0.5V160.5H-6"/><g class="tick" opacity="1" transform="translate(0,580.5)"><line stroke="currentColor" x2="-6"/><text fill="currentColor" x="-9" dy="0.32em">0</text></g><g class="tick" opacity="1" transform="translate(0,523.1229508196722)"><line stroke="currentColor" x2="-6"/><text fill="currentColor" x="-9" dy="0.32em">10</text></g><g class="tick" opacity="1" transform="translate(0,465.7459016393443)"><line stroke="currentColor" x2="-6"/><text fill="currentColor" x="-9" dy="0.32em">20</text></g><g class="tick" opacity="1" transform="translate(0,408.36885245901635)"><line stroke="currentColor" x2="-6"/><text fill="currentColor" x="-9" dy="0.32em">30</text></g><g class="tick" opacity="1" transform="translate(0,350.9918032786885)"><line stroke="currentColor" x2="-6"/><text fill="currentColor" x="-9" dy="0.32em">40</text></g><g class="tick" opacity="1" transform="translate(0,293.61475409836066)"><line stroke="currentColor" x2="-6"/><text fill="currentColor" x="-9" dy="0.32em">50</text></g><g class="tick" opacity="1" transform="translate(0,236.2377049180328)"><line stroke="currentColor" x2="-6"/><text fill="currentColor" x="-9" dy="0.32em">60</text></g><g class="tick" opacity="1" transform="translate(0,178.86065573770495)"><line stroke="currentColor" x2="-6"/><text fill="currentColor" x="-9" dy="0.32em">70</text></g></g><rect x="333.58208955223876" y="230.00000000000003" width="155.22388059701495" height="350" fill="#2563eb"/><text x="411.19402985074623" y="218.00000000000003" text-anchor="middle" font-size="20" font-weight="700" fill="#0f172a">61</text><rect x="572.3880597014925" y="333.27868852459017" width="155.22388059701495" height="246.72131147540983" fill="#16a34a"/><text x="650" y="321.27868852459017" text-anchor="middle" font-size="20" font-weight="700" fill="#0f172a">43</text><rect x="811.1940298507463" y="493.93442622950823" width="155.22388059701495" height="86.06557377049177" fill="#ea580c"/><text x="888.8059701492539" y="481.93442622950823" text-anchor="middle" font-size="20" font-weight="700" fill="#0f172a">15</text><text x="40" y="700" font-size="12" fill="#64748b">Data: filesystem counts under Docs/TestDocs</text></svg>