<svg xmlns="http://www.w3.org/2000/svg" width="1400" height="820" style="background: rgb(255, 255, 255);"><defs><filter id="shadow" x="-20%" y="-20%" width="160%" height="160%"><feDropShadow dx="0" dy="2" stdDeviation="2" flood-color="#0f172a" flood-opacity="0.12"/></filter></defs><text x="36" y="42" font-size="30" font-weight="800" fill="#111827">Prompt構成比較（Token視点）</text><text x="36" y="68" font-size="15" fill="#6b7280">baseline vs fewshot_r1</text><text x="80" y="230" font-size="28" font-weight="700" fill="#111827">baseline</text><rect x="280" y="196" width="880" height="44" rx="10" fill="#e5e7eb"/><rect x="280" y="196" width="453.23308270676694" height="20" rx="8" fill="#0ea5e9"/><rect x="280" y="220" width="0" height="20" rx="8" fill="#0369a1"/><text x="743.2330827067669" y="212" font-size="16" fill="#1d4ed8">base 274</text><text x="290" y="236" font-size="16" fill="#166534">inject 0</text><text x="1170" y="228" font-size="22" font-weight="700" fill="#111827">total 274</text><text x="80" y="410" font-size="28" font-weight="700" fill="#111827">fewshot_r1</text><rect x="280" y="376" width="880" height="44" rx="10" fill="#e5e7eb"/><rect x="280" y="376" width="453.23308270676694" height="20" rx="8" fill="#22c55e"/><rect x="280" y="400" width="426.76691729323306" height="20" rx="8" fill="#15803d"/><text x="743.2330827067669" y="392" font-size="16" fill="#1d4ed8">base 274</text><text x="716.7669172932331" y="416" font-size="16" fill="#166534">inject 258</text><text x="1170" y="408" font-size="22" font-weight="700" fill="#111827">total 532</text><rect x="90" y="560" width="290" height="150" rx="12" fill="#f8fafc" stroke="#d1d5db" filter="url(#shadow)"/><text x="106" y="640" font-size="26" font-weight="800" fill="#0f172a">注入比率: 48.5%</text><rect x="410" y="560" width="290" height="150" rx="12" fill="#f8fafc" stroke="#d1d5db" filter="url(#shadow)"/><text x="426" y="640" font-size="26" font-weight="800" fill="#0f172a">countRequested: 2</text><rect x="730" y="560" width="290" height="150" rx="12" fill="#f8fafc" stroke="#d1d5db" filter="url(#shadow)"/><text x="746" y="640" font-size="26" font-weight="800" fill="#0f172a">countUsed: 1</text><rect x="1050" y="560" width="290" height="150" rx="12" fill="#f8fafc" stroke="#d1d5db" filter="url(#shadow)"/><text x="1066" y="640" font-size="26" font-weight="800" fill="#0f172a">fallback: budget_reduction</text></svg>