<svg xmlns="http://www.w3.org/2000/svg" width="1280" height="720" style="background: rgb(255, 255, 255);"><text x="40" y="42" font-size="28" font-weight="700" fill="#0f172a">システム可観測性 サブページB：収集タイムラインと指標配置</text><text x="40" y="72" font-size="15" fill="#475569">生成パイプライン9工程における可観測フィールド</text><circle cx="70" cy="250" r="26" fill="#dbeafe" stroke="#2563eb" stroke-width="2"/><text x="70" y="256" text-anchor="middle" font-size="12" font-weight="700" fill="#1e3a8a">1</text><text x="70" y="302" text-anchor="middle" font-size="12" fill="#334155">request</text><line x1="96" y1="250" x2="172" y2="250" stroke="#94a3b8" stroke-width="2"/><circle cx="198" cy="250" r="26" fill="#dbeafe" stroke="#2563eb" stroke-width="2"/><text x="198" y="256" text-anchor="middle" font-size="12" font-weight="700" fill="#1e3a8a">2</text><text x="198" y="302" text-anchor="middle" font-size="12" fill="#334155">promptBuild</text><line x1="224" y1="250" x2="300" y2="250" stroke="#94a3b8" stroke-width="2"/><circle cx="326" cy="250" r="26" fill="#dbeafe" stroke="#2563eb" stroke-width="2"/><text x="326" y="256" text-anchor="middle" font-size="12" font-weight="700" fill="#1e3a8a">3</text><text x="326" y="302" text-anchor="middle" font-size="12" fill="#334155">llmCall</text><line x1="352" y1="250" x2="428" y2="250" stroke="#94a3b8" stroke-width="2"/><circle cx="454" cy="250" r="26" fill="#dbeafe" stroke="#2563eb" stroke-width="2"/><text x="454" y="256" text-anchor="middle" font-size="12" font-weight="700" fill="#1e3a8a">4</text><text x="454" y="302" text-anchor="middle" font-size="12" fill="#334155">parse</text><line x1="480" y1="250" x2="556" y2="250" stroke="#94a3b8" stroke-width="2"/><circle cx="582" cy="250" r="26" fill="#dbeafe" stroke="#2563eb" stroke-width="2"/><text x="582" y="256" text-anchor="middle" font-size="12" font-weight="700" fill="#1e3a8a">5</text><text x="582" y="302" text-anchor="middle" font-size="12" fill="#334155">postProcess</text><line x1="608" y1="250" x2="684" y2="250" stroke="#94a3b8" stroke-width="2"/><circle cx="710" cy="250" r="26" fill="#dbeafe" stroke="#2563eb" stroke-width="2"/><text x="710" y="256" text-anchor="middle" font-size="12" font-weight="700" fill="#1e3a8a">6</text><text x="710" y="302" text-anchor="middle" font-size="12" fill="#334155">render</text><line x1="736" y1="250" x2="812" y2="250" stroke="#94a3b8" stroke-width="2"/><circle cx="838" cy="250" r="26" fill="#dbeafe" stroke="#2563eb" stroke-width="2"/><text x="838" y="256" text-anchor="middle" font-size="12" font-weight="700" fill="#1e3a8a">7</text><text x="838" y="302" text-anchor="middle" font-size="12" fill="#334155">saveFiles</text><line x1="864" y1="250" x2="940" y2="250" stroke="#94a3b8" stroke-width="2"/><circle cx="966" cy="250" r="26" fill="#dbeafe" stroke="#2563eb" stroke-width="2"/><text x="966" y="256" text-anchor="middle" font-size="12" font-weight="700" fill="#1e3a8a">8</text><text x="966" y="302" text-anchor="middle" font-size="12" fill="#334155">tts</text><line x1="992" y1="250" x2="1068" y2="250" stroke="#94a3b8" stroke-width="2"/><circle cx="1094" cy="250" r="26" fill="#dbeafe" stroke="#2563eb" stroke-width="2"/><text x="1094" y="256" text-anchor="middle" font-size="12" font-weight="700" fill="#1e3a8a">9</text><text x="1094" y="302" text-anchor="middle" font-size="12" fill="#334155">dbPersist</text><text x="40" y="406" font-size="18" fill="#0f172a">tokens</text><rect x="140" y="380" width="760" height="40" rx="8" fill="#e2e8f0"/><rect x="140" y="380" width="760" height="40" rx="8" fill="#2563eb"/><text x="918" y="406" font-size="18" font-weight="700" fill="#1f2937">3/3</text><text x="40" y="460" font-size="18" fill="#0f172a">quality</text><rect x="140" y="434" width="760" height="40" rx="8" fill="#e2e8f0"/><rect x="140" y="434" width="760" height="40" rx="8" fill="#16a34a"/><text x="918" y="460" font-size="18" font-weight="700" fill="#1f2937">5/5</text><text x="40" y="514" font-size="18" fill="#0f172a">performance</text><rect x="140" y="488" width="760" height="40" rx="8" fill="#e2e8f0"/><rect x="140" y="488" width="760" height="40" rx="8" fill="#7c3aed"/><text x="918" y="514" font-size="18" font-weight="700" fill="#1f2937">6/6</text><text x="40" y="568" font-size="18" fill="#0f172a">prompt/output</text><rect x="140" y="542" width="760" height="40" rx="8" fill="#e2e8f0"/><rect x="140" y="542" width="760" height="40" rx="8" fill="#ea580c"/><text x="918" y="568" font-size="18" font-weight="700" fill="#1f2937">4/4</text><text x="40" y="622" font-size="18" fill="#0f172a">few-shot metadata</text><rect x="140" y="596" width="760" height="40" rx="8" fill="#e2e8f0"/><rect x="140" y="596" width="760" height="40" rx="8" fill="#dc2626"/><text x="918" y="622" font-size="18" font-weight="700" fill="#1f2937">6/6</text><rect x="940" y="378" width="300" height="240" rx="12" fill="#f8fafc" stroke="#cbd5e1"/><text x="964" y="438" font-size="19" fill="#334155">- Mission Control リアルタイム集計</text><text x="964" y="500" font-size="19" fill="#334155">- History INTEL カード再生</text><text x="964" y="562" font-size="19" fill="#334155">- 実験エクスポートスクリプトで再現可能</text><text x="40" y="700" font-size="12" fill="#64748b">Source: generation pipeline + /api/history/:id payload</text></svg>