<svg xmlns="http://www.w3.org/2000/svg" width="1280" height="720" style="background: rgb(255, 255, 255);"><text x="40" y="42" font-size="28" font-weight="700" fill="#0f172a">意思決定マトリクス：効果・コスト・優先度</text><g transform="translate(0,600)" fill="none" font-size="10" font-family="sans-serif" text-anchor="middle"><path class="domain" stroke="currentColor" d="M160.5,6V0.5H1120.5V6"/><g class="tick" opacity="1" transform="translate(160.5,0)"><line stroke="currentColor" y2="6"/><text fill="currentColor" y="9" dy="0.71em">0</text></g><g class="tick" opacity="1" transform="translate(256.5,0)"><line stroke="currentColor" y2="6"/><text fill="currentColor" y="9" dy="0.71em">5</text></g><g class="tick" opacity="1" transform="translate(352.5,0)"><line stroke="currentColor" y2="6"/><text fill="currentColor" y="9" dy="0.71em">10</text></g><g class="tick" opacity="1" transform="translate(448.5,0)"><line stroke="currentColor" y2="6"/><text fill="currentColor" y="9" dy="0.71em">15</text></g><g class="tick" opacity="1" transform="translate(544.5,0)"><line stroke="currentColor" y2="6"/><text fill="currentColor" y="9" dy="0.71em">20</text></g><g class="tick" opacity="1" transform="translate(640.5,0)"><line stroke="currentColor" y2="6"/><text fill="currentColor" y="9" dy="0.71em">25</text></g><g class="tick" opacity="1" transform="translate(736.5,0)"><line stroke="currentColor" y2="6"/><text fill="currentColor" y="9" dy="0.71em">30</text></g><g class="tick" opacity="1" transform="translate(832.5,0)"><line stroke="currentColor" y2="6"/><text fill="currentColor" y="9" dy="0.71em">35</text></g><g class="tick" opacity="1" transform="translate(928.5,0)"><line stroke="currentColor" y2="6"/><text fill="currentColor" y="9" dy="0.71em">40</text></g><g class="tick" opacity="1" transform="translate(1024.5,0)"><line stroke="currentColor" y2="6"/><text fill="currentColor" y="9" dy="0.71em">45</text></g><g class="tick" opacity="1" transform="translate(1120.5,0)"><line stroke="currentColor" y2="6"/><text fill="currentColor" y="9" dy="0.71em">50</text></g></g><g transform="translate(160,0)" fill="none" font-size="10" font-family="sans-serif" text-anchor="end"><path class="domain" stroke="currentColor" d="M-6,600.5H0.5V160.5H-6"/><g class="tick" opacity="1" transform="translate(0,600.5)"><line stroke="currentColor" x2="-6"/><text fill="currentColor" x="-9" dy="0.32em">0.0</text></g><g class="tick" opacity="1" transform="translate(0,545.5)"><line stroke="currentColor" x2="-6"/><text fill="currentColor" x="-9" dy="0.32em">0.5</text></g><g class="tick" opacity="1" transform="translate(0,490.5)"><line stroke="currentColor" x2="-6"/><text fill="currentColor" x="-9" dy="0.32em">1.0</text></g><g class="tick" opacity="1" transform="translate(0,435.5)"><line stroke="currentColor" x2="-6"/><text fill="currentColor" x="-9" dy="0.32em">1.5</text></g><g class="tick" opacity="1" transform="translate(0,380.5)"><line stroke="currentColor" x2="-6"/><text fill="currentColor" x="-9" dy="0.32em">2.0</text></g><g class="tick" opacity="1" transform="translate(0,325.5)"><line stroke="currentColor" x2="-6"/><text fill="currentColor" x="-9" dy="0.32em">2.5</text></g><g class="tick" opacity="1" transform="translate(0,270.5)"><line stroke="currentColor" x2="-6"/><text fill="currentColor" x="-9" dy="0.32em">3.0</text></g><g class="tick" opacity="1" transform="translate(0,215.5)"><line stroke="currentColor" x2="-6"/><text fill="currentColor" x="-9" dy="0.32em">3.5</text></g><g class="tick" opacity="1" transform="translate(0,160.5)"><line stroke="currentColor" x2="-6"/><text fill="currentColor" x="-9" dy="0.32em">4.0</text></g></g><text x="590" y="650" font-size="16" fill="#334155">Tokenコスト増加率 (%)</text><text transform="rotate(-90)" x="-420" y="34" font-size="16" fill="#334155">品質改善 (点)</text><circle cx="878.08" cy="393.2" r="28.93145530591877" fill="#94a3b899" stroke="#94a3b8" stroke-width="2"/><text x="915.0114553059188" y="397.2" font-size="14" fill="#0f172a">現状維持</text><circle cx="966.4" cy="247.99999999999997" r="32.17025033688163" fill="#2563eb99" stroke="#2563eb" stroke-width="2"/><text x="1006.5702503368816" y="251.99999999999997" font-size="14" fill="#0f172a">Teacherプール拡張</text><circle cx="697.6" cy="314" r="30.23857702507763" fill="#16a34a99" stroke="#16a34a" stroke-width="2"/><text x="735.8385770250776" y="318" font-size="14" fill="#0f172a">予算調整 0.25</text><circle cx="793.6" cy="369" r="34.78709341572747" fill="#ea580c99" stroke="#ea580c" stroke-width="2"/><text x="836.3870934157275" y="373" font-size="14" fill="#0f172a">LLMスコアラー導入</text><rect x="820" y="120" width="360" height="120" rx="10" fill="#f0fdf4" stroke="#22c55e"/><text x="840" y="162" font-size="20" font-weight="700" fill="#166534">推奨優先度: 予算調整 + Teacherプール拡張</text><text x="840" y="194" font-size="16" fill="#166534">目標: 有意性を維持しつつTokenコストを低減</text><text x="40" y="700" font-size="12" fill="#64748b">Data: benchmark summary + roadmap assumptions</text></svg>