<svg xmlns="http://www.w3.org/2000/svg" width="1280" height="720" style="background: rgb(255, 255, 255);"><text x="40" y="42" font-size="28" font-weight="700" fill="#0f172a">システム可観測性 サブページA：データモデルと追跡関係</text><text x="40" y="72" font-size="15" fill="#475569">生成記録からfew-shotとteacherの証跡まで追跡</text><line x1="300" y1="193" x2="340" y2="193" stroke="#64748b" stroke-width="2"/><line x1="300" y1="193" x2="640" y2="193" stroke="#64748b" stroke-width="2"/><line x1="300" y1="343" x2="340" y2="343" stroke="#64748b" stroke-width="2"/><line x1="300" y1="343" x2="640" y2="343" stroke="#64748b" stroke-width="2"/><line x1="860" y1="343" x2="80" y2="493" stroke="#64748b" stroke-width="2"/><line x1="320" y1="493" x2="360" y2="493" stroke="#64748b" stroke-width="2"/><line x1="600" y1="193" x2="80" y2="493" stroke="#64748b" stroke-width="2"/><rect x="80" y="150" width="220" height="86" rx="12" fill="#dbeafe" stroke="#2563eb" stroke-width="2"/><text x="94" y="202" font-size="22" font-weight="700" fill="#0f172a">生成記録</text><rect x="340" y="150" width="260" height="86" rx="12" fill="#ede9fe" stroke="#7c3aed" stroke-width="2"/><text x="354" y="202" font-size="22" font-weight="700" fill="#0f172a">観測指標</text><rect x="640" y="150" width="200" height="86" rx="12" fill="#dcfce7" stroke="#16a34a" stroke-width="2"/><text x="654" y="202" font-size="22" font-weight="700" fill="#0f172a">音声ファイル</text><rect x="80" y="300" width="220" height="86" rx="12" fill="#ffedd5" stroke="#ea580c" stroke-width="2"/><text x="94" y="352" font-size="22" font-weight="700" fill="#0f172a">実験実行記録</text><rect x="340" y="300" width="260" height="86" rx="12" fill="#fef3c7" stroke="#ca8a04" stroke-width="2"/><text x="354" y="352" font-size="22" font-weight="700" fill="#0f172a">例示採用記録</text><rect x="640" y="300" width="220" height="86" rx="12" fill="#e0f2fe" stroke="#0284c7" stroke-width="2"/><text x="654" y="352" font-size="22" font-weight="700" fill="#0f172a">実験ラウンド</text><rect x="80" y="450" width="240" height="86" rx="12" fill="#fee2e2" stroke="#dc2626" stroke-width="2"/><text x="94" y="502" font-size="22" font-weight="700" fill="#0f172a">実験サンプル</text><rect x="360" y="450" width="240" height="86" rx="12" fill="#dcfce7" stroke="#15803d" stroke-width="2"/><text x="374" y="502" font-size="22" font-weight="700" fill="#0f172a">教師サンプル参照</text><rect x="880" y="180" width="360" height="360" rx="14" fill="#f8fafc" stroke="#cbd5e1"/><text x="904" y="244" font-size="18" fill="#334155">- 主要永続化テーブル: 11</text><text x="904" y="332" font-size="18" fill="#334155">- 実験追跡: 主要領域を連結</text><text x="904" y="420" font-size="18" fill="#334155">- 生成入出力と品質コストを再生</text><text x="40" y="700" font-size="12" fill="#64748b">Source: データ追跡設計資料</text></svg>