<svg xmlns="http://www.w3.org/2000/svg" width="1280" height="720" style="background: rgb(255, 255, 255);"><text x="40" y="42" font-size="28" font-weight="700" fill="#0f172a">履歴比較：21サンプル実験 vs 50サンプル実験</text><g transform="translate(0,590)" fill="none" font-size="10" font-family="sans-serif" text-anchor="middle"><path class="domain" stroke="currentColor" d="M270.5,6V0.5H1150.5V6"/><g class="tick" opacity="1" transform="translate(270.5,0)"><line stroke="currentColor" y2="6"/><text fill="currentColor" y="9" dy="0.71em">0</text></g><g class="tick" opacity="1" transform="translate(415.03637956565655,0)"><line stroke="currentColor" y2="6"/><text fill="currentColor" y="9" dy="0.71em">10</text></g><g class="tick" opacity="1" transform="translate(559.572759131313,0)"><line stroke="currentColor" y2="6"/><text fill="currentColor" y="9" dy="0.71em">20</text></g><g class="tick" opacity="1" transform="translate(704.1091386969695,0)"><line stroke="currentColor" y2="6"/><text fill="currentColor" y="9" dy="0.71em">30</text></g><g class="tick" opacity="1" transform="translate(848.6455182626261,0)"><line stroke="currentColor" y2="6"/><text fill="currentColor" y="9" dy="0.71em">40</text></g><g class="tick" opacity="1" transform="translate(993.1818978282824,0)"><line stroke="currentColor" y2="6"/><text fill="currentColor" y="9" dy="0.71em">50</text></g><g class="tick" opacity="1" transform="translate(1137.718277393939,0)"><line stroke="currentColor" y2="6"/><text fill="currentColor" y="9" dy="0.71em">60</text></g></g><text x="50" y="245.23076923076923" font-size="22" fill="#0f172a">Delta Quality</text><rect x="270" y="209.23076923076923" width="105.99334501481468" height="39.84615384615385" fill="#93c5fd"/><rect x="270" y="257.0769230769231" width="27.172839358343367" height="39.84615384615385" fill="#2563eb"/><text x="383.9933450148147" y="227.23076923076923" font-size="14" fill="#1e3a8a">21サンプル: 7.33</text><text x="305.17283935834337" y="288.9230769230769" font-size="14" fill="#7c2d12">50サンプル: 1.88</text><text x="50" y="362.15384615384613" font-size="22" fill="#0f172a">Gain/1k Tokens</text><rect x="270" y="326.15384615384613" width="204.33858857166155" height="39.84615384615385" fill="#93c5fd"/><rect x="270" y="374" width="70.58980453666373" height="39.84615384615385" fill="#16a34a"/><text x="482.33858857166155" y="344.15384615384613" font-size="14" fill="#1e3a8a">21サンプル: 14.14</text><text x="348.58980453666373" y="405.8461538461538" font-size="14" fill="#7c2d12">50サンプル: 4.88</text><text x="50" y="479.0769230769231" font-size="22" fill="#0f172a">Token増加率(%)</text><rect x="270" y="443.0769230769231" width="765.217391304348" height="39.84615384615385" fill="#93c5fd"/><rect x="270" y="490.92307692307696" width="540.8137206205779" height="39.84615384615385" fill="#ea580c"/><text x="1043.217391304348" y="461.0769230769231" font-size="14" fill="#1e3a8a">21サンプル: 52.94</text><text x="818.8137206205779" y="522.7692307692308" font-size="14" fill="#7c2d12">50サンプル: 37.42</text><rect x="780" y="120" width="400" height="120" rx="10" fill="#f8fafc" stroke="#cbd5e1"/><text x="800" y="162" font-size="18" fill="#334155">結論: 旧実験は改善幅が大きいが、スコアラー偏差あり</text><text x="800" y="194" font-size="18" fill="#334155">新実験は改善幅が小さいが統計的により信頼可能</text><text x="40" y="700" font-size="12" fill="#64748b">Data: round_metrics_exp_round_local20plus_20260206_073637.csv + benchmark metrics</text></svg>