<svg xmlns="http://www.w3.org/2000/svg" width="1200" height="675" style="background-color: rgb(255, 255, 255); font-family: system-ui, -apple-system, sans-serif;"><text x="600" y="40" text-anchor="middle" font-size="28" font-weight="bold" fill="#212121">Golden Examples 筛选与注入逻辑</text><g transform="translate(100, 150)"><line x1="555.5555555555555" y1="0" x2="333.33333333333337" y2="133.33333333333334" stroke="#BDBDBD" stroke-width="2"></line><line x1="555.5555555555555" y1="0" x2="777.7777777777778" y2="133.33333333333334" stroke="#BDBDBD" stroke-width="2"></line><line x1="333.33333333333337" y1="133.33333333333334" x2="333.33333333333337" y2="266.6666666666667" stroke="#BDBDBD" stroke-width="2"></line><line x1="777.7777777777778" y1="133.33333333333334" x2="777.7777777777778" y2="266.6666666666667" stroke="#BDBDBD" stroke-width="2"></line><line x1="333.33333333333337" y1="266.6666666666667" x2="222.22222222222223" y2="400" stroke="#BDBDBD" stroke-width="2"></line><line x1="333.33333333333337" y1="266.6666666666667" x2="444.44444444444446" y2="400" stroke="#BDBDBD" stroke-width="2"></line><g transform="translate(555.5555555555555,0)"><rect x="-70" y="-20" width="140" height="40" rx="4" fill="#F3E5F5" stroke="#7B1FA2"></rect><text text-anchor="middle" dy=".35em" font-size="12">Teacher Pool</text></g><g transform="translate(333.33333333333337,133.33333333333334)"><rect x="-70" y="-20" width="140" height="40" rx="4" fill="#F5F5F5" stroke="#9E9E9E"></rect><text text-anchor="middle" dy=".35em" font-size="12">Score &gt; 85</text></g><g transform="translate(777.7777777777778,133.33333333333334)"><rect x="-70" y="-20" width="140" height="40" rx="4" fill="#F5F5F5" stroke="#9E9E9E"></rect><text text-anchor="middle" dy=".35em" font-size="12">Recent Used</text></g><g transform="translate(333.33333333333337,266.6666666666667)"><rect x="-70" y="-20" width="140" height="40" rx="4" fill="#F5F5F5" stroke="#9E9E9E"></rect><text text-anchor="middle" dy=".35em" font-size="12">Semantic Match</text></g><g transform="translate(777.7777777777778,266.6666666666667)"><rect x="-70" y="-20" width="140" height="40" rx="4" fill="#F5F5F5" stroke="#9E9E9E"></rect><text text-anchor="middle" dy=".35em" font-size="12">Diverse Sampling</text></g><g transform="translate(222.22222222222223,400)"><rect x="-70" y="-20" width="140" height="40" rx="4" fill="#F5F5F5" stroke="#9E9E9E"></rect><text text-anchor="middle" dy=".35em" font-size="12">Format &amp; Compress</text></g><g transform="translate(444.44444444444446,400)"><rect x="-70" y="-20" width="140" height="40" rx="4" fill="#F5F5F5" stroke="#9E9E9E"></rect><text text-anchor="middle" dy=".35em" font-size="12">Token Budget Fit</text></g></g></svg>