<svg xmlns="http://www.w3.org/2000/svg" width="1200" height="675" style="background-color: rgb(255, 255, 255); font-family: system-ui, -apple-system, sans-serif;"><text x="600" y="40" text-anchor="middle" font-size="28" font-weight="bold" fill="#212121">总结：落地价值与全维度表现</text><g transform="translate(600,357.5)"><circle r="50" fill="none" stroke="#EEEEEE"></circle><circle r="100" fill="none" stroke="#EEEEEE"></circle><circle r="150" fill="none" stroke="#EEEEEE"></circle><circle r="200" fill="none" stroke="#EEEEEE"></circle><line x1="0" y1="0" x2="1.2246467991473532e-14" y2="-200" stroke="#E0E0E0"></line><text x="1.3471114790620885e-14" y="-220" text-anchor="middle" font-size="12">Completeness</text><line x1="0" y1="0" x2="190.2113032590307" y2="-61.803398874989476" stroke="#E0E0E0"></line><text x="209.23243358493377" y="-67.98373876248843" text-anchor="middle" font-size="12">Accuracy</text><line x1="0" y1="0" x2="117.55705045849463" y2="161.80339887498948" stroke="#E0E0E0"></line><text x="129.3127555043441" y="177.98373876248843" text-anchor="middle" font-size="12">Naturalness</text><line x1="0" y1="0" x2="-117.5570504584946" y2="161.80339887498948" stroke="#E0E0E0"></line><text x="-129.31275550434407" y="177.98373876248843" text-anchor="middle" font-size="12">Formatting</text><line x1="0" y1="0" x2="-190.21130325903073" y2="-61.803398874989455" stroke="#E0E0E0"></line><text x="-209.2324335849338" y="-67.9837387624884" text-anchor="middle" font-size="12">Cost-Control</text><path d="M0,-120L104.616,-33.992L47.023,64.721L-58.779,80.902L-180.701,-58.713Z" fill="#9E9E9E" fill-opacity="0.1" stroke="#9E9E9E" stroke-width="3"></path><path d="M0,-184L167.386,-54.387L99.923,137.533L-110.504,152.095L-142.658,-46.353Z" fill="#10b981" fill-opacity="0.1" stroke="#10b981" stroke-width="3"></path><path d="M0,-196L182.603,-59.331L111.679,153.713L-115.206,158.567L-57.063,-18.541Z" fill="#FF9800" fill-opacity="0.1" stroke="#FF9800" stroke-width="3"></path></g><g transform="translate(1000, 150)"><g transform="translate(0, 0)"><rect width="15" height="15" fill="#9E9E9E"></rect><text x="25" y="12" font-size="12">Baseline</text></g><g transform="translate(0, 30)"><rect width="15" height="15" fill="#10b981"></rect><text x="25" y="12" font-size="12">Optimized (Few-shot)</text></g><g transform="translate(0, 60)"><rect width="15" height="15" fill="#FF9800"></rect><text x="25" y="12" font-size="12">Cloud (Gemini)</text></g></g></svg>