<svg xmlns="http://www.w3.org/2000/svg" width="1200" height="675" style="background-color: rgb(255, 255, 255); font-family: system-ui, -apple-system, sans-serif;"><text x="600" y="40" text-anchor="middle" font-size="28" font-weight="bold" fill="#212121">核心成效：质量分的跨越</text><g><g transform="translate(120.76923076923083,0)"><rect x="7.765567765567766" y="274.6" width="69.8901098901099" height="320.4" fill="#BDBDBD" opacity="0.6"></rect><rect x="85.42124542124543" y="216.75" width="69.8901098901099" height="378.25" fill="#4CAF50" rx="2" style="filter: drop-shadow(0 0 8px rgba(76, 175, 80, 0.4));"></rect></g><g transform="translate(324.61538461538464,0)"><rect x="7.765567765567766" y="292.4" width="69.8901098901099" height="302.6" fill="#BDBDBD" opacity="0.6"></rect><rect x="85.42124542124543" y="230.10000000000002" width="69.8901098901099" height="364.9" fill="#4CAF50" rx="2" style="filter: drop-shadow(0 0 8px rgba(76, 175, 80, 0.4));"></rect></g><g transform="translate(528.4615384615386,0)"><rect x="7.765567765567766" y="261.25" width="69.8901098901099" height="333.75" fill="#BDBDBD" opacity="0.6"></rect><rect x="85.42124542124543" y="203.39999999999998" width="69.8901098901099" height="391.6" fill="#4CAF50" rx="2" style="filter: drop-shadow(0 0 8px rgba(76, 175, 80, 0.4));"></rect></g><g transform="translate(732.3076923076924,0)"><rect x="7.765567765567766" y="283.5" width="69.8901098901099" height="311.5" fill="#BDBDBD" opacity="0.6"></rect><rect x="85.42124542124543" y="221.20000000000002" width="69.8901098901099" height="373.79999999999995" fill="#4CAF50" rx="2" style="filter: drop-shadow(0 0 8px rgba(76, 175, 80, 0.4));"></rect></g><g transform="translate(936.1538461538462,0)"><rect x="7.765567765567766" y="265.70000000000005" width="69.8901098901099" height="329.29999999999995" fill="#BDBDBD" opacity="0.6"></rect><rect x="85.42124542124543" y="212.3" width="69.8901098901099" height="382.7" fill="#4CAF50" rx="2" style="filter: drop-shadow(0 0 8px rgba(76, 175, 80, 0.4));"></rect></g></g><line x1="80" y1="274.6" x2="1140" y2="274.6" stroke="#757575" stroke-dasharray="4,4"></line><text x="1145" y="274.6" font-size="12" fill="#757575">Avg Baseline: 72.0</text><text x="600" y="120" text-anchor="middle" font-size="24" font-weight="bold" fill="#2E7D32">平均质量分 +10.2% (72.0 → 79.3)</text></svg>