<svg xmlns="http://www.w3.org/2000/svg" width="1200" height="675" style="background-color: rgb(255, 255, 255); font-family: system-ui, -apple-system, sans-serif;"><text x="600" y="40" text-anchor="middle" font-size="28" font-weight="bold" fill="#212121">系统架构：全链路可观测性设计</text><g><line x1="150" y1="337" x2="450" y2="337" stroke="#BDBDBD" stroke-width="2"></line><text x="305" y="332" font-size="10" fill="#9E9E9E">REST API</text><line x1="450" y1="337" x2="450" y2="150" stroke="#BDBDBD" stroke-width="2"></line><text x="455" y="238.5" font-size="10" fill="#9E9E9E">Model Pass-thru</text><line x1="450" y1="150" x2="750" y2="150" stroke="#BDBDBD" stroke-width="2"></line><text x="605" y="145" font-size="10" fill="#9E9E9E">CLI Bridge</text><line x1="450" y1="337" x2="750" y2="337" stroke="#BDBDBD" stroke-width="2"></line><text x="605" y="332" font-size="10" fill="#9E9E9E">OpenAI API</text><line x1="450" y1="337" x2="1050" y2="337" stroke="#BDBDBD" stroke-width="2"></line><text x="755" y="332" font-size="10" fill="#9E9E9E">Persistent</text></g><g transform="translate(150,337)"><rect x="-85" y="-35" width="170" height="70" rx="10" fill="#E3F2FD" stroke="#1565C0" stroke-width="2"></rect><text text-anchor="middle" dy=".35em" font-weight="bold" font-size="13" fill="#0D47A1">UI (Dashboard)</text></g><g transform="translate(450,337)"><rect x="-85" y="-35" width="170" height="70" rx="10" fill="#FFF3E0" stroke="#EF6C00" stroke-width="2"></rect><text text-anchor="middle" dy=".35em" font-weight="bold" font-size="13" fill="#E65100">Express Server</text></g><g transform="translate(450,150)"><rect x="-85" y="-35" width="170" height="70" rx="10" fill="#FFF3E0" stroke="#EF6C00" stroke-width="2"></rect><text text-anchor="middle" dy=".35em" font-weight="bold" font-size="13" fill="#E65100">Gemini Host Proxy</text></g><g transform="translate(750,337)"><rect x="-85" y="-35" width="170" height="70" rx="10" fill="#E8F5E9" stroke="#2E7D32" stroke-width="2"></rect><text text-anchor="middle" dy=".35em" font-weight="bold" font-size="13" fill="#1B5E20">Local LLM (Ollama)</text></g><g transform="translate(750,150)"><rect x="-85" y="-35" width="170" height="70" rx="10" fill="#E8F5E9" stroke="#2E7D32" stroke-width="2"></rect><text text-anchor="middle" dy=".35em" font-weight="bold" font-size="13" fill="#1B5E20">Gemini 3 Pro</text></g><g transform="translate(1050,337)"><rect x="-85" y="-35" width="170" height="70" rx="10" fill="#F3E5F5" stroke="#7B1FA2" stroke-width="2"></rect><text text-anchor="middle" dy=".35em" font-weight="bold" font-size="13" fill="#4A148C">SQLite + FileSys</text></g></svg>