<svg xmlns="http://www.w3.org/2000/svg" width="1200" height="675" style="background-color: rgb(255, 255, 255); font-family: system-ui, -apple-system, sans-serif;"><text x="600" y="40" text-anchor="middle" font-size="28" font-weight="bold" fill="#212121">核心指标对照矩阵 (Cross-Round Matrix)</text><g><text x="340" y="130" text-anchor="middle" font-weight="bold">Quality</text><text x="520" y="130" text-anchor="middle" font-weight="bold">Tokens</text><text x="700" y="130" text-anchor="middle" font-weight="bold">Latency</text><text x="880" y="130" text-anchor="middle" font-weight="bold">Success</text><text x="230" y="190" text-anchor="end" font-weight="bold">Baseline</text><text x="230" y="270" text-anchor="end" font-weight="bold">R1 (1-Shot)</text><text x="230" y="350" text-anchor="end" font-weight="bold">R2 (2-Shot)</text><text x="230" y="430" text-anchor="end" font-weight="bold">R3 (3-Shot)</text><rect x="250" y="150" width="180" height="80" fill="rgb(225, 244, 220)" stroke="#E0E0E0"></rect><text x="340" y="190" text-anchor="middle" dy=".35em">72</text><rect x="430" y="150" width="180" height="80" fill="rgb(243, 242, 248)" stroke="#E0E0E0"></rect><text x="520" y="190" text-anchor="middle" dy=".35em">980</text><rect x="610" y="150" width="180" height="80" fill="#FFFFFF" stroke="#E0E0E0"></rect><text x="700" y="190" text-anchor="middle" dy=".35em">57.6</text><rect x="790" y="150" width="180" height="80" fill="#FFEBEE" stroke="#E0E0E0"></rect><text x="880" y="190" text-anchor="middle" dy=".35em">90.5%</text><rect x="250" y="230" width="180" height="80" fill="rgb(70, 171, 94)" stroke="#E0E0E0"></rect><text x="340" y="270" text-anchor="middle" dy=".35em">79.3</text><rect x="430" y="230" width="180" height="80" fill="rgb(135, 130, 188)" stroke="#E0E0E0"></rect><text x="520" y="270" text-anchor="middle" dy=".35em">1498</text><rect x="610" y="230" width="180" height="80" fill="#FFFFFF" stroke="#E0E0E0"></rect><text x="700" y="270" text-anchor="middle" dy=".35em">59.2</text><rect x="790" y="230" width="180" height="80" fill="#E8F5E9" stroke="#E0E0E0"></rect><text x="880" y="270" text-anchor="middle" dy=".35em">100%</text><rect x="250" y="310" width="180" height="80" fill="rgb(56, 160, 85)" stroke="#E0E0E0"></rect><text x="340" y="350" text-anchor="middle" dy=".35em">80</text><rect x="430" y="310" width="180" height="80" fill="rgb(124, 115, 181)" stroke="#E0E0E0"></rect><text x="520" y="350" text-anchor="middle" dy=".35em">1550</text><rect x="610" y="310" width="180" height="80" fill="#FFFFFF" stroke="#E0E0E0"></rect><text x="700" y="350" text-anchor="middle" dy=".35em">58.5</text><rect x="790" y="310" width="180" height="80" fill="#E8F5E9" stroke="#E0E0E0"></rect><text x="880" y="350" text-anchor="middle" dy=".35em">100%</text><rect x="250" y="390" width="180" height="80" fill="rgb(16, 122, 55)" stroke="#E0E0E0"></rect><text x="340" y="430" text-anchor="middle" dy=".35em">82.3</text><rect x="430" y="390" width="180" height="80" fill="rgb(89, 48, 147)" stroke="#E0E0E0"></rect><text x="520" y="430" text-anchor="middle" dy=".35em">1749</text><rect x="610" y="390" width="180" height="80" fill="#FFFFFF" stroke="#E0E0E0"></rect><text x="700" y="430" text-anchor="middle" dy=".35em">56.6</text><rect x="790" y="390" width="180" height="80" fill="#E8F5E9" stroke="#E0E0E0"></rect><text x="880" y="430" text-anchor="middle" dy=".35em">100%</text></g></svg>