<svg xmlns="http://www.w3.org/2000/svg" width="1200" height="675" style="background-color: rgb(255, 255, 255); font-family: system-ui, -apple-system, sans-serif;"><text x="600" y="40" text-anchor="middle" font-size="28" font-weight="bold" fill="#212121">结果 B：跨实验对照与差距分析</text><g transform="translate(100, 150)"><rect x="0" y="0" width="300" height="60" fill="#F5F5F5" stroke="#E0E0E0"></rect><text x="150" y="30" text-anchor="middle" dy=".35em" font-weight="bold">对比维度</text><rect x="300" y="0" width="250" height="60" fill="#F5F5F5" stroke="#E0E0E0"></rect><text x="425" y="30" text-anchor="middle" dy=".35em" font-weight="bold">实验 A (21样本)</text><rect x="550" y="0" width="250" height="60" fill="#F5F5F5" stroke="#E0E0E0"></rect><text x="675" y="30" text-anchor="middle" dy=".35em" font-weight="bold">实验 B (多轮)</text><rect x="800" y="0" width="250" height="60" fill="#F5F5F5" stroke="#E0E0E0"></rect><text x="925" y="30" text-anchor="middle" dy=".35em" font-weight="bold">结论</text><rect x="0" y="60" width="300" height="60" fill="white" stroke="#E0E0E0"></rect><text x="150" y="90" text-anchor="middle" dy=".35em" font-size="12">fewshot_r1 质量增益</text><rect x="300" y="60" width="250" height="60" fill="white" stroke="#E0E0E0"></rect><text x="425" y="90" text-anchor="middle" dy=".35em" font-size="12">+7.33 (显著)</text><rect x="550" y="60" width="250" height="60" fill="white" stroke="#E0E0E0"></rect><text x="675" y="90" text-anchor="middle" dy=".35em" font-size="12">~0 (持平)</text><rect x="800" y="60" width="250" height="60" fill="white" stroke="#E0E0E0"></rect><text x="925" y="90" text-anchor="middle" dy=".35em" font-size="12">A实验早期爆发</text><rect x="0" y="120" width="300" height="60" fill="white" stroke="#E0E0E0"></rect><text x="150" y="150" text-anchor="middle" dy=".35em" font-size="12">绝对质量上限</text><rect x="300" y="120" width="250" height="60" fill="white" stroke="#E0E0E0"></rect><text x="425" y="150" text-anchor="middle" dy=".35em" font-size="12">79.33</text><rect x="550" y="120" width="250" height="60" fill="white" stroke="#E0E0E0"></rect><text x="675" y="150" text-anchor="middle" dy=".35em" font-size="12">82.33</text><rect x="800" y="120" width="250" height="60" fill="white" stroke="#E0E0E0"></rect><text x="925" y="150" text-anchor="middle" dy=".35em" font-size="12">B实验上限更高</text><rect x="0" y="180" width="300" height="60" fill="white" stroke="#E0E0E0"></rect><text x="150" y="210" text-anchor="middle" dy=".35em" font-size="12">单位 Token 效率</text><rect x="300" y="180" width="250" height="60" fill="white" stroke="#E0E0E0"></rect><text x="425" y="210" text-anchor="middle" dy=".35em" font-size="12">14.14 分/1k</text><rect x="550" y="180" width="250" height="60" fill="white" stroke="#E0E0E0"></rect><text x="675" y="210" text-anchor="middle" dy=".35em" font-size="12">6.70 分/1k</text><rect x="800" y="180" width="250" height="60" fill="white" stroke="#E0E0E0"></rect><text x="925" y="210" text-anchor="middle" dy=".35em" font-size="12">A实验投入产出比优</text><rect x="0" y="240" width="300" height="60" fill="white" stroke="#E0E0E0"></rect><text x="150" y="270" text-anchor="middle" dy=".35em" font-size="12">Teacher 对齐潜力</text><rect x="300" y="240" width="250" height="60" fill="white" stroke="#E0E0E0"></rect><text x="425" y="270" text-anchor="middle" dy=".35em" font-size="12">N/A</text><rect x="550" y="240" width="250" height="60" fill="white" stroke="#E0E0E0"></rect><text x="675" y="270" text-anchor="middle" dy=".35em" font-size="12">84.4%</text><rect x="800" y="240" width="250" height="60" fill="white" stroke="#E0E0E0"></rect><text x="925" y="270" text-anchor="middle" dy=".35em" font-size="12">B实验证明可持续对齐</text></g><text x="600" y="550" text-anchor="middle" font-size="18" font-weight="bold" fill="#1565C0">→ 本轮优势在于“早期增益与效率”，而非绝对上限</text></svg>