<svg xmlns="http://www.w3.org/2000/svg" width="1200" height="675" style="background-color: rgb(255, 255, 255); font-family: system-ui, -apple-system, sans-serif;"><text x="600" y="40" text-anchor="middle" font-size="28" font-weight="bold" fill="#212121">Token 预算与回退策略：安全第一</text><g transform="translate(100, 150)"><rect x="0" y="50" width="97.65625" height="60" fill="#90CAF9" stroke="white"></rect><text x="48.828125" y="100" text-anchor="middle" font-size="10" fill="#424242">Role</text><rect x="97.65625" y="50" width="292.96875" height="60" fill="#81C784" stroke="white"></rect><text x="244.140625" y="100" text-anchor="middle" font-size="10" fill="#424242">Few-shot</text><rect x="390.625" y="50" width="488.28125" height="60" fill="#BA68C8" stroke="white"></rect><text x="634.765625" y="100" text-anchor="middle" font-size="10" fill="#424242">Task</text><rect x="878.90625" y="50" width="121.09375" height="60" fill="#EEEEEE" stroke="white"></rect><text x="939.453125" y="100" text-anchor="middle" font-size="10" fill="#424242">Remaining</text></g><g transform="translate(100, 350)"><rect x="0" y="0" width="250" height="80" rx="8" fill="#E8F5E9" stroke="#4CAF50"></rect><text x="125" y="35" text-anchor="middle" font-weight="bold">Normal Inject</text><text x="125" y="60" text-anchor="middle" font-size="12" fill="#757575">Success</text><rect x="300" y="0" width="250" height="80" rx="8" fill="#FFF3E0" stroke="#FF9800"></rect><text x="425" y="35" text-anchor="middle" font-weight="bold">Budget Exceeded</text><text x="425" y="60" text-anchor="middle" font-size="12" fill="#757575">Reduction</text><rect x="600" y="0" width="250" height="80" rx="8" fill="#FFF3E0" stroke="#FF9800"></rect><text x="725" y="35" text-anchor="middle" font-weight="bold">Length Over</text><text x="725" y="60" text-anchor="middle" font-size="12" fill="#757575">Truncate</text><rect x="900" y="0" width="250" height="80" rx="8" fill="#FFEBEE" stroke="#F44336"></rect><text x="1025" y="35" text-anchor="middle" font-weight="bold">Critical Fail</text><text x="1025" y="60" text-anchor="middle" font-size="12" fill="#757575">Baseline Fallback</text></g></svg>