<svg xmlns="http://www.w3.org/2000/svg" width="1200" height="675" style="background-color: rgb(255, 255, 255); font-family: system-ui, -apple-system, sans-serif;"><text x="600" y="40" text-anchor="middle" font-size="28" font-weight="bold" fill="#212121">优化方案：30/60/90 天执行计划</text><g transform="translate(0, 150)"><g transform="translate(100, 0)"><rect width="300" height="400" rx="12" fill="#F8F9FA" stroke="#1565C0" stroke-width="2"></rect><text x="150" y="40" text-anchor="middle" font-weight="bold" fill="#1565C0">30天：巩固地基</text><text x="30" y="100" font-size="14">• 扩充 Teacher 样本池</text><text x="30" y="140" font-size="14">• 优化预算参数 (Ratio)</text><text x="30" y="180" font-size="14">• 实现失败自动重试</text><rect x="30" y="320" width="240" height="50" rx="25" fill="#1565C0"></rect><text x="150" y="350" text-anchor="middle" fill="white" font-weight="bold">KPI: 成功率 &gt; 98%</text></g><g transform="translate(450, 0)"><rect width="300" height="400" rx="12" fill="#F8F9FA" stroke="#2E7D32" stroke-width="2"></rect><text x="150" y="40" text-anchor="middle" font-weight="bold" fill="#2E7D32">60天：智能进化</text><text x="30" y="100" font-size="14">• 语义检索 (RAG) 替代随机</text><text x="30" y="140" font-size="14">• 动态示例长度裁剪策略</text><text x="30" y="180" font-size="14">• Vector DB 接入</text><rect x="30" y="320" width="240" height="50" rx="25" fill="#2E7D32"></rect><text x="150" y="350" text-anchor="middle" fill="white" font-weight="bold">KPI: ΔQuality &gt; +10</text></g><g transform="translate(800, 0)"><rect width="300" height="400" rx="12" fill="#F8F9FA" stroke="#7B1FA2" stroke-width="2"></rect><text x="150" y="40" text-anchor="middle" font-weight="bold" fill="#7B1FA2">90天：工业落地</text><text x="30" y="100" font-size="14">• 多 Teacher 策略融合</text><text x="30" y="140" font-size="14">• 自动化 Prompt 规则更新</text><text x="30" y="180" font-size="14">• 边缘端模型蒸馏辅助</text><rect x="30" y="320" width="240" height="50" rx="25" fill="#7B1FA2"></rect><text x="150" y="350" text-anchor="middle" fill="white" font-weight="bold">KPI: Teacher 对齐率 &gt; 90%</text></g></g></svg>