<svg xmlns="http://www.w3.org/2000/svg" width="1200" height="675" style="background-color: rgb(255, 255, 255); font-family: system-ui, -apple-system, sans-serif;"><text x="600" y="40" text-anchor="middle" font-size="28" font-weight="bold" fill="#212121">Teacher 对齐度与稳定性 (Alignment &amp; Stability)</text><path fill="none" stroke="#9E9E9E" stroke-width="3" stroke-dasharray="5,5" d="M80,522.869L81.606,522.803C83.212,522.737,86.424,522.606,89.636,522.464C92.848,522.322,96.061,522.17,99.273,522.006C102.485,521.843,105.697,521.668,108.909,521.48C112.121,521.293,115.333,521.092,118.545,520.878C121.758,520.663,124.97,520.435,128.182,520.191C131.394,519.947,134.606,519.688,137.818,519.412C141.03,519.135,144.242,518.842,147.455,518.531C150.667,518.22,153.879,517.891,157.091,517.541C160.303,517.192,163.515,516.823,166.727,516.433C169.939,516.044,173.152,515.633,176.364,515.199C179.576,514.766,182.788,514.31,186,513.831C189.212,513.352,192.424,512.849,195.636,512.321C198.848,511.794,202.061,511.241,205.273,510.663C208.485,510.085,211.697,509.482,214.909,508.852C218.121,508.222,221.333,507.566,224.545,506.882C227.758,506.199,230.97,505.489,234.182,504.752C237.394,504.014,240.606,503.25,243.818,502.459C247.03,501.667,250.242,500.849,253.455,500.003C256.667,499.158,259.879,498.287,263.091,497.389C266.303,496.491,269.515,495.568,272.727,494.62C275.939,493.671,279.152,492.699,282.364,491.703C285.576,490.707,288.788,489.688,292,488.648C295.212,487.608,298.424,486.547,301.636,485.467C304.848,484.388,308.061,483.29,311.273,482.176C314.485,481.062,317.697,479.933,320.909,478.791C324.121,477.649,327.333,476.495,330.545,475.333C333.758,474.17,336.97,472.999,340.182,471.824C343.394,470.648,346.606,469.468,349.818,468.288C353.03,467.108,356.242,465.928,359.455,464.753C362.667,463.578,365.879,462.408,369.091,461.247C372.303,460.086,375.515,458.935,378.727,457.799C381.939,456.663,385.152,455.542,388.364,454.441C391.576,453.34,394.788,452.259,398,451.203C401.212,450.148,404.424,449.118,407.636,448.118C410.848,447.118,414.061,446.149,417.273,445.215C420.485,444.281,423.697,443.383,426.909,442.525C430.121,441.667,433.333,440.849,436.545,440.076C439.758,439.303,442.97,438.575,446.182,437.895C449.394,437.216,452.606,436.585,455.818,436.006C459.03,435.427,462.242,434.901,465.455,434.43C468.667,433.959,471.879,433.543,475.091,433.185C478.303,432.827,481.515,432.526,484.727,432.285C487.939,432.044,491.152,431.862,494.364,431.741C497.576,431.62,500.788,431.559,504,431.559C507.212,431.559,510.424,431.62,513.636,431.741C516.848,431.862,520.061,432.044,523.273,432.285C526.485,432.526,529.697,432.827,532.909,433.185C536.121,433.543,539.333,433.959,542.545,434.43C545.758,434.901,548.97,435.427,552.182,436.006C555.394,436.585,558.606,437.216,561.818,437.895C565.03,438.575,568.242,439.303,571.455,440.076C574.667,440.849,577.879,441.667,581.091,442.525C584.303,443.383,587.515,444.281,590.727,445.215C593.939,446.149,597.152,447.118,600.364,448.118C603.576,449.118,606.788,450.148,610,451.203C613.212,452.259,616.424,453.34,619.636,454.441C622.848,455.542,626.061,456.663,629.273,457.799C632.485,458.935,635.697,460.086,638.909,461.247C642.121,462.408,645.333,463.578,648.545,464.753C651.758,465.928,654.97,467.108,658.182,468.288C661.394,469.468,664.606,470.648,667.818,471.824C671.03,472.999,674.242,474.17,677.455,475.333C680.667,476.495,683.879,477.649,687.091,478.791C690.303,479.933,693.515,481.062,696.727,482.176C699.939,483.29,703.152,484.388,706.364,485.467C709.576,486.547,712.788,487.608,716,488.648C719.212,489.688,722.424,490.707,725.636,491.703C728.848,492.699,732.061,493.671,735.273,494.62C738.485,495.568,741.697,496.491,744.909,497.389C748.121,498.287,751.333,499.158,754.545,500.003C757.758,500.849,760.97,501.667,764.182,502.459C767.394,503.25,770.606,504.014,773.818,504.752C777.03,505.489,780.242,506.199,783.455,506.882C786.667,507.566,789.879,508.222,793.091,508.852C796.303,509.482,799.515,510.085,802.727,510.663C805.939,511.241,809.152,511.794,812.364,512.321C815.576,512.849,818.788,513.352,822,513.831C825.212,514.31,828.424,514.766,831.636,515.199C834.848,515.633,838.061,516.044,841.273,516.433C844.485,516.823,847.697,517.192,850.909,517.541C854.121,517.891,857.333,518.22,860.545,518.531C863.758,518.842,866.97,519.135,870.182,519.412C873.394,519.688,876.606,519.947,879.818,520.191C883.03,520.435,886.242,520.663,889.455,520.878C892.667,521.092,895.879,521.293,899.091,521.48C902.303,521.668,905.515,521.843,908.727,522.006C911.939,522.17,915.152,522.322,918.364,522.464C921.576,522.606,924.788,522.737,928,522.86C931.212,522.982,934.424,523.095,937.636,523.201C940.848,523.306,944.061,523.403,947.273,523.493C950.485,523.583,953.697,523.666,956.909,523.743C960.121,523.82,963.333,523.891,966.545,523.956C969.758,524.021,972.97,524.081,976.182,524.136C979.394,524.191,982.606,524.241,985.818,524.288C989.03,524.334,992.242,524.376,995.455,524.415C998.667,524.454,1001.879,524.489,1005.091,524.521C1008.303,524.554,1011.515,524.583,1014.727,524.61C1017.939,524.637,1021.152,524.661,1024.364,524.684C1027.576,524.706,1030.788,524.726,1034,524.744C1037.212,524.762,1040.424,524.779,1043.636,524.794C1046.848,524.809,1050.061,524.822,1053.273,524.835C1056.485,524.847,1059.697,524.858,1062.909,524.868C1066.121,524.878,1069.333,524.887,1072.545,524.895C1075.758,524.903,1078.97,524.91,1082.182,524.917C1085.394,524.923,1088.606,524.929,1091.818,524.934C1095.03,524.939,1098.242,524.944,1101.455,524.948C1104.667,524.952,1107.879,524.956,1111.091,524.959C1114.303,524.963,1117.515,524.966,1120.727,524.968C1123.939,524.971,1127.152,524.973,1130.364,524.975C1133.576,524.977,1136.788,524.979,1138.394,524.98L1140,524.981"></path><text x="504" y="421.49790303091424" text-anchor="middle" font-size="11" fill="#9E9E9E">Baseline (R0)</text><path fill="none" stroke="#2196F3" stroke-width="3" stroke-dasharray="0" d="M80,525L81.606,525C83.212,525,86.424,525,89.636,525C92.848,525,96.061,525,99.273,525C102.485,525,105.697,525,108.909,525C112.121,525,115.333,525,118.545,525C121.758,525,124.97,525,128.182,525C131.394,525,134.606,525,137.818,525C141.03,525,144.242,525,147.455,525C150.667,525,153.879,525,157.091,525C160.303,525,163.515,525,166.727,525C169.939,525,173.152,525,176.364,525C179.576,525,182.788,525,186,525C189.212,525,192.424,525,195.636,525C198.848,525,202.061,525,205.273,525C208.485,525,211.697,525,214.909,525C218.121,525,221.333,525,224.545,525C227.758,525,230.97,525,234.182,525C237.394,525,240.606,525,243.818,525C247.03,525,250.242,525,253.455,524.999C256.667,524.999,259.879,524.999,263.091,524.999C266.303,524.999,269.515,524.999,272.727,524.998C275.939,524.998,279.152,524.997,282.364,524.997C285.576,524.996,288.788,524.995,292,524.994C295.212,524.993,298.424,524.992,301.636,524.99C304.848,524.988,308.061,524.986,311.273,524.983C314.485,524.98,317.697,524.976,320.909,524.971C324.121,524.966,327.333,524.96,330.545,524.952C333.758,524.944,336.97,524.934,340.182,524.921C343.394,524.908,346.606,524.892,349.818,524.871C353.03,524.851,356.242,524.826,359.455,524.794C362.667,524.763,365.879,524.724,369.091,524.677C372.303,524.629,375.515,524.571,378.727,524.499C381.939,524.428,385.152,524.342,388.364,524.237C391.576,524.132,394.788,524.007,398,523.855C401.212,523.704,404.424,523.525,407.636,523.309C410.848,523.094,414.061,522.842,417.273,522.541C420.485,522.24,423.697,521.891,426.909,521.478C430.121,521.066,433.333,520.591,436.545,520.035C439.758,519.479,442.97,518.843,446.182,518.108C449.394,517.372,452.606,516.537,455.818,515.58C459.03,514.623,462.242,513.545,465.455,512.324C468.667,511.102,471.879,509.737,475.091,508.205C478.303,506.674,481.515,504.976,484.727,503.091C487.939,501.207,491.152,499.136,494.364,496.862C497.576,494.587,500.788,492.109,504,489.418C507.212,486.726,510.424,483.82,513.636,480.698C516.848,477.577,520.061,474.239,523.273,470.693C526.485,467.148,529.697,463.395,532.909,459.455C536.121,455.516,539.333,451.39,542.545,447.112C545.758,442.834,548.97,438.405,552.182,433.872C555.394,429.339,558.606,424.703,561.818,420.026C565.03,415.348,568.242,410.629,571.455,405.941C574.667,401.252,577.879,396.595,581.091,392.048C584.303,387.502,587.515,383.066,590.727,378.825C593.939,374.584,597.152,370.537,600.364,366.766C603.576,362.994,606.788,359.499,610,356.353C613.212,353.207,616.424,350.411,619.636,348.027C622.848,345.643,626.061,343.671,629.273,342.155C632.485,340.639,635.697,339.58,638.909,339.002C642.121,338.424,645.333,338.327,648.545,338.713C651.758,339.099,654.97,339.968,658.182,341.301C661.394,342.633,664.606,344.429,667.818,346.647C671.03,348.864,674.242,351.504,677.455,354.508C680.667,357.511,683.879,360.878,687.091,364.536C690.303,368.195,693.515,372.144,696.727,376.304C699.939,380.465,703.152,384.836,706.364,389.335C709.576,393.833,712.788,398.459,716,403.132C719.212,407.805,722.424,412.524,725.636,417.215C728.848,421.906,732.061,426.569,735.273,431.141C738.485,435.712,741.697,440.191,744.909,444.528C748.121,448.864,751.333,453.057,754.545,457.07C757.758,461.082,760.97,464.914,764.182,468.541C767.394,472.169,770.606,475.592,773.818,478.8C777.03,482.007,780.242,485,783.455,487.777C786.667,490.554,789.879,493.116,793.091,495.473C796.303,497.829,799.515,499.979,802.727,501.938C805.939,503.898,809.152,505.667,812.364,507.266C815.576,508.865,818.788,510.293,822,511.573C825.212,512.853,828.424,513.985,831.636,514.991C834.848,515.997,838.061,516.878,841.273,517.654C844.485,518.431,847.697,519.103,850.909,519.692C854.121,520.28,857.333,520.785,860.545,521.223C863.758,521.662,866.97,522.034,870.182,522.354C873.394,522.675,876.606,522.945,879.818,523.175C883.03,523.406,886.242,523.598,889.455,523.761C892.667,523.924,895.879,524.058,899.091,524.172C902.303,524.285,905.515,524.377,908.727,524.455C911.939,524.532,915.152,524.595,918.364,524.647C921.576,524.699,924.788,524.74,928,524.774C931.212,524.809,934.424,524.836,937.636,524.858C940.848,524.881,944.061,524.898,947.273,524.912C950.485,524.927,953.697,524.938,956.909,524.947C960.121,524.956,963.333,524.962,966.545,524.968C969.758,524.974,972.97,524.978,976.182,524.981C979.394,524.984,982.606,524.987,985.818,524.989C989.03,524.991,992.242,524.993,995.455,524.994C998.667,524.995,1001.879,524.996,1005.091,524.996C1008.303,524.997,1011.515,524.998,1014.727,524.998C1017.939,524.998,1021.152,524.999,1024.364,524.999C1027.576,524.999,1030.788,524.999,1034,524.999C1037.212,525,1040.424,525,1043.636,525C1046.848,525,1050.061,525,1053.273,525C1056.485,525,1059.697,525,1062.909,525C1066.121,525,1069.333,525,1072.545,525C1075.758,525,1078.97,525,1082.182,525C1085.394,525,1088.606,525,1091.818,525C1095.03,525,1098.242,525,1101.455,525C1104.667,525,1107.879,525,1111.091,525C1114.303,525,1117.515,525,1120.727,525C1123.939,525,1127.152,525,1130.364,525C1133.576,525,1136.788,525,1138.394,525L1140,525"></path><text x="644.690909090909" y="327.99580606182843" text-anchor="middle" font-size="11" fill="#2196F3">Few-shot (R1)</text><path fill="none" stroke="#4CAF50" stroke-width="3" stroke-dasharray="0" d="M80,525L81.606,525C83.212,525,86.424,525,89.636,525C92.848,525,96.061,525,99.273,525C102.485,525,105.697,525,108.909,525C112.121,525,115.333,525,118.545,525C121.758,525,124.97,525,128.182,525C131.394,525,134.606,525,137.818,525C141.03,525,144.242,525,147.455,525C150.667,525,153.879,525,157.091,525C160.303,525,163.515,525,166.727,525C169.939,525,173.152,525,176.364,525C179.576,525,182.788,525,186,525C189.212,525,192.424,525,195.636,525C198.848,525,202.061,525,205.273,525C208.485,525,211.697,525,214.909,525C218.121,525,221.333,525,224.545,525C227.758,525,230.97,525,234.182,525C237.394,525,240.606,525,243.818,525C247.03,525,250.242,525,253.455,525C256.667,525,259.879,525,263.091,525C266.303,525,269.515,525,272.727,525C275.939,525,279.152,525,282.364,525C285.576,525,288.788,525,292,525C295.212,525,298.424,525,301.636,525C304.848,525,308.061,525,311.273,525C314.485,525,317.697,525,320.909,525C324.121,525,327.333,525,330.545,525C333.758,525,336.97,525,340.182,525C343.394,525,346.606,525,349.818,525C353.03,525,356.242,525,359.455,525C362.667,525,365.879,525,369.091,525C372.303,525,375.515,525,378.727,525C381.939,525,385.152,525,388.364,525C391.576,525,394.788,525,398,525C401.212,525,404.424,525,407.636,525C410.848,525,414.061,525,417.273,525C420.485,525,423.697,525,426.909,525C430.121,525,433.333,525,436.545,525C439.758,525,442.97,525,446.182,525C449.394,525,452.606,525,455.818,524.999C459.03,524.999,462.242,524.999,465.455,524.998C468.667,524.997,471.879,524.997,475.091,524.995C478.303,524.993,481.515,524.991,484.727,524.988C487.939,524.984,491.152,524.979,494.364,524.97C497.576,524.962,500.788,524.95,504,524.932C507.212,524.913,510.424,524.888,513.636,524.849C516.848,524.81,520.061,524.757,523.273,524.678C526.485,524.599,529.697,524.495,532.909,524.342C536.121,524.19,539.333,523.991,542.545,523.708C545.758,523.426,548.97,523.062,552.182,522.562C555.394,522.061,558.606,521.425,561.818,520.574C565.03,519.724,568.242,518.66,571.455,517.279C574.667,515.897,577.879,514.197,581.091,512.05C584.303,509.903,587.515,507.308,590.727,504.121C593.939,500.934,597.152,497.155,600.364,492.641C603.576,488.128,606.788,482.88,610,476.79C613.212,470.7,616.424,463.767,619.636,455.954C622.848,448.14,626.061,439.446,629.273,429.94C632.485,420.433,635.697,410.115,638.909,399.19C642.121,388.264,645.333,376.731,648.545,364.938C651.758,353.144,654.97,341.09,658.182,329.242C661.394,317.394,664.606,305.753,667.818,294.852C671.03,283.951,674.242,273.791,677.455,264.894C680.667,255.996,683.879,248.362,687.091,242.413C690.303,236.465,693.515,232.202,696.727,229.873C699.939,227.543,703.152,227.146,706.364,228.705C709.576,230.265,712.788,233.78,716,239.047C719.212,244.314,722.424,251.332,725.636,259.709C728.848,268.086,732.061,277.82,735.273,288.404C738.485,298.988,741.697,310.42,744.909,322.162C748.121,333.905,751.333,345.957,754.545,357.834C757.758,369.711,760.97,381.413,764.182,392.565C767.394,403.717,770.606,414.32,773.818,424.141C777.03,433.962,780.242,443,783.455,451.162C786.667,459.323,789.879,466.608,793.091,473.035C796.303,479.463,799.515,485.034,802.727,489.845C805.939,494.656,809.152,498.707,812.364,502.137C815.576,505.567,818.788,508.375,822,510.707C825.212,513.039,828.424,514.896,831.636,516.41C834.848,517.925,838.061,519.097,841.273,520.038C844.485,520.978,847.697,521.686,850.909,522.244C854.121,522.803,857.333,523.211,860.545,523.529C863.758,523.846,866.97,524.072,870.182,524.245C873.394,524.418,876.606,524.537,879.818,524.628C883.03,524.718,886.242,524.778,889.455,524.823C892.667,524.868,895.879,524.898,899.091,524.919C902.303,524.941,905.515,524.955,908.727,524.965C911.939,524.975,915.152,524.981,918.364,524.985C921.576,524.99,924.788,524.992,928,524.994C931.212,524.996,934.424,524.997,937.636,524.998C940.848,524.998,944.061,524.999,947.273,524.999C950.485,524.999,953.697,525,956.909,525C960.121,525,963.333,525,966.545,525C969.758,525,972.97,525,976.182,525C979.394,525,982.606,525,985.818,525C989.03,525,992.242,525,995.455,525C998.667,525,1001.879,525,1005.091,525C1008.303,525,1011.515,525,1014.727,525C1017.939,525,1021.152,525,1024.364,525C1027.576,525,1030.788,525,1034,525C1037.212,525,1040.424,525,1043.636,525C1046.848,525,1050.061,525,1053.273,525C1056.485,525,1059.697,525,1062.909,525C1066.121,525,1069.333,525,1072.545,525C1075.758,525,1078.97,525,1082.182,525C1085.394,525,1088.606,525,1091.818,525C1095.03,525,1098.242,525,1101.455,525C1104.667,525,1107.879,525,1111.091,525C1114.303,525,1117.515,525,1120.727,525C1123.939,525,1127.152,525,1130.364,525C1133.576,525,1136.788,525,1138.394,525L1140,525"></path><text x="702.5090909090908" y="215.7932896989255" text-anchor="middle" font-size="11" fill="#4CAF50">Optimized (R3)</text><path fill="none" stroke="#FF9800" stroke-width="3" stroke-dasharray="3,3" d="M80,525L81.606,525C83.212,525,86.424,525,89.636,525C92.848,525,96.061,525,99.273,525C102.485,525,105.697,525,108.909,525C112.121,525,115.333,525,118.545,525C121.758,525,124.97,525,128.182,525C131.394,525,134.606,525,137.818,525C141.03,525,144.242,525,147.455,525C150.667,525,153.879,525,157.091,525C160.303,525,163.515,525,166.727,525C169.939,525,173.152,525,176.364,525C179.576,525,182.788,525,186,525C189.212,525,192.424,525,195.636,525C198.848,525,202.061,525,205.273,525C208.485,525,211.697,525,214.909,525C218.121,525,221.333,525,224.545,525C227.758,525,230.97,525,234.182,525C237.394,525,240.606,525,243.818,525C247.03,525,250.242,525,253.455,525C256.667,525,259.879,525,263.091,525C266.303,525,269.515,525,272.727,525C275.939,525,279.152,525,282.364,525C285.576,525,288.788,525,292,525C295.212,525,298.424,525,301.636,525C304.848,525,308.061,525,311.273,525C314.485,525,317.697,525,320.909,525C324.121,525,327.333,525,330.545,525C333.758,525,336.97,525,340.182,525C343.394,525,346.606,525,349.818,525C353.03,525,356.242,525,359.455,525C362.667,525,365.879,525,369.091,525C372.303,525,375.515,525,378.727,525C381.939,525,385.152,525,388.364,525C391.576,525,394.788,525,398,525C401.212,525,404.424,525,407.636,525C410.848,525,414.061,525,417.273,525C420.485,525,423.697,525,426.909,525C430.121,525,433.333,525,436.545,525C439.758,525,442.97,525,446.182,525C449.394,525,452.606,525,455.818,525C459.03,525,462.242,525,465.455,525C468.667,525,471.879,525,475.091,525C478.303,525,481.515,525,484.727,525C487.939,525,491.152,525,494.364,525C497.576,525,500.788,525,504,525C507.212,525,510.424,525,513.636,525C516.848,525,520.061,525,523.273,525C526.485,525,529.697,525,532.909,525C536.121,525,539.333,525,542.545,525C545.758,525,548.97,525,552.182,525C555.394,525,558.606,525,561.818,525C565.03,525,568.242,525,571.455,525C574.667,525,577.879,525,581.091,525C584.303,525,587.515,525,590.727,525C593.939,525,597.152,525,600.364,525C603.576,525,606.788,525,610,525C613.212,525,616.424,525,619.636,525C622.848,525,626.061,525,629.273,525C632.485,525,635.697,525,638.909,525C642.121,525,645.333,525,648.545,525C651.758,525,654.97,525,658.182,525C661.394,525,664.606,525,667.818,525C671.03,525,674.242,525,677.455,525C680.667,525,683.879,525,687.091,525C690.303,525,693.515,525,696.727,525C699.939,525,703.152,525,706.364,525C709.576,525,712.788,525,716,525C719.212,525,722.424,525,725.636,525C728.848,525,732.061,525,735.273,525C738.485,525,741.697,525,744.909,525C748.121,525,751.333,525,754.545,525C757.758,525,760.97,525,764.182,525C767.394,525,770.606,525,773.818,525C777.03,525,780.242,525,783.455,525C786.667,525,789.879,525,793.091,525C796.303,525,799.515,525,802.727,525C805.939,525,809.152,525,812.364,524.999C815.576,524.999,818.788,524.999,822,524.997C825.212,524.996,828.424,524.993,831.636,524.987C834.848,524.98,838.061,524.969,841.273,524.943C844.485,524.916,847.697,524.875,850.909,524.781C854.121,524.688,857.333,524.544,860.545,524.251C863.758,523.957,866.97,523.515,870.182,522.691C873.394,521.868,876.606,520.664,879.818,518.611C883.03,516.558,886.242,513.657,889.455,509.117C892.667,504.578,895.879,498.4,899.091,489.526C902.303,480.652,905.515,469.082,908.727,453.82C911.939,438.559,915.152,419.606,918.364,396.686C921.576,373.765,924.788,346.876,928,317.19C931.212,287.504,934.424,255.02,937.636,222.637C940.848,190.254,944.061,157.972,947.273,129.761C950.485,101.55,953.697,77.411,956.909,60.849C960.121,44.288,963.333,35.305,966.545,35.305C969.758,35.305,972.97,44.288,976.182,60.849C979.394,77.411,982.606,101.55,985.818,129.761C989.03,157.972,992.242,190.254,995.455,222.637C998.667,255.02,1001.879,287.504,1005.091,317.19C1008.303,346.876,1011.515,373.765,1014.727,396.686C1017.939,419.606,1021.152,438.559,1024.364,453.82C1027.576,469.082,1030.788,480.652,1034,489.526C1037.212,498.4,1040.424,504.578,1043.636,509.117C1046.848,513.657,1050.061,516.558,1053.273,518.611C1056.485,520.664,1059.697,521.868,1062.909,522.691C1066.121,523.515,1069.333,523.957,1072.545,524.251C1075.758,524.544,1078.97,524.688,1082.182,524.781C1085.394,524.875,1088.606,524.916,1091.818,524.943C1095.03,524.969,1098.242,524.98,1101.455,524.987C1104.667,524.993,1107.879,524.996,1111.091,524.997C1114.303,524.999,1117.515,524.999,1120.727,524.999C1123.939,525,1127.152,525,1130.364,525C1133.576,525,1136.788,525,1138.394,525L1140,525"></path><text x="966.5454545454545" y="16.322149498209086" text-anchor="middle" font-size="11" fill="#FF9800">Teacher (Gemini)</text></svg>