<svg xmlns="http://www.w3.org/2000/svg" width="1200" height="675" style="background-color: rgb(255, 255, 255); font-family: system-ui, -apple-system, sans-serif;"><text x="600" y="40" text-anchor="middle" font-size="28" font-weight="bold" fill="#212121">Few-shot 注入机制：Token 预算分配</text><g transform="translate(600,357.5)"><g class="arc"><path d="M0,-200A200,200,0,0,1,117.557,-161.803L70.534,-97.082A120,120,0,0,0,0,-120Z" fill="#90CAF9" stroke="white" stroke-width="2"></path></g><g class="arc"><path d="M117.557,-161.803A200,200,0,0,1,161.803,117.557L97.082,70.534A120,120,0,0,0,70.534,-97.082Z" fill="#81C784" stroke="white" stroke-width="2"></path></g><g class="arc"><path d="M161.803,117.557A200,200,0,1,1,-61.803,-190.211L-37.082,-114.127A120,120,0,1,0,97.082,70.534Z" fill="#BA68C8" stroke="white" stroke-width="2"></path></g><g class="arc"><path d="M-61.803,-190.211A200,200,0,0,1,0,-200L0,-120A120,120,0,0,0,-37.082,-114.127Z" fill="#E0E0E0" stroke="white" stroke-width="2"></path></g><text text-anchor="middle" dy="-0.5em" font-size="24" font-weight="bold">2048 Tokens</text><text text-anchor="middle" dy="1em" font-size="14" fill="#757575">Context Window</text></g><g transform="translate(950, 200)"><g transform="translate(0, 0)"><rect width="18" height="18" fill="#90CAF9"></rect><text x="25" y="14" font-size="14">System Role (10%)</text></g><g transform="translate(0, 30)"><rect width="18" height="18" fill="#81C784"></rect><text x="25" y="14" font-size="14">Few-shot Examples (25%)</text></g><g transform="translate(0, 60)"><rect width="18" height="18" fill="#BA68C8"></rect><text x="25" y="14" font-size="14">Current Task (60%)</text></g><g transform="translate(0, 90)"><rect width="18" height="18" fill="#E0E0E0"></rect><text x="25" y="14" font-size="14">Buffer (5%)</text></g></g></svg>