<svg xmlns="http://www.w3.org/2000/svg" width="1200" height="675" style="background-color: rgb(255, 255, 255); font-family: system-ui, -apple-system, sans-serif;"><text x="600" y="40" text-anchor="middle" font-size="28" font-weight="bold" fill="#212121">自演进：Teacher 对齐趋势</text><defs><linearGradient id="area-grad" x1="0%" y1="0%" x2="0%" y2="100%"><stop offset="0%" stop-color="#8b5cf6" stop-opacity="0.4"></stop><stop offset="100%" stop-color="#8b5cf6" stop-opacity="0"></stop></linearGradient></defs><path fill="url(#area-grad)" d="M180,452.6C323.333,439.992,466.667,427.383,610,415.517C753.333,403.65,896.667,392.525,1040,381.4L1040,595C896.667,595,753.333,595,610,595C466.667,595,323.333,595,180,595Z"></path><path fill="none" stroke="#7c3aed" stroke-width="4" d="M180,452.6C323.333,439.992,466.667,427.383,610,415.517C753.333,403.65,896.667,392.525,1040,381.4"></path><circle cx="180" cy="452.6" r="8" fill="#7c3aed" stroke="white" stroke-width="2"></circle><circle cx="610" cy="415.51666666666677" r="8" fill="#7c3aed" stroke="white" stroke-width="2"></circle><circle cx="1040" cy="381.39999999999986" r="8" fill="#7c3aed" stroke="white" stroke-width="2"></circle><text x="180" y="432.6" text-anchor="middle" font-weight="bold">79.6%</text><text x="610" y="395.51666666666677" text-anchor="middle" font-weight="bold">82.1%</text><text x="1040" y="361.39999999999986" text-anchor="middle" font-weight="bold">84.4%</text><text x="600" y="120" text-anchor="middle" font-size="20" fill="#4A148C">Gap Closure: 本地模型输出逐步向 Teacher 分布靠拢</text></svg>