<svg xmlns="http://www.w3.org/2000/svg" width="1200" height="675" style="background-color: rgb(255, 255, 255); font-family: system-ui, -apple-system, sans-serif;"><text x="600" y="40" text-anchor="middle" font-size="28" font-weight="bold" fill="#212121">总结与决策请求</text><g transform="translate(100, 150)"><rect width="500" height="400" rx="12" fill="#F8F9FA" stroke="#3b82f6" stroke-width="2"></rect><text x="250" y="50" text-anchor="middle" font-size="24" font-weight="bold" fill="#1565C0">决策请求 (Action Items)</text><text x="50" y="120" font-size="18">☐ 确认下一轮实验预算 (样本数 50+)</text><text x="50" y="180" font-size="18">☐ 确认 Teacher 模型锁定 (Gemini 3 Pro)</text><text x="50" y="240" font-size="18">☐ 批准 30/60/90 天 KPI 目标</text><text x="50" y="300" font-size="18">☐ 启动 Vector DB 预研资源分配</text></g><g transform="translate(850, 350)"><line x1="0" y1="0" x2="9.184850993605149e-15" y2="-150" stroke="#E0E0E0"></line><text x="1.0409497792752502e-14" y="-170" text-anchor="middle" font-size="12">Quality</text><line x1="0" y1="0" x2="142.65847744427302" y2="-46.35254915624211" stroke="#E0E0E0"></line><text x="161.6796077701761" y="-52.53288904374106" text-anchor="middle" font-size="12">Cost</text><line x1="0" y1="0" x2="88.16778784387097" y2="121.35254915624212" stroke="#E0E0E0"></line><text x="99.92349288972044" y="137.53288904374108" text-anchor="middle" font-size="12">Latency</text><line x1="0" y1="0" x2="-88.16778784387095" y2="121.35254915624212" stroke="#E0E0E0"></line><text x="-99.92349288972042" y="137.53288904374108" text-anchor="middle" font-size="12">Stability</text><line x1="0" y1="0" x2="-142.65847744427305" y2="-46.35254915624209" stroke="#E0E0E0"></line><text x="-161.67960777017612" y="-52.53288904374104" text-anchor="middle" font-size="12">Success</text><path d="M0,-135L99.861,-32.447L74.943,103.15L-81.114,111.644L-142.658,-46.353Z" fill="#10b981" fill-opacity="0.2" stroke="#10b981" stroke-width="3"></path></g></svg>