<svg xmlns="http://www.w3.org/2000/svg" width="1200" height="675" style="background-color: rgb(255, 255, 255); font-family: system-ui, -apple-system, sans-serif;"><text x="600" y="40" text-anchor="middle" font-size="28" font-weight="bold" fill="#212121">动态 Token 预算与 Fallback 机制</text><g><g fill="#90CAF9"><rect x="333.33333333333337" y="488.37890625" height="36.62109375" width="199.99999999999994"></rect><rect x="666.6666666666666" y="488.37890625" height="36.62109375" width="199.99999999999994"></rect></g><g fill="#81C784"><rect x="333.33333333333337" y="488.37890625" height="0" width="199.99999999999994"></rect><rect x="666.6666666666666" y="378.515625" height="109.86328125" width="199.99999999999994"></rect></g><g fill="#BA68C8"><rect x="333.33333333333337" y="341.89453125" height="146.484375" width="199.99999999999994"></rect><rect x="666.6666666666666" y="232.03125" height="146.484375" width="199.99999999999994"></rect></g><g fill="#EEEEEE"><rect x="333.33333333333337" y="150" height="191.89453125" width="199.99999999999994"></rect><rect x="666.6666666666666" y="150" height="82.03125" width="199.99999999999994"></rect></g></g><g transform="translate(1050, 200)"><g transform="translate(0, 0)"><rect width="18" height="18" fill="#EEEEEE"></rect><text x="25" y="14" font-size="12">BUFFER</text></g><g transform="translate(0, 30)"><rect width="18" height="18" fill="#BA68C8"></rect><text x="25" y="14" font-size="12">TASK</text></g><g transform="translate(0, 60)"><rect width="18" height="18" fill="#81C784"></rect><text x="25" y="14" font-size="12">EXAMPLES</text></g><g transform="translate(0, 90)"><rect width="18" height="18" fill="#90CAF9"></rect><text x="25" y="14" font-size="12">SYSTEM</text></g></g></svg>