<svg xmlns="http://www.w3.org/2000/svg" width="1200" height="675" style="background-color: rgb(255, 255, 255); font-family: system-ui, -apple-system, sans-serif;"><text x="600" y="40" text-anchor="middle" font-size="28" font-weight="bold" fill="#212121">系统架构全景</text><g><line x1="100" y1="337" x2="300" y2="337" stroke="#9E9E9E" stroke-width="2" stroke-dasharray="0"></line><line x1="300" y1="337" x2="550" y2="337" stroke="#9E9E9E" stroke-width="2" stroke-dasharray="0"></line><line x1="550" y1="337" x2="800" y2="337" stroke="#9E9E9E" stroke-width="2" stroke-dasharray="0"></line><line x1="550" y1="150" x2="550" y2="337" stroke="#9E9E9E" stroke-width="2" stroke-dasharray="5,5"></line><line x1="800" y1="337" x2="1050" y2="337" stroke="#9E9E9E" stroke-width="2" stroke-dasharray="0"></line></g><g transform="translate(100,337)"><rect x="-80" y="-30" width="160" height="60" rx="8" fill="#E3F2FD" stroke="#1565C0" stroke-width="2"></rect><text text-anchor="middle" dy=".35em" fill="#0D47A1" font-weight="bold" font-size="14">Input</text></g><g transform="translate(300,337)"><rect x="-80" y="-30" width="160" height="60" rx="8" fill="#FFF3E0" stroke="#EF6C00" stroke-width="2"></rect><text text-anchor="middle" dy=".35em" fill="#E65100" font-weight="bold" font-size="14">OCR</text></g><g transform="translate(550,337)"><rect x="-80" y="-30" width="160" height="60" rx="8" fill="#FFF3E0" stroke="#EF6C00" stroke-width="2"></rect><text text-anchor="middle" dy=".35em" fill="#E65100" font-weight="bold" font-size="14">Prompt Engine</text></g><g transform="translate(800,337)"><rect x="-80" y="-30" width="160" height="60" rx="8" fill="#E8F5E9" stroke="#2E7D32" stroke-width="2"></rect><text text-anchor="middle" dy=".35em" fill="#1B5E20" font-weight="bold" font-size="14">LLM (Student)</text></g><g transform="translate(550,150)"><rect x="-80" y="-30" width="160" height="60" rx="8" fill="#F3E5F5" stroke="#7B1FA2" stroke-width="2"></rect><text text-anchor="middle" dy=".35em" fill="#4A148C" font-weight="bold" font-size="14">Teacher Pool</text></g><g transform="translate(1050,337)"><rect x="-80" y="-30" width="160" height="60" rx="8" fill="#E3F2FD" stroke="#1565C0" stroke-width="2"></rect><text text-anchor="middle" dy=".35em" fill="#0D47A1" font-weight="bold" font-size="14">Output</text></g></svg>