<svg xmlns="http://www.w3.org/2000/svg" width="1200" height="675" style="background-color: rgb(255, 255, 255); font-family: system-ui, -apple-system, sans-serif;"><text x="600" y="40" text-anchor="middle" font-size="28" font-weight="bold" fill="#212121">稳定性：从波动到确定</text><path fill="none" stroke="#9E9E9E" stroke-width="2" stroke-dasharray="5,5" d="M80,594.95L82.944,594.945C85.889,594.94,91.778,594.929,97.667,594.916C103.556,594.902,109.444,594.886,115.333,594.865C121.222,594.844,127.111,594.818,133,594.786C138.889,594.754,144.778,594.715,150.667,594.667C156.556,594.618,162.444,594.561,168.333,594.489C174.222,594.418,180.111,594.333,186,594.229C191.889,594.125,197.778,594.002,203.667,593.854C209.556,593.705,215.444,593.531,221.333,593.322C227.222,593.113,233.111,592.87,239,592.582C244.889,592.294,250.778,591.961,256.667,591.57C262.556,591.179,268.444,590.73,274.333,590.209C280.222,589.688,286.111,589.094,292,588.411C297.889,587.728,303.778,586.956,309.667,586.078C315.556,585.2,321.444,584.215,327.333,583.105C333.222,581.996,339.111,580.762,345,579.387C350.889,578.012,356.778,576.495,362.667,574.822C368.556,573.149,374.444,571.321,380.333,569.325C386.222,567.33,392.111,565.168,398,562.834C403.889,560.501,409.778,557.997,415.667,555.324C421.556,552.652,427.444,549.811,433.333,546.815C439.222,543.819,445.111,540.668,451,537.384C456.889,534.1,462.778,530.684,468.667,527.169C474.556,523.655,480.444,520.042,486.333,516.376C492.222,512.709,498.111,508.989,504,505.27C509.889,501.55,515.778,497.832,521.667,494.175C527.556,490.518,533.444,486.923,539.333,483.455C545.222,479.988,551.111,476.647,557,473.5C562.889,470.352,568.778,467.397,574.667,464.697C580.556,461.996,586.444,459.55,592.333,457.411C598.222,455.273,604.111,453.442,610,451.959C615.889,450.477,621.778,449.344,627.667,448.585C633.556,447.826,639.444,447.443,645.333,447.443C651.222,447.443,657.111,447.826,663,448.585C668.889,449.344,674.778,450.477,680.667,451.959C686.556,453.442,692.444,455.273,698.333,457.411C704.222,459.55,710.111,461.996,716,464.697C721.889,467.397,727.778,470.352,733.667,473.5C739.556,476.647,745.444,479.988,751.333,483.455C757.222,486.923,763.111,490.518,769,494.175C774.889,497.832,780.778,501.55,786.667,505.27C792.556,508.989,798.444,512.709,804.333,516.376C810.222,520.042,816.111,523.655,822,527.169C827.889,530.684,833.778,534.1,839.667,537.384C845.556,540.668,851.444,543.819,857.333,546.815C863.222,549.811,869.111,552.652,875,555.324C880.889,557.997,886.778,560.501,892.667,562.834C898.556,565.168,904.444,567.33,910.333,569.325C916.222,571.321,922.111,573.149,928,574.822C933.889,576.495,939.778,578.012,945.667,579.387C951.556,580.762,957.444,581.996,963.333,583.105C969.222,584.215,975.111,585.2,981,586.078C986.889,586.956,992.778,587.728,998.667,588.411C1004.556,589.094,1010.444,589.688,1016.333,590.209C1022.222,590.73,1028.111,591.179,1034,591.57C1039.889,591.961,1045.778,592.294,1051.667,592.582C1057.556,592.87,1063.444,593.113,1069.333,593.322C1075.222,593.531,1081.111,593.705,1087,593.854C1092.889,594.002,1098.778,594.125,1104.667,594.229C1110.556,594.333,1116.444,594.418,1122.333,594.489C1128.222,594.561,1134.111,594.618,1137.056,594.647L1140,594.676"></path><path fill="rgba(76, 175, 80, 0.1)" stroke="#4CAF50" stroke-width="4" d="M80,595L82.944,595C85.889,595,91.778,595,97.667,595C103.556,595,109.444,595,115.333,595C121.222,595,127.111,595,133,595C138.889,595,144.778,595,150.667,595C156.556,595,162.444,595,168.333,595C174.222,595,180.111,595,186,595C191.889,595,197.778,595,203.667,595C209.556,595,215.444,595,221.333,595C227.222,595,233.111,595,239,595C244.889,595,250.778,595,256.667,595C262.556,595,268.444,595,274.333,595C280.222,595,286.111,595,292,595C297.889,595,303.778,595,309.667,595C315.556,595,321.444,595,327.333,595C333.222,595,339.111,595,345,595C350.889,595,356.778,595,362.667,595C368.556,595,374.444,595,380.333,595C386.222,595,392.111,595,398,595C403.889,595,409.778,595,415.667,595C421.556,595,427.444,595,433.333,595C439.222,595,445.111,595,451,595C456.889,595,462.778,595,468.667,595C474.556,595,480.444,595,486.333,595C492.222,595,498.111,594.999,504,594.999C509.889,594.998,515.778,594.997,521.667,594.993C527.556,594.99,533.444,594.984,539.333,594.97C545.222,594.956,551.111,594.934,557,594.883C562.889,594.832,568.778,594.752,574.667,594.586C580.556,594.419,586.444,594.166,592.333,593.682C598.222,593.198,604.111,592.484,610,591.234C615.889,589.983,621.778,588.198,627.667,585.331C633.556,582.464,639.444,578.516,645.333,572.698C651.222,566.881,657.111,559.193,663,548.789C668.889,538.385,674.778,525.265,680.667,508.975C686.556,492.685,692.444,473.225,698.333,451.129C704.222,429.033,710.111,404.301,716,378.831C721.889,353.362,727.778,327.155,733.667,303.201C739.556,279.247,745.444,257.546,751.333,241.131C757.222,224.716,763.111,213.587,769,209.46C774.889,205.334,780.778,208.209,786.667,217.634C792.556,227.059,798.444,243.034,804.333,263.165C810.222,283.296,816.111,307.583,822,332.849C827.889,358.115,833.778,384.359,839.667,408.942C845.556,433.525,851.444,456.446,857.333,476.364C863.222,496.282,869.111,513.198,875,527.04C880.889,540.882,886.778,551.65,892.667,560.024C898.556,568.399,904.444,574.379,910.333,578.829C916.222,583.278,922.111,586.196,928,588.283C933.889,590.37,939.778,591.626,945.667,592.493C951.556,593.361,957.444,593.839,963.333,594.16C969.222,594.48,975.111,594.642,981,594.747C986.889,594.852,992.778,594.901,998.667,594.932C1004.556,594.962,1010.444,594.975,1016.333,594.983C1022.222,594.991,1028.111,594.994,1034,594.996C1039.889,594.998,1045.778,594.999,1051.667,594.999C1057.556,595,1063.444,595,1069.333,595C1075.222,595,1081.111,595,1087,595C1092.889,595,1098.778,595,1104.667,595C1110.556,595,1116.444,595,1122.333,595C1128.222,595,1134.111,595,1137.056,595L1140,595"></path><text x="645.3333333333334" y="555.6666666666666" text-anchor="middle" fill="#757575" font-size="12">Baseline (CV: 3.67%)</text><text x="774.3" y="199.33333333333331" text-anchor="middle" fill="#2E7D32" font-weight="bold" font-size="14">Few-shot (CV: 3.40%)</text><text x="600" y="120" text-anchor="middle" font-size="20" fill="#212121">成功率 90.5% → 100% | 质量分布高度集中</text></svg>