<svg xmlns="http://www.w3.org/2000/svg" width="1200" height="675" style="background-color: rgb(255, 255, 255); font-family: system-ui, -apple-system, sans-serif;"><text x="600" y="40" text-anchor="middle" font-size="28" font-weight="bold" fill="#212121">三语学习卡片生态 (Feature Architecture)</text><g><line x1="600" y1="350" x2="600" y2="130" stroke="#E0E0E0" stroke-width="2"></line><g transform="translate(600,130)"><rect x="-90" y="-25" width="180" height="50" rx="25" fill="white" stroke="#EF6C00" stroke-width="2"></rect><text text-anchor="middle" dy=".35em" font-size="13" fill="#EF6C00" font-weight="600">OCR 图像文字识别</text></g><line x1="600" y1="350" x2="790.5255888325765" y2="240" stroke="#E0E0E0" stroke-width="2"></line><g transform="translate(790.5255888325765,240)"><rect x="-90" y="-25" width="180" height="50" rx="25" fill="white" stroke="#7B1FA2" stroke-width="2"></rect><text text-anchor="middle" dy=".35em" font-size="13" fill="#7B1FA2" font-weight="600">汉字注音 (Furigana)</text></g><line x1="600" y1="350" x2="790.5255888325765" y2="460" stroke="#E0E0E0" stroke-width="2"></line><g transform="translate(790.5255888325765,460)"><rect x="-90" y="-25" width="180" height="50" rx="25" fill="white" stroke="#1565C0" stroke-width="2"></rect><text text-anchor="middle" dy=".35em" font-size="13" fill="#1565C0" font-weight="600">Kokoro/VOICEVOX TTS</text></g><line x1="600" y1="350" x2="600" y2="570" stroke="#E0E0E0" stroke-width="2"></line><g transform="translate(600,570)"><rect x="-90" y="-25" width="180" height="50" rx="25" fill="white" stroke="#7B1FA2" stroke-width="2"></rect><text text-anchor="middle" dy=".35em" font-size="13" fill="#7B1FA2" font-weight="600">SQLite 历史归档</text></g><line x1="600" y1="350" x2="409.47441116742345" y2="460" stroke="#E0E0E0" stroke-width="2"></line><g transform="translate(409.47441116742345,460)"><rect x="-90" y="-25" width="180" height="50" rx="25" fill="white" stroke="#2E7D32" stroke-width="2"></rect><text text-anchor="middle" dy=".35em" font-size="13" fill="#2E7D32" font-weight="600">可观测性监控 (Mission Control)</text></g><line x1="600" y1="350" x2="409.4744111674235" y2="239.99999999999997" stroke="#E0E0E0" stroke-width="2"></line><g transform="translate(409.4744111674235,239.99999999999997)"><rect x="-90" y="-25" width="180" height="50" rx="25" fill="white" stroke="#EF6C00" stroke-width="2"></rect><text text-anchor="middle" dy=".35em" font-size="13" fill="#EF6C00" font-weight="600">多模型对比 (Dual-Model)</text></g><circle cx="600" cy="350" r="80" fill="#3b82f6" style="filter: drop-shadow(0 0 15px rgba(59, 130, 246, 0.5));"></circle><text x="600" y="350" text-anchor="middle" dy=".35em" fill="white" font-weight="bold" font-size="20">TRILINGUAL</text></g></svg>