<svg xmlns="http://www.w3.org/2000/svg" width="1280" height="720" style="background: rgb(255, 255, 255);"><text x="40" y="42" font-size="28" font-weight="700" fill="#0f172a">局限与失败分解</text><text x="40" y="227.02325581395348" font-size="22" fill="#0f172a">评分器规则化</text><rect x="320" y="193.02325581395348" width="760" height="53.72093023255814" rx="10" fill="#e2e8f0"></rect><rect x="320" y="193.02325581395348" width="656" height="53.72093023255814" rx="10" fill="#dc2626"></rect><text x="984" y="227.02325581395348" font-size="18" font-weight="700" fill="#7f1d1d">80</text><text x="40" y="303.7674418604651" font-size="22" fill="#0f172a">Teacher 样本不足</text><rect x="320" y="269.7674418604651" width="760" height="53.72093023255814" rx="10" fill="#e2e8f0"></rect><rect x="320" y="269.7674418604651" width="606.8000000000001" height="53.72093023255814" rx="10" fill="#dc2626"></rect><text x="934.8000000000001" y="303.7674418604651" font-size="18" font-weight="700" fill="#7f1d1d">74</text><text x="40" y="380.51162790697674" font-size="22" fill="#0f172a">预算回退触发</text><rect x="320" y="346.51162790697674" width="760" height="53.72093023255814" rx="10" fill="#e2e8f0"></rect><rect x="320" y="346.51162790697674" width="549.4000000000001" height="53.72093023255814" rx="10" fill="#dc2626"></rect><text x="877.4000000000001" y="380.51162790697674" font-size="18" font-weight="700" fill="#7f1d1d">67</text><text x="40" y="457.25581395348837" font-size="22" fill="#0f172a">单轮对比覆盖</text><rect x="320" y="423.25581395348837" width="760" height="53.72093023255814" rx="10" fill="#e2e8f0"></rect><rect x="320" y="423.25581395348837" width="475.5999999999999" height="53.72093023255814" rx="10" fill="#dc2626"></rect><text x="803.5999999999999" y="457.25581395348837" font-size="18" font-weight="700" fill="#7f1d1d">58</text><text x="40" y="560" font-size="20" fill="#334155">失败样本: 数据管道(基线失败)-&gt;fewshot成功；信息茧房(基线成功)-&gt;fewshot失败</text><text x="40" y="700" font-size="12" fill="#64748b">Data: benchmark_experiment_report.md failure analysis</text></svg>