<svg xmlns="http://www.w3.org/2000/svg" width="1280" height="720" style="background: rgb(247, 249, 252);"><rect x="16" y="16" width="1248" height="688" rx="18" fill="#FFFFFF" stroke="#E2E8F0"></rect><text x="44" y="62" font-family="'Noto Sans JP','Hiragino Sans','Yu Gothic',sans-serif" font-size="40" font-weight="800" fill="#1F2937">最適化ロードマップ：効果とリスク</text><text x="44" y="92" font-family="'Noto Sans JP','Hiragino Sans','Yu Gothic',sans-serif" font-size="18" fill="#5B6475">30/60/90日で段階導入</text><rect x="60" y="170" width="130" height="100" rx="14" fill="#EEF2F7" stroke="#64748B" stroke-width="2"></rect><text x="78" y="202" font-family="'Noto Sans JP','Hiragino Sans','Yu Gothic',sans-serif" font-size="20" font-weight="800" fill="#475569">30日</text><rect x="230" y="170" width="340" height="100" rx="14" fill="#E7F0FF" stroke="#2563EB" stroke-width="2"></rect><text x="248" y="202" font-family="'Noto Sans JP','Hiragino Sans','Yu Gothic',sans-serif" font-size="20" font-weight="800" fill="#1D4ED8">方針</text><text x="248" y="230" font-family="'Noto Sans JP','Hiragino Sans','Yu Gothic',sans-serif" font-size="16" fill="#1F2937">Teacherプール拡張</text><rect x="610" y="170" width="250" height="100" rx="14" fill="#E9F8EF" stroke="#16A34A" stroke-width="2"></rect><text x="628" y="202" font-family="'Noto Sans JP','Hiragino Sans','Yu Gothic',sans-serif" font-size="20" font-weight="800" fill="#15803D">期待効果</text><text x="628" y="230" font-family="'Noto Sans JP','Hiragino Sans','Yu Gothic',sans-serif" font-size="16" fill="#1F2937">品質 +2〜3</text><rect x="900" y="170" width="320" height="100" rx="14" fill="#FEECEC" stroke="#DC2626" stroke-width="2"></rect><text x="918" y="202" font-family="'Noto Sans JP','Hiragino Sans','Yu Gothic',sans-serif" font-size="20" font-weight="800" fill="#B91C1C">潜在リスク</text><text x="918" y="230" font-family="'Noto Sans JP','Hiragino Sans','Yu Gothic',sans-serif" font-size="16" fill="#1F2937">類似検索 +200ms</text><defs><marker id="arrow" viewBox="0 0 10 10" refX="9" refY="5" markerWidth="7" markerHeight="7" orient="auto-start-reverse"><path d="M0,0 L10,5 L0,10 z" fill="#64748B"></path></marker></defs><line x1="190" y1="220" x2="230" y2="220" stroke="#64748B" stroke-width="2" marker-end="url(#arrow)"></line><line x1="570" y1="220" x2="610" y2="220" stroke="#64748B" stroke-width="2" marker-end="url(#arrow)"></line><line x1="860" y1="220" x2="900" y2="220" stroke="#64748B" stroke-width="2" marker-end="url(#arrow)"></line><rect x="60" y="320" width="130" height="100" rx="14" fill="#EEF2F7" stroke="#64748B" stroke-width="2"></rect><text x="78" y="352" font-family="'Noto Sans JP','Hiragino Sans','Yu Gothic',sans-serif" font-size="20" font-weight="800" fill="#475569">60日</text><rect x="230" y="320" width="340" height="100" rx="14" fill="#E9F8EF" stroke="#16A34A" stroke-width="2"></rect><text x="248" y="352" font-family="'Noto Sans JP','Hiragino Sans','Yu Gothic',sans-serif" font-size="20" font-weight="800" fill="#15803D">方針</text><text x="248" y="380" font-family="'Noto Sans JP','Hiragino Sans','Yu Gothic',sans-serif" font-size="16" fill="#1F2937">予算配分緩和</text><rect x="610" y="320" width="250" height="100" rx="14" fill="#E9F8EF" stroke="#16A34A" stroke-width="2"></rect><text x="628" y="352" font-family="'Noto Sans JP','Hiragino Sans','Yu Gothic',sans-serif" font-size="20" font-weight="800" fill="#15803D">期待効果</text><text x="628" y="380" font-family="'Noto Sans JP','Hiragino Sans','Yu Gothic',sans-serif" font-size="16" fill="#1F2937">fallback減少</text><rect x="900" y="320" width="320" height="100" rx="14" fill="#FEECEC" stroke="#DC2626" stroke-width="2"></rect><text x="918" y="352" font-family="'Noto Sans JP','Hiragino Sans','Yu Gothic',sans-serif" font-size="20" font-weight="800" fill="#B91C1C">潜在リスク</text><text x="918" y="380" font-family="'Noto Sans JP','Hiragino Sans','Yu Gothic',sans-serif" font-size="16" fill="#1F2937">月間コスト +15%</text><line x1="190" y1="370" x2="230" y2="370" stroke="#64748B" stroke-width="2" marker-end="url(#arrow)"></line><line x1="570" y1="370" x2="610" y2="370" stroke="#64748B" stroke-width="2" marker-end="url(#arrow)"></line><line x1="860" y1="370" x2="900" y2="370" stroke="#64748B" stroke-width="2" marker-end="url(#arrow)"></line><rect x="60" y="470" width="130" height="100" rx="14" fill="#EEF2F7" stroke="#64748B" stroke-width="2"></rect><text x="78" y="502" font-family="'Noto Sans JP','Hiragino Sans','Yu Gothic',sans-serif" font-size="20" font-weight="800" fill="#475569">90日</text><rect x="230" y="470" width="340" height="100" rx="14" fill="#F3E8FF" stroke="#9333EA" stroke-width="2"></rect><text x="248" y="502" font-family="'Noto Sans JP','Hiragino Sans','Yu Gothic',sans-serif" font-size="20" font-weight="800" fill="#7E22CE">方針</text><text x="248" y="530" font-family="'Noto Sans JP','Hiragino Sans','Yu Gothic',sans-serif" font-size="16" fill="#1F2937">LLM評価導入</text><rect x="610" y="470" width="250" height="100" rx="14" fill="#E9F8EF" stroke="#16A34A" stroke-width="2"></rect><text x="628" y="502" font-family="'Noto Sans JP','Hiragino Sans','Yu Gothic',sans-serif" font-size="20" font-weight="800" fill="#15803D">期待効果</text><text x="628" y="530" font-family="'Noto Sans JP','Hiragino Sans','Yu Gothic',sans-serif" font-size="16" fill="#1F2937">評価精度向上</text><rect x="900" y="470" width="320" height="100" rx="14" fill="#FEECEC" stroke="#DC2626" stroke-width="2"></rect><text x="918" y="502" font-family="'Noto Sans JP','Hiragino Sans','Yu Gothic',sans-serif" font-size="20" font-weight="800" fill="#B91C1C">潜在リスク</text><text x="918" y="530" font-family="'Noto Sans JP','Hiragino Sans','Yu Gothic',sans-serif" font-size="16" fill="#1F2937">評価時間 x2</text><line x1="190" y1="520" x2="230" y2="520" stroke="#64748B" stroke-width="2" marker-end="url(#arrow)"></line><line x1="570" y1="520" x2="610" y2="520" stroke="#64748B" stroke-width="2" marker-end="url(#arrow)"></line><line x1="860" y1="520" x2="900" y2="520" stroke="#64748B" stroke-width="2" marker-end="url(#arrow)"></line><text x="44" y="690" font-family="'Noto Sans JP','Hiragino Sans','Yu Gothic',sans-serif" font-size="12" fill="#64748B">出典: optimization roadmap design</text></svg>