<svg xmlns="http://www.w3.org/2000/svg" width="920" height="420" style="background: rgb(255, 255, 255);"><text x="460" y="28" text-anchor="middle" font-size="16" font-weight="700" fill="#0f172a">Average Tokens Used</text><g transform="translate(70,60)"><g transform="translate(0,300)" fill="none" font-size="10" font-family="sans-serif" text-anchor="middle"><path class="domain" stroke="currentColor" d="M0.5,6V0.5H810.5V6"></path><g class="tick" opacity="1" transform="translate(228.91304347826085,0)"><line stroke="currentColor" y2="6"></line><text fill="currentColor" y="9" dy="0.71em">Baseline</text></g><g class="tick" opacity="1" transform="translate(581.0869565217391,0)"><line stroke="currentColor" y2="6"></line><text fill="currentColor" y="9" dy="0.71em">Few-shot</text></g></g><g fill="none" font-size="10" font-family="sans-serif" text-anchor="end"><path class="domain" stroke="currentColor" d="M-6,300.5H0.5V0.5H-6"></path><g class="tick" opacity="1" transform="translate(0,300.5)"><line stroke="currentColor" x2="-6"></line><text fill="currentColor" x="-9" dy="0.32em">0</text></g><g class="tick" opacity="1" transform="translate(0,277.42307692307696)"><line stroke="currentColor" x2="-6"></line><text fill="currentColor" x="-9" dy="0.32em">100</text></g><g class="tick" opacity="1" transform="translate(0,254.34615384615384)"><line stroke="currentColor" x2="-6"></line><text fill="currentColor" x="-9" dy="0.32em">200</text></g><g class="tick" opacity="1" transform="translate(0,231.26923076923075)"><line stroke="currentColor" x2="-6"></line><text fill="currentColor" x="-9" dy="0.32em">300</text></g><g class="tick" opacity="1" transform="translate(0,208.19230769230768)"><line stroke="currentColor" x2="-6"></line><text fill="currentColor" x="-9" dy="0.32em">400</text></g><g class="tick" opacity="1" transform="translate(0,185.1153846153846)"><line stroke="currentColor" x2="-6"></line><text fill="currentColor" x="-9" dy="0.32em">500</text></g><g class="tick" opacity="1" transform="translate(0,162.03846153846152)"><line stroke="currentColor" x2="-6"></line><text fill="currentColor" x="-9" dy="0.32em">600</text></g><g class="tick" opacity="1" transform="translate(0,138.96153846153848)"><line stroke="currentColor" x2="-6"></line><text fill="currentColor" x="-9" dy="0.32em">700</text></g><g class="tick" opacity="1" transform="translate(0,115.88461538461537)"><line stroke="currentColor" x2="-6"></line><text fill="currentColor" x="-9" dy="0.32em">800</text></g><g class="tick" opacity="1" transform="translate(0,92.8076923076923)"><line stroke="currentColor" x2="-6"></line><text fill="currentColor" x="-9" dy="0.32em">900</text></g><g class="tick" opacity="1" transform="translate(0,69.73076923076921)"><line stroke="currentColor" x2="-6"></line><text fill="currentColor" x="-9" dy="0.32em">1,000</text></g><g class="tick" opacity="1" transform="translate(0,46.65384615384615)"><line stroke="currentColor" x2="-6"></line><text fill="currentColor" x="-9" dy="0.32em">1,100</text></g><g class="tick" opacity="1" transform="translate(0,23.576923076923062)"><line stroke="currentColor" x2="-6"></line><text fill="currentColor" x="-9" dy="0.32em">1,200</text></g><g class="tick" opacity="1" transform="translate(0,0.5)"><line stroke="currentColor" x2="-6"></line><text fill="currentColor" x="-9" dy="0.32em">1,300</text></g></g><g stroke="#e5e7eb"><line x1="0" x2="810" y1="300" y2="300"></line><line x1="0" x2="810" y1="253.84615384615384" y2="253.84615384615384"></line><line x1="0" x2="810" y1="207.69230769230768" y2="207.69230769230768"></line><line x1="0" x2="810" y1="161.53846153846152" y2="161.53846153846152"></line><line x1="0" x2="810" y1="115.38461538461537" y2="115.38461538461537"></line><line x1="0" x2="810" y1="69.23076923076921" y2="69.23076923076921"></line><line x1="0" x2="810" y1="23.076923076923062" y2="23.076923076923062"></line></g><rect x="105.65217391304344" y="210.23076923076925" width="246.5217391304348" height="89.76923076923075" fill="#2563eb" rx="6"></rect><rect x="457.82608695652175" y="52.9903846153846" width="246.5217391304348" height="247.00961538461542" fill="#16a34a" rx="6"></rect><text class="bar-label" x="228.91304347826085" y="202.23076923076925" text-anchor="middle" font-size="12" fill="#0f172a">389.0</text><text class="bar-label" x="581.0869565217391" y="44.9903846153846" text-anchor="middle" font-size="12" fill="#0f172a">1070.4</text></g><text x="70" y="408" font-size="12" fill="#64748b">Tokens</text></svg>