<svg xmlns="http://www.w3.org/2000/svg" width="980" height="460" style="background: rgb(255, 255, 255);"><text x="490" y="28" text-anchor="middle" font-size="16" font-weight="700" fill="#0f172a">Quality Delta per Phrase (Few-shot - Baseline)</text><g transform="translate(70,60)"><g transform="translate(0,280)" fill="none" font-size="10" font-family="sans-serif" text-anchor="middle"><path class="domain" stroke="currentColor" d="M0.5,6V0.5H880.5V6"></path><g class="tick" opacity="1" transform="translate(165,0)"><line stroke="currentColor" y2="6"></line><text fill="currentColor" y="9" dy="0.71em" transform="rotate(-35)" style="text-anchor: end;">API Gateway</text></g><g class="tick" opacity="1" transform="translate(440,0)"><line stroke="currentColor" y2="6"></line><text fill="currentColor" y="9" dy="0.71em" transform="rotate(-35)" style="text-anchor: end;">machine learning</text></g><g class="tick" opacity="1" transform="translate(715,0)"><line stroke="currentColor" y2="6"></line><text fill="currentColor" y="9" dy="0.71em" transform="rotate(-35)" style="text-anchor: end;">hello world</text></g></g><g fill="none" font-size="10" font-family="sans-serif" text-anchor="end"><path class="domain" stroke="currentColor" d="M-6,280.5H0.5V0.5H-6"></path><g class="tick" opacity="1" transform="translate(0,280.5)"><line stroke="currentColor" x2="-6"></line><text fill="currentColor" x="-9" dy="0.32em">−5</text></g><g class="tick" opacity="1" transform="translate(0,258.96153846153845)"><line stroke="currentColor" x2="-6"></line><text fill="currentColor" x="-9" dy="0.32em">−4</text></g><g class="tick" opacity="1" transform="translate(0,237.42307692307693)"><line stroke="currentColor" x2="-6"></line><text fill="currentColor" x="-9" dy="0.32em">−3</text></g><g class="tick" opacity="1" transform="translate(0,215.88461538461536)"><line stroke="currentColor" x2="-6"></line><text fill="currentColor" x="-9" dy="0.32em">−2</text></g><g class="tick" opacity="1" transform="translate(0,194.34615384615384)"><line stroke="currentColor" x2="-6"></line><text fill="currentColor" x="-9" dy="0.32em">−1</text></g><g class="tick" opacity="1" transform="translate(0,172.80769230769232)"><line stroke="currentColor" x2="-6"></line><text fill="currentColor" x="-9" dy="0.32em">0</text></g><g class="tick" opacity="1" transform="translate(0,151.26923076923077)"><line stroke="currentColor" x2="-6"></line><text fill="currentColor" x="-9" dy="0.32em">1</text></g><g class="tick" opacity="1" transform="translate(0,129.73076923076923)"><line stroke="currentColor" x2="-6"></line><text fill="currentColor" x="-9" dy="0.32em">2</text></g><g class="tick" opacity="1" transform="translate(0,108.19230769230768)"><line stroke="currentColor" x2="-6"></line><text fill="currentColor" x="-9" dy="0.32em">3</text></g><g class="tick" opacity="1" transform="translate(0,86.65384615384616)"><line stroke="currentColor" x2="-6"></line><text fill="currentColor" x="-9" dy="0.32em">4</text></g><g class="tick" opacity="1" transform="translate(0,65.1153846153846)"><line stroke="currentColor" x2="-6"></line><text fill="currentColor" x="-9" dy="0.32em">5</text></g><g class="tick" opacity="1" transform="translate(0,43.57692307692308)"><line stroke="currentColor" x2="-6"></line><text fill="currentColor" x="-9" dy="0.32em">6</text></g><g class="tick" opacity="1" transform="translate(0,22.038461538461526)"><line stroke="currentColor" x2="-6"></line><text fill="currentColor" x="-9" dy="0.32em">7</text></g><g class="tick" opacity="1" transform="translate(0,0.5)"><line stroke="currentColor" x2="-6"></line><text fill="currentColor" x="-9" dy="0.32em">8</text></g></g><rect x="55" y="43.07692307692308" width="220" height="129.23076923076923" fill="#16a34a" rx="4"></rect><rect x="330" y="172.30769230769232" width="220" height="0" fill="#16a34a" rx="4"></rect><rect x="605" y="172.30769230769232" width="220" height="107.69230769230768" fill="#dc2626" rx="4"></rect><line x1="0" x2="880" y1="172.30769230769232" y2="172.30769230769232" stroke="#64748b" stroke-dasharray="4 4"></line></g></svg>