<svg xmlns="http://www.w3.org/2000/svg" width="980" height="500" style="background: rgb(255, 255, 255);"><text x="490" y="30" text-anchor="middle" font-size="16" font-weight="700" fill="#0f172a">Gain vs Extra Tokens Scatter (exp_benchmark_50_20260209_140431)</text><g transform="translate(80,60)"><g transform="translate(0,370)" fill="none" font-size="10" font-family="sans-serif" text-anchor="middle"><path class="domain" stroke="currentColor" d="M0.5,6V0.5H860.5V6"></path><g class="tick" opacity="1" transform="translate(0.5,0)"><line stroke="currentColor" y2="6"></line><text fill="currentColor" y="9" dy="0.71em">−50</text></g><g class="tick" opacity="1" transform="translate(96.05555555555556,0)"><line stroke="currentColor" y2="6"></line><text fill="currentColor" y="9" dy="0.71em">0</text></g><g class="tick" opacity="1" transform="translate(191.61111111111111,0)"><line stroke="currentColor" y2="6"></line><text fill="currentColor" y="9" dy="0.71em">50</text></g><g class="tick" opacity="1" transform="translate(287.16666666666663,0)"><line stroke="currentColor" y2="6"></line><text fill="currentColor" y="9" dy="0.71em">100</text></g><g class="tick" opacity="1" transform="translate(382.72222222222223,0)"><line stroke="currentColor" y2="6"></line><text fill="currentColor" y="9" dy="0.71em">150</text></g><g class="tick" opacity="1" transform="translate(478.27777777777777,0)"><line stroke="currentColor" y2="6"></line><text fill="currentColor" y="9" dy="0.71em">200</text></g><g class="tick" opacity="1" transform="translate(573.8333333333333,0)"><line stroke="currentColor" y2="6"></line><text fill="currentColor" y="9" dy="0.71em">250</text></g><g class="tick" opacity="1" transform="translate(669.3888888888889,0)"><line stroke="currentColor" y2="6"></line><text fill="currentColor" y="9" dy="0.71em">300</text></g><g class="tick" opacity="1" transform="translate(764.9444444444445,0)"><line stroke="currentColor" y2="6"></line><text fill="currentColor" y="9" dy="0.71em">350</text></g><g class="tick" opacity="1" transform="translate(860.5,0)"><line stroke="currentColor" y2="6"></line><text fill="currentColor" y="9" dy="0.71em">400</text></g></g><g fill="none" font-size="10" font-family="sans-serif" text-anchor="end"><path class="domain" stroke="currentColor" d="M-6,370.5H0.5V0.5H-6"></path><g class="tick" opacity="1" transform="translate(0,370.5)"><line stroke="currentColor" x2="-6"></line><text fill="currentColor" x="-9" dy="0.32em">−5</text></g><g class="tick" opacity="1" transform="translate(0,333.5)"><line stroke="currentColor" x2="-6"></line><text fill="currentColor" x="-9" dy="0.32em">−4</text></g><g class="tick" opacity="1" transform="translate(0,296.5)"><line stroke="currentColor" x2="-6"></line><text fill="currentColor" x="-9" dy="0.32em">−3</text></g><g class="tick" opacity="1" transform="translate(0,259.5)"><line stroke="currentColor" x2="-6"></line><text fill="currentColor" x="-9" dy="0.32em">−2</text></g><g class="tick" opacity="1" transform="translate(0,222.5)"><line stroke="currentColor" x2="-6"></line><text fill="currentColor" x="-9" dy="0.32em">−1</text></g><g class="tick" opacity="1" transform="translate(0,185.5)"><line stroke="currentColor" x2="-6"></line><text fill="currentColor" x="-9" dy="0.32em">0</text></g><g class="tick" opacity="1" transform="translate(0,148.5)"><line stroke="currentColor" x2="-6"></line><text fill="currentColor" x="-9" dy="0.32em">1</text></g><g class="tick" opacity="1" transform="translate(0,111.50000000000001)"><line stroke="currentColor" x2="-6"></line><text fill="currentColor" x="-9" dy="0.32em">2</text></g><g class="tick" opacity="1" transform="translate(0,74.49999999999999)"><line stroke="currentColor" x2="-6"></line><text fill="currentColor" x="-9" dy="0.32em">3</text></g><g class="tick" opacity="1" transform="translate(0,37.49999999999999)"><line stroke="currentColor" x2="-6"></line><text fill="currentColor" x="-9" dy="0.32em">4</text></g><g class="tick" opacity="1" transform="translate(0,0.5)"><line stroke="currentColor" x2="-6"></line><text fill="currentColor" x="-9" dy="0.32em">5</text></g></g><line x1="0" x2="860" y1="185" y2="185" stroke="#cbd5e1" stroke-dasharray="4 4"></line><line x1="95.55555555555556" x2="95.55555555555556" y1="0" y2="370" stroke="#cbd5e1" stroke-dasharray="4 4"></line><circle cx="95.55555555555556" cy="185" r="6" fill="#16a34a" opacity="0.6"></circle><circle cx="831.2186666666668" cy="115.44000000000018" r="20" fill="#16a34a" opacity="0.6"></circle><text x="103.55555555555556" y="179" font-size="11" fill="#0f172a">baseline</text><text x="839.2186666666668" y="109.44000000000018" font-size="11" fill="#0f172a">fewshot_r1</text></g><text x="490" y="490" text-anchor="middle" font-size="12" fill="#475569">Delta Tokens vs Baseline</text><text transform="rotate(-90)" x="-250" y="18" text-anchor="middle" font-size="12" fill="#475569">Delta Quality vs Baseline</text></svg>