<svg xmlns="http://www.w3.org/2000/svg" width="980" height="460" style="background: rgb(255, 255, 255);"><text x="490" y="30" text-anchor="middle" font-size="16" font-weight="700" fill="#0f172a">Local Quality Trend by Round (exp_round_real_v2_20260206)</text><g transform="translate(70,60)"><g transform="translate(0,330)" fill="none" font-size="10" font-family="sans-serif" text-anchor="middle"><path class="domain" stroke="currentColor" d="M0.5,6V0.5H870.5V6"></path><g class="tick" opacity="1" transform="translate(0.5,0)"><line stroke="currentColor" y2="6"></line><text fill="currentColor" y="9" dy="0.71em">0</text></g><g class="tick" opacity="1" transform="translate(290.5,0)"><line stroke="currentColor" y2="6"></line><text fill="currentColor" y="9" dy="0.71em">1</text></g><g class="tick" opacity="1" transform="translate(580.5,0)"><line stroke="currentColor" y2="6"></line><text fill="currentColor" y="9" dy="0.71em">2</text></g><g class="tick" opacity="1" transform="translate(870.5,0)"><line stroke="currentColor" y2="6"></line><text fill="currentColor" y="9" dy="0.71em">3</text></g></g><g fill="none" font-size="10" font-family="sans-serif" text-anchor="end"><path class="domain" stroke="currentColor" d="M-6,330.5H0.5V0.5H-6"></path><g class="tick" opacity="1" transform="translate(0,330.5)"><line stroke="currentColor" x2="-6"></line><text fill="currentColor" x="-9" dy="0.32em">0</text></g><g class="tick" opacity="1" transform="translate(0,297.5)"><line stroke="currentColor" x2="-6"></line><text fill="currentColor" x="-9" dy="0.32em">10</text></g><g class="tick" opacity="1" transform="translate(0,264.5)"><line stroke="currentColor" x2="-6"></line><text fill="currentColor" x="-9" dy="0.32em">20</text></g><g class="tick" opacity="1" transform="translate(0,231.49999999999997)"><line stroke="currentColor" x2="-6"></line><text fill="currentColor" x="-9" dy="0.32em">30</text></g><g class="tick" opacity="1" transform="translate(0,198.5)"><line stroke="currentColor" x2="-6"></line><text fill="currentColor" x="-9" dy="0.32em">40</text></g><g class="tick" opacity="1" transform="translate(0,165.5)"><line stroke="currentColor" x2="-6"></line><text fill="currentColor" x="-9" dy="0.32em">50</text></g><g class="tick" opacity="1" transform="translate(0,132.5)"><line stroke="currentColor" x2="-6"></line><text fill="currentColor" x="-9" dy="0.32em">60</text></g><g class="tick" opacity="1" transform="translate(0,99.50000000000001)"><line stroke="currentColor" x2="-6"></line><text fill="currentColor" x="-9" dy="0.32em">70</text></g><g class="tick" opacity="1" transform="translate(0,66.49999999999999)"><line stroke="currentColor" x2="-6"></line><text fill="currentColor" x="-9" dy="0.32em">80</text></g><g class="tick" opacity="1" transform="translate(0,33.49999999999999)"><line stroke="currentColor" x2="-6"></line><text fill="currentColor" x="-9" dy="0.32em">90</text></g><g class="tick" opacity="1" transform="translate(0,0.5)"><line stroke="currentColor" x2="-6"></line><text fill="currentColor" x="-9" dy="0.32em">100</text></g></g><path fill="none" stroke="#2563eb" stroke-width="3" d="M0,72.6L290,66L580,72.6L870,72.6"></path><circle class="quality" cx="0" cy="72.6" r="5" fill="#2563eb"></circle><circle class="quality" cx="290" cy="65.99999999999999" r="5" fill="#2563eb"></circle><circle class="quality" cx="580" cy="72.6" r="5" fill="#2563eb"></circle><circle class="quality" cx="870" cy="72.6" r="5" fill="#2563eb"></circle><text class="quality-label" x="0" y="62.599999999999994" text-anchor="middle" font-size="11" fill="#0f172a">78.0</text><text class="quality-label" x="290" y="55.999999999999986" text-anchor="middle" font-size="11" fill="#0f172a">80.0</text><text class="quality-label" x="580" y="62.599999999999994" text-anchor="middle" font-size="11" fill="#0f172a">78.0</text><text class="quality-label" x="870" y="62.599999999999994" text-anchor="middle" font-size="11" fill="#0f172a">78.0</text></g><text x="490" y="448" text-anchor="middle" font-size="12" fill="#64748b">Round Number</text><text transform="rotate(-90)" x="-230" y="18" text-anchor="middle" font-size="12" fill="#64748b">Average Quality Score</text></svg>