<svg xmlns="http://www.w3.org/2000/svg" width="1400" height="820" style="background: rgb(255, 255, 255);"><defs><filter id="shadow" x="-20%" y="-20%" width="160%" height="160%"><feDropShadow dx="0" dy="2" stdDeviation="2" flood-color="#0f172a" flood-opacity="0.12"></feDropShadow></filter></defs><text x="36" y="42" font-size="30" font-weight="800" fill="#111827">阶段影响判断（单案例）</text><text x="36" y="68" font-size="15" fill="#6b7280">V1/V2 稳态 + V3 注入触发有效变化</text><text x="80" y="206" font-size="30" font-weight="800" fill="#111827">V1 静态模板</text><rect x="380" y="172" width="760" height="38" rx="8" fill="#e5e7eb"></rect><rect x="380" y="172" width="0" height="38" rx="8" fill="#0ea5e9"></rect><text x="1158" y="200" font-size="24" font-weight="700" fill="#111827">结构不变</text><text x="80" y="376" font-size="30" font-weight="800" fill="#111827">V2 程序化参数</text><rect x="380" y="342" width="760" height="38" rx="8" fill="#e5e7eb"></rect><rect x="380" y="342" width="76" height="38" rx="8" fill="#f59e0b"></rect><text x="1158" y="370" font-size="24" font-weight="700" fill="#111827">参数微调</text><text x="80" y="546" font-size="30" font-weight="800" fill="#111827">V3 动态注入</text><rect x="380" y="512" width="760" height="38" rx="8" fill="#e5e7eb"></rect><rect x="380" y="512" width="684" height="38" rx="8" fill="#22c55e"></rect><text x="1158" y="540" font-size="24" font-weight="700" fill="#111827">quality +9</text><rect x="60" y="620" width="1280" height="150" rx="12" fill="#fefce8" stroke="#facc15"></rect><text x="90" y="674" font-size="23" font-weight="700" fill="#854d0e">证据1: basePromptTokens 274 -&gt; 274 (不变)</text><text x="90" y="710" font-size="23" font-weight="700" fill="#854d0e">证据2: 注入 tokens 0 -&gt; 258，countUsed=1</text><text x="90" y="746" font-size="23" font-weight="700" fill="#854d0e">证据3: 输出质量 64 -&gt; 73，与 V3 同步出现</text></svg>