<svg xmlns="http://www.w3.org/2000/svg" width="1020" height="480" style="background: rgb(255, 255, 255);"><text x="510" y="30" text-anchor="middle" font-size="16" font-weight="700" fill="#0f172a">Quality vs Tokens by Round (exp_round_local20plus_20260206_073637)</text><g transform="translate(70,60)"><g transform="translate(0,350)" fill="none" font-size="10" font-family="sans-serif" text-anchor="middle"><path class="domain" stroke="currentColor" d="M0.5,6V0.5H870.5V6"></path><g class="tick" opacity="1" transform="translate(0.5,0)"><line stroke="currentColor" y2="6"></line><text fill="currentColor" y="9" dy="0.71em">0</text></g><g class="tick" opacity="1" transform="translate(435.5,0)"><line stroke="currentColor" y2="6"></line><text fill="currentColor" y="9" dy="0.71em">1</text></g><g class="tick" opacity="1" transform="translate(870.5,0)"><line stroke="currentColor" y2="6"></line><text fill="currentColor" y="9" dy="0.71em">1</text></g></g><g fill="none" font-size="10" font-family="sans-serif" text-anchor="end"><path class="domain" stroke="currentColor" d="M-6,350.5H0.5V0.5H-6"></path><g class="tick" opacity="1" transform="translate(0,350.5)"><line stroke="currentColor" x2="-6"></line><text fill="currentColor" x="-9" dy="0.32em">0</text></g><g class="tick" opacity="1" transform="translate(0,315.5)"><line stroke="currentColor" x2="-6"></line><text fill="currentColor" x="-9" dy="0.32em">10</text></g><g class="tick" opacity="1" transform="translate(0,280.5)"><line stroke="currentColor" x2="-6"></line><text fill="currentColor" x="-9" dy="0.32em">20</text></g><g class="tick" opacity="1" transform="translate(0,245.49999999999997)"><line stroke="currentColor" x2="-6"></line><text fill="currentColor" x="-9" dy="0.32em">30</text></g><g class="tick" opacity="1" transform="translate(0,210.5)"><line stroke="currentColor" x2="-6"></line><text fill="currentColor" x="-9" dy="0.32em">40</text></g><g class="tick" opacity="1" transform="translate(0,175.5)"><line stroke="currentColor" x2="-6"></line><text fill="currentColor" x="-9" dy="0.32em">50</text></g><g class="tick" opacity="1" transform="translate(0,140.5)"><line stroke="currentColor" x2="-6"></line><text fill="currentColor" x="-9" dy="0.32em">60</text></g><g class="tick" opacity="1" transform="translate(0,105.50000000000001)"><line stroke="currentColor" x2="-6"></line><text fill="currentColor" x="-9" dy="0.32em">70</text></g><g class="tick" opacity="1" transform="translate(0,70.49999999999999)"><line stroke="currentColor" x2="-6"></line><text fill="currentColor" x="-9" dy="0.32em">80</text></g><g class="tick" opacity="1" transform="translate(0,35.49999999999999)"><line stroke="currentColor" x2="-6"></line><text fill="currentColor" x="-9" dy="0.32em">90</text></g><g class="tick" opacity="1" transform="translate(0,0.5)"><line stroke="currentColor" x2="-6"></line><text fill="currentColor" x="-9" dy="0.32em">100</text></g></g><g transform="translate(870,0)" fill="none" font-size="10" font-family="sans-serif" text-anchor="start"><path class="domain" stroke="currentColor" d="M6,350.5H0.5V0.5H6"></path><g class="tick" opacity="1" transform="translate(0,350.5)"><line stroke="currentColor" x2="6"></line><text fill="currentColor" x="9" dy="0.32em">0</text></g><g class="tick" opacity="1" transform="translate(0,311.6111111111111)"><line stroke="currentColor" x2="6"></line><text fill="currentColor" x="9" dy="0.32em">200</text></g><g class="tick" opacity="1" transform="translate(0,272.72222222222223)"><line stroke="currentColor" x2="6"></line><text fill="currentColor" x="9" dy="0.32em">400</text></g><g class="tick" opacity="1" transform="translate(0,233.83333333333337)"><line stroke="currentColor" x2="6"></line><text fill="currentColor" x="9" dy="0.32em">600</text></g><g class="tick" opacity="1" transform="translate(0,194.94444444444446)"><line stroke="currentColor" x2="6"></line><text fill="currentColor" x="9" dy="0.32em">800</text></g><g class="tick" opacity="1" transform="translate(0,156.05555555555554)"><line stroke="currentColor" x2="6"></line><text fill="currentColor" x="9" dy="0.32em">1,000</text></g><g class="tick" opacity="1" transform="translate(0,117.16666666666669)"><line stroke="currentColor" x2="6"></line><text fill="currentColor" x="9" dy="0.32em">1,200</text></g><g class="tick" opacity="1" transform="translate(0,78.27777777777777)"><line stroke="currentColor" x2="6"></line><text fill="currentColor" x="9" dy="0.32em">1,400</text></g><g class="tick" opacity="1" transform="translate(0,39.38888888888891)"><line stroke="currentColor" x2="6"></line><text fill="currentColor" x="9" dy="0.32em">1,600</text></g><g class="tick" opacity="1" transform="translate(0,0.5)"><line stroke="currentColor" x2="6"></line><text fill="currentColor" x="9" dy="0.32em">1,800</text></g></g><path fill="none" stroke="#2563eb" stroke-width="3" d="M0,98L870,72.333"></path><path fill="none" stroke="#f59e0b" stroke-width="3" d="M0,159.491L870,58.63"></path></g><g transform="translate(800, 56)"><rect x="0" y="0" width="12" height="12" fill="#2563eb"></rect><rect x="0" y="18" width="12" height="12" fill="#f59e0b"></rect><text x="18" y="10" font-size="12" fill="#0f172a">Quality</text><text x="18" y="28" font-size="12" fill="#0f172a">Tokens</text></g></svg>