<svg xmlns="http://www.w3.org/2000/svg" width="1280" height="720" style="background: rgb(255, 255, 255);"><text x="40" y="42" font-size="28" font-weight="700" fill="#0f172a">实验复现管线：run -&gt; export -&gt; chart -&gt; report</text><rect x="80" y="250" width="220" height="120" rx="14" fill="#dbeafe" stroke="#334155"></rect><text x="94" y="292" font-size="18" font-weight="700" fill="#0f172a">run_fewshot_rounds.js</text><text x="94" y="332" font-size="17" fill="#475569">输出: JSONL</text><line x1="300" y1="310" x2="360" y2="310" stroke="#64748b" stroke-width="3"></line><rect x="370" y="250" width="220" height="120" rx="14" fill="#ffedd5" stroke="#334155"></rect><text x="384" y="292" font-size="18" font-weight="700" fill="#0f172a">export_round_trend_dataset.js</text><text x="384" y="332" font-size="17" fill="#475569">输出: CSV/JSON + stats</text><line x1="590" y1="310" x2="680" y2="310" stroke="#64748b" stroke-width="3"></line><rect x="690" y="250" width="220" height="120" rx="14" fill="#ede9fe" stroke="#334155"></rect><text x="704" y="292" font-size="18" font-weight="700" fill="#0f172a">render_round_trend_charts.mjs</text><text x="704" y="332" font-size="17" fill="#475569">输出: SVG charts</text><line x1="910" y1="310" x2="970" y2="310" stroke="#64748b" stroke-width="3"></line><rect x="980" y="250" width="220" height="120" rx="14" fill="#dcfce7" stroke="#334155"></rect><text x="994" y="292" font-size="18" font-weight="700" fill="#0f172a">generate_round_kpi_report.js</text><text x="994" y="332" font-size="17" fill="#475569">输出: Markdown report</text><rect x="300" y="430" width="680" height="200" rx="16" fill="#f8fafc" stroke="#cbd5e1"></rect><text x="350" y="500" font-size="24" fill="#1f2937">数据集: 8+ CSV/JSON</text><text x="350" y="544" font-size="24" fill="#1f2937">图表: 6 SVG</text><text x="350" y="588" font-size="24" fill="#1f2937">报告: 1 KPI + 1 Full</text><text x="40" y="700" font-size="12" fill="#64748b">Source: scripts/run_fewshot_rounds.js and related exporters</text></svg>