<svg xmlns="http://www.w3.org/2000/svg" width="1280" height="720" style="background: rgb(255, 255, 255);"><text x="40" y="42" font-size="28" font-weight="700" fill="#0f172a">系统可观测覆盖：链路、数据、接口</text><text x="40" y="208" font-size="24" fill="#0f172a">生成链路阶段</text><rect x="180" y="170" width="840" height="56" rx="12" fill="#e2e8f0"></rect><rect x="180" y="170" width="700" height="56" rx="12" fill="#2563eb"></rect><text x="1044" y="208" font-size="22" font-weight="700" fill="#0f172a">10/12</text><text x="40" y="298" font-size="24" fill="#0f172a">核心 API 端点</text><rect x="180" y="260" width="840" height="56" rx="12" fill="#e2e8f0"></rect><rect x="180" y="260" width="798" height="56" rx="12" fill="#16a34a"></rect><text x="1044" y="298" font-size="22" font-weight="700" fill="#0f172a">19/20</text><text x="40" y="388" font-size="24" fill="#0f172a">数据库核心表</text><rect x="180" y="350" width="840" height="56" rx="12" fill="#e2e8f0"></rect><rect x="180" y="350" width="770" height="56" rx="12" fill="#ea580c"></rect><text x="1044" y="388" font-size="22" font-weight="700" fill="#0f172a">11/12</text><text x="40" y="478" font-size="24" fill="#0f172a">实验数据维度</text><rect x="180" y="440" width="840" height="56" rx="12" fill="#e2e8f0"></rect><rect x="180" y="440" width="840" height="56" rx="12" fill="#9333ea"></rect><text x="1044" y="478" font-size="22" font-weight="700" fill="#0f172a">6/6</text><text x="40" y="700" font-size="12" fill="#64748b">Source: Docs/SystemDevelopStatusDocs/API.md + BACKEND.md</text></svg>