<svg xmlns="http://www.w3.org/2000/svg" width="1280" height="720" style="background: rgb(247, 249, 252);"><rect x="16" y="16" width="1248" height="688" rx="18" fill="#FFFFFF" stroke="#E2E8F0"></rect><text x="44" y="62" font-family="'Noto Sans JP','Hiragino Sans','Yu Gothic',sans-serif" font-size="40" font-weight="800" fill="#1F2937">50サンプルベンチマーク設計</text><text x="44" y="92" font-family="'Noto Sans JP','Hiragino Sans','Yu Gothic',sans-serif" font-size="18" fill="#5B6475">実験ID: exp_benchmark_50_20260209_140431</text><path d="M-180,0A180,180,0,0,1,55.623,-171.19L21.631,-66.574A70,70,0,0,0,-70,0Z" transform="translate(380,370)" fill="#E7F0FF" stroke="#2563EB" stroke-width="2"></path><text x="562.0288237343632" y="237.74831823419353" text-anchor="middle" font-family="'Noto Sans JP','Hiragino Sans','Yu Gothic',sans-serif" font-size="18" font-weight="700" fill="#1D4ED8">日常語彙 15件</text><path d="M55.623,-171.19A180,180,0,0,1,55.623,171.19L21.631,66.574A70,70,0,0,0,21.631,-66.574Z" transform="translate(380,370)" fill="#E9F8EF" stroke="#16A34A" stroke-width="2"></path><text x="380" y="595" text-anchor="middle" font-family="'Noto Sans JP','Hiragino Sans','Yu Gothic',sans-serif" font-size="18" font-weight="700" fill="#15803D">技術用語 20件</text><path d="M55.623,171.19A180,180,0,0,1,-180,0L-70,0A70,70,0,0,0,21.631,66.574Z" transform="translate(380,370)" fill="#F3E8FF" stroke="#9333EA" stroke-width="2"></path><text x="197.9711762656368" y="237.74831823419356" text-anchor="middle" font-family="'Noto Sans JP','Hiragino Sans','Yu Gothic',sans-serif" font-size="18" font-weight="700" fill="#7E22CE">曖昧/複雑 15件</text><text x="380" y="362" text-anchor="middle" font-family="'JetBrains Mono','SFMono-Regular',monospace" font-size="34" font-weight="800" fill="#0F172A">50</text><text x="380" y="396" text-anchor="middle" font-family="'Noto Sans JP','Hiragino Sans','Yu Gothic',sans-serif" font-size="16" fill="#5B6475">総サンプル数</text><rect x="760" y="220" width="430" height="240" rx="14" fill="#EEF2F7" stroke="#64748B" stroke-width="2"></rect><text x="778" y="252" font-family="'Noto Sans JP','Hiragino Sans','Yu Gothic',sans-serif" font-size="20" font-weight="800" fill="#475569">設計ポイント</text><text x="778" y="280" font-family="'Noto Sans JP','Hiragino Sans','Yu Gothic',sans-serif" font-size="16" fill="#1F2937">・カテゴリ偏りを抑えた配分</text><text x="778" y="304" font-family="'Noto Sans JP','Hiragino Sans','Yu Gothic',sans-serif" font-size="16" fill="#1F2937">・口語/技術/複雑表現を網羅</text><text x="778" y="328" font-family="'Noto Sans JP','Hiragino Sans','Yu Gothic',sans-serif" font-size="16" fill="#1F2937">・few-shot効果の偏りを検証可能</text><text x="44" y="690" font-family="'Noto Sans JP','Hiragino Sans','Yu Gothic',sans-serif" font-size="12" fill="#64748B">出典: benchmark_phrases_50.txt</text></svg>