<svg xmlns="http://www.w3.org/2000/svg" width="1280" height="720" style="background: rgb(255, 255, 255);"><text x="40" y="42" font-size="28" font-weight="700" fill="#0f172a">Few-shot注入メカニズムと予算フォールバック</text><rect x="90" y="260" width="170" height="90" rx="12" fill="#dbeafe" stroke="#2563eb" stroke-width="2"/><text x="175" y="314" text-anchor="middle" font-size="24" font-weight="700" fill="#0f172a">入力フレーズ</text><line x1="268" y1="305" x2="292" y2="305" stroke="#64748b" stroke-width="2.2"/><rect x="300" y="260" width="170" height="90" rx="12" fill="#ede9fe" stroke="#7c3aed" stroke-width="2"/><text x="385" y="314" text-anchor="middle" font-size="24" font-weight="700" fill="#0f172a">サンプル検索</text><line x1="478" y1="305" x2="502" y2="305" stroke="#64748b" stroke-width="2.2"/><rect x="510" y="260" width="170" height="90" rx="12" fill="#fef3c7" stroke="#d97706" stroke-width="2"/><text x="595" y="314" text-anchor="middle" font-size="24" font-weight="700" fill="#0f172a">品質フィルタ</text><line x1="688" y1="305" x2="712" y2="305" stroke="#64748b" stroke-width="2.2"/><rect x="720" y="260" width="170" height="90" rx="12" fill="#fee2e2" stroke="#dc2626" stroke-width="2"/><text x="805" y="314" text-anchor="middle" font-size="24" font-weight="700" fill="#0f172a">予算チェック</text><line x1="898" y1="305" x2="922" y2="305" stroke="#64748b" stroke-width="2.2"/><rect x="930" y="260" width="170" height="90" rx="12" fill="#dcfce7" stroke="#16a34a" stroke-width="2"/><text x="1015" y="314" text-anchor="middle" font-size="24" font-weight="700" fill="#0f172a">注入実行</text><rect x="260" y="430" width="760" height="180" rx="16" fill="#f8fafc" stroke="#cbd5e1"/><text x="300" y="490" font-size="23" fill="#1f2937">- 予算超過時: 例示数を削減</text><text x="300" y="534" font-size="23" fill="#1f2937">- 予算超過時: 例示内容を短縮</text><text x="300" y="578" font-size="23" fill="#1f2937">- さらに超過時: 注入停止で標準生成へ戻す</text><text x="40" y="700" font-size="12" fill="#64748b">Source: 例示注入と予算制御仕様</text></svg>