<svg xmlns="http://www.w3.org/2000/svg" width="1280" height="720" style="background: rgb(255, 255, 255);"><text x="40" y="42" font-size="28" font-weight="700" fill="#0f172a">実験成果物カバレッジ：データ/図表/レポート</text><g transform="translate(0,580)" fill="none" font-size="10" font-family="sans-serif" text-anchor="middle"><path class="domain" stroke="currentColor" d="M250.5,6V0.5H1050.5V6"/><g class="tick" opacity="1" transform="translate(411.19402985074623,0)"><line stroke="currentColor" y2="6"/><text fill="currentColor" y="9" dy="0.71em">図表ファイル</text></g><g class="tick" opacity="1" transform="translate(650,0)"><line stroke="currentColor" y2="6"/><text fill="currentColor" y="9" dy="0.71em">Data Files</text></g><g class="tick" opacity="1" transform="translate(888.8059701492539,0)"><line stroke="currentColor" y2="6"/><text fill="currentColor" y="9" dy="0.71em">Reports</text></g></g><g transform="translate(250,0)" fill="none" font-size="10" font-family="sans-serif" text-anchor="end"><path class="domain" stroke="currentColor" d="M-6,580.5H0.5V160.5H-6"/><g class="tick" opacity="1" transform="translate(0,580.5)"><line stroke="currentColor" x2="-6"/><text fill="currentColor" x="-9" dy="0.32em">0</text></g><g class="tick" opacity="1" transform="translate(0,530.5)"><line stroke="currentColor" x2="-6"/><text fill="currentColor" x="-9" dy="0.32em">10</text></g><g class="tick" opacity="1" transform="translate(0,480.49999999999994)"><line stroke="currentColor" x2="-6"/><text fill="currentColor" x="-9" dy="0.32em">20</text></g><g class="tick" opacity="1" transform="translate(0,430.5)"><line stroke="currentColor" x2="-6"/><text fill="currentColor" x="-9" dy="0.32em">30</text></g><g class="tick" opacity="1" transform="translate(0,380.50000000000006)"><line stroke="currentColor" x2="-6"/><text fill="currentColor" x="-9" dy="0.32em">40</text></g><g class="tick" opacity="1" transform="translate(0,330.5)"><line stroke="currentColor" x2="-6"/><text fill="currentColor" x="-9" dy="0.32em">50</text></g><g class="tick" opacity="1" transform="translate(0,280.5)"><line stroke="currentColor" x2="-6"/><text fill="currentColor" x="-9" dy="0.32em">60</text></g><g class="tick" opacity="1" transform="translate(0,230.5)"><line stroke="currentColor" x2="-6"/><text fill="currentColor" x="-9" dy="0.32em">70</text></g><g class="tick" opacity="1" transform="translate(0,180.50000000000003)"><line stroke="currentColor" x2="-6"/><text fill="currentColor" x="-9" dy="0.32em">80</text></g></g><rect x="333.58208955223876" y="230" width="155.22388059701495" height="350" fill="#2563eb"/><text x="411.19402985074623" y="218" text-anchor="middle" font-size="20" font-weight="700" fill="#0f172a">70</text><rect x="572.3880597014925" y="365" width="155.22388059701495" height="215" fill="#16a34a"/><text x="650" y="353" text-anchor="middle" font-size="20" font-weight="700" fill="#0f172a">43</text><rect x="811.1940298507463" y="500" width="155.22388059701495" height="80" fill="#ea580c"/><text x="888.8059701492539" y="488" text-anchor="middle" font-size="20" font-weight="700" fill="#0f172a">16</text><text x="40" y="700" font-size="12" fill="#64748b">Data: filesystem counts under Docs/TestDocs</text></svg>