<svg xmlns="http://www.w3.org/2000/svg" width="1600" height="900" style="background: rgb(248, 250, 252); font-family: &quot;Microsoft YaHei&quot;, &quot;PingFang SC&quot;, &quot;SimHei&quot;, sans-serif;"><text x="48" y="62" font-size="44" font-weight="700" fill="#0f172a">标准化路径：OTel + GenAI SemConv + OpenInference</text><text x="48" y="98" font-size="20" fill="#475569">目标：跨框架、跨模型、跨供应商统一语义</text><rect x="100" y="210" width="420" height="460" rx="16" fill="#dbeafe" stroke="#2563eb" stroke-width="2"></rect><text x="120" y="246" font-size="26" font-weight="700" fill="#1e3a8a">OpenTelemetry</text><text x="130" y="286" font-size="29" fill="#1e3a8a">- Trace DAG / Span</text><text x="130" y="358" font-size="29" fill="#1e3a8a">- Context Propagation</text><text x="130" y="430" font-size="29" fill="#1e3a8a">- Metrics + Logs</text><text x="130" y="502" font-size="29" fill="#1e3a8a">- 跨语言生态</text><rect x="590" y="210" width="420" height="460" rx="16" fill="#dcfce7" stroke="#16a34a" stroke-width="2"></rect><text x="610" y="246" font-size="26" font-weight="700" fill="#14532d">GenAI SemConv</text><text x="620" y="286" font-size="26" fill="#14532d">- gen_ai.provider.name</text><text x="620" y="358" font-size="26" fill="#14532d">- gen_ai.request.model</text><text x="620" y="430" font-size="26" fill="#14532d">- token / usage / error</text><text x="620" y="502" font-size="26" fill="#14532d">- conversation / output attrs</text><rect x="1080" y="210" width="420" height="460" rx="16" fill="#fff7ed" stroke="#ea580c" stroke-width="2"></rect><text x="1100" y="246" font-size="26" font-weight="700" fill="#9a3412">OpenInference</text><text x="1110" y="286" font-size="26" fill="#9a3412">- LLM/Tool/Chain span 语义</text><text x="1110" y="358" font-size="26" fill="#9a3412">- query -&gt; retrieve -&gt; synthesize</text><text x="1110" y="430" font-size="26" fill="#9a3412">- 评测与追踪协同</text><text x="1110" y="502" font-size="26" fill="#9a3412">- Agent 过程可回放</text><line x1="520" y1="440" x2="590" y2="440" stroke="#64748b" stroke-width="3"></line><line x1="1010" y1="440" x2="1080" y2="440" stroke="#64748b" stroke-width="3"></line><text x="48" y="872" font-size="13" fill="#64748b">Standards reduce vendor lock-in and improve incident triage efficiency</text></svg>