<svg xmlns="http://www.w3.org/2000/svg" width="1600" height="900" style="background: rgb(248, 250, 252); font-family: &quot;Microsoft YaHei&quot;, &quot;PingFang SC&quot;, &quot;SimHei&quot;, sans-serif;"><text x="48" y="62" font-size="44" font-weight="700" fill="#0f172a">实施路线图：2周 / 4周 / 8周</text><text x="48" y="98" font-size="20" fill="#475569">将可观测能力转化为稳定的工程收益</text><rect x="90" y="220" width="430" height="520" rx="16" fill="#dbeafe" stroke="#2563eb" stroke-width="2"></rect><text x="110" y="256" font-size="26" font-weight="700" fill="#0f172a">2周（稳态）</text><text x="114" y="300" font-size="28" fill="#1e293b">- 统一 trace_id</text><text x="114" y="390" font-size="28" fill="#1e293b">- SLO API + 告警</text><text x="114" y="480" font-size="28" fill="#1e293b">- 阶段耗时标准化</text><text x="114" y="570" font-size="28" fill="#1e293b">- 错误快照自动入库</text><line x1="520" y1="480" x2="560" y2="480" stroke="#64748b" stroke-width="2.4"></line><rect x="560" y="220" width="430" height="520" rx="16" fill="#dcfce7" stroke="#16a34a" stroke-width="2"></rect><text x="580" y="256" font-size="26" font-weight="700" fill="#0f172a">4周（归因）</text><text x="584" y="300" font-size="28" fill="#1e293b">- Prompt/参数版本化</text><text x="584" y="390" font-size="28" fill="#1e293b">- 质量漂移监控</text><text x="584" y="480" font-size="28" fill="#1e293b">- 成本效率看板</text><text x="584" y="570" font-size="28" fill="#1e293b">- 队列治理指标</text><line x1="990" y1="480" x2="1030" y2="480" stroke="#64748b" stroke-width="2.4"></line><rect x="1030" y="220" width="430" height="520" rx="16" fill="#fff7ed" stroke="#ea580c" stroke-width="2"></rect><text x="1050" y="256" font-size="26" font-weight="700" fill="#0f172a">8周（闭环）</text><text x="1054" y="300" font-size="28" fill="#1e293b">- 实验包一键导出</text><text x="1054" y="390" font-size="28" fill="#1e293b">- 自动回归门禁</text><text x="1054" y="480" font-size="28" fill="#1e293b">- 自愈策略编排</text><text x="1054" y="570" font-size="28" fill="#1e293b">- 评审可信度建模</text><text x="48" y="872" font-size="13" fill="#64748b">Execution cadence aligned with AI_Observability_Roadmap.md</text></svg>