<svg xmlns="http://www.w3.org/2000/svg" width="1600" height="900" style="background: rgb(248, 250, 252); font-family: &quot;Microsoft YaHei&quot;, &quot;PingFang SC&quot;, &quot;SimHei&quot;, sans-serif;"><text x="48" y="62" font-size="44" font-weight="700" fill="#0f172a">当前完成度：可观测能力覆盖评分</text><text x="48" y="98" font-size="20" fill="#475569">按“采集、追踪、评估、治理”四个维度</text><text x="70" y="236" font-size="30" font-weight="700" fill="#0f172a">链路采集</text><rect x="320" y="200" width="980" height="48" rx="12" fill="#e2e8f0"></rect><rect x="320" y="200" width="784" height="48" rx="12" fill="#2563eb"></rect><text x="1330" y="235" font-size="26" font-weight="700" fill="#2563eb">8/10</text><text x="70" y="354" font-size="30" font-weight="700" fill="#0f172a">质量评估</text><rect x="320" y="318" width="980" height="48" rx="12" fill="#e2e8f0"></rect><rect x="320" y="318" width="762.2222222222223" height="48" rx="12" fill="#16a34a"></rect><text x="1330" y="353" font-size="26" font-weight="700" fill="#16a34a">7/9</text><text x="70" y="472" font-size="30" font-weight="700" fill="#0f172a">实验可复现</text><rect x="320" y="436" width="980" height="48" rx="12" fill="#e2e8f0"></rect><rect x="320" y="436" width="735" height="48" rx="12" fill="#7c3aed"></rect><text x="1330" y="471" font-size="26" font-weight="700" fill="#7c3aed">6/8</text><text x="70" y="590" font-size="30" font-weight="700" fill="#0f172a">运营治理</text><rect x="320" y="554" width="980" height="48" rx="12" fill="#e2e8f0"></rect><rect x="320" y="554" width="435.55555555555554" height="48" rx="12" fill="#ea580c"></rect><text x="1330" y="589" font-size="26" font-weight="700" fill="#ea580c">4/9</text><text x="70" y="708" font-size="30" font-weight="700" fill="#0f172a">故障自愈</text><rect x="320" y="672" width="980" height="48" rx="12" fill="#e2e8f0"></rect><rect x="320" y="672" width="367.5" height="48" rx="12" fill="#dc2626"></rect><text x="1330" y="707" font-size="26" font-weight="700" fill="#dc2626">3/8</text><text x="48" y="872" font-size="13" fill="#64748b">Assessment baseline for roadmap prioritization</text></svg>