<svg xmlns="http://www.w3.org/2000/svg" width="920" height="420" style="background: rgb(255, 255, 255);"><text x="460" y="28" text-anchor="middle" font-size="16" font-weight="700" fill="#0f172a">Average Quality Score</text><g transform="translate(70,60)"><g transform="translate(0,300)" fill="none" font-size="10" font-family="sans-serif" text-anchor="middle"><path class="domain" stroke="currentColor" d="M0.5,6V0.5H810.5V6"></path><g class="tick" opacity="1" transform="translate(228.91304347826085,0)"><line stroke="currentColor" y2="6"></line><text fill="currentColor" y="9" dy="0.71em">Baseline</text></g><g class="tick" opacity="1" transform="translate(581.0869565217391,0)"><line stroke="currentColor" y2="6"></line><text fill="currentColor" y="9" dy="0.71em">Few-shot</text></g></g><g fill="none" font-size="10" font-family="sans-serif" text-anchor="end"><path class="domain" stroke="currentColor" d="M-6,300.5H0.5V0.5H-6"></path><g class="tick" opacity="1" transform="translate(0,300.5)"><line stroke="currentColor" x2="-6"></line><text fill="currentColor" x="-9" dy="0.32em">0</text></g><g class="tick" opacity="1" transform="translate(0,267.16666666666663)"><line stroke="currentColor" x2="-6"></line><text fill="currentColor" x="-9" dy="0.32em">10</text></g><g class="tick" opacity="1" transform="translate(0,233.83333333333334)"><line stroke="currentColor" x2="-6"></line><text fill="currentColor" x="-9" dy="0.32em">20</text></g><g class="tick" opacity="1" transform="translate(0,200.50000000000003)"><line stroke="currentColor" x2="-6"></line><text fill="currentColor" x="-9" dy="0.32em">30</text></g><g class="tick" opacity="1" transform="translate(0,167.16666666666669)"><line stroke="currentColor" x2="-6"></line><text fill="currentColor" x="-9" dy="0.32em">40</text></g><g class="tick" opacity="1" transform="translate(0,133.83333333333331)"><line stroke="currentColor" x2="-6"></line><text fill="currentColor" x="-9" dy="0.32em">50</text></g><g class="tick" opacity="1" transform="translate(0,100.50000000000001)"><line stroke="currentColor" x2="-6"></line><text fill="currentColor" x="-9" dy="0.32em">60</text></g><g class="tick" opacity="1" transform="translate(0,67.16666666666666)"><line stroke="currentColor" x2="-6"></line><text fill="currentColor" x="-9" dy="0.32em">70</text></g><g class="tick" opacity="1" transform="translate(0,33.83333333333335)"><line stroke="currentColor" x2="-6"></line><text fill="currentColor" x="-9" dy="0.32em">80</text></g><g class="tick" opacity="1" transform="translate(0,0.5)"><line stroke="currentColor" x2="-6"></line><text fill="currentColor" x="-9" dy="0.32em">90</text></g></g><g stroke="#e5e7eb"><line x1="0" x2="810" y1="300" y2="300"></line><line x1="0" x2="810" y1="233.33333333333334" y2="233.33333333333334"></line><line x1="0" x2="810" y1="166.66666666666669" y2="166.66666666666669"></line><line x1="0" x2="810" y1="100.00000000000001" y2="100.00000000000001"></line><line x1="0" x2="810" y1="33.33333333333335" y2="33.33333333333335"></line></g><rect x="105.65217391304344" y="204.58333333333334" width="246.5217391304348" height="95.41666666666666" fill="#2563eb" rx="6"></rect><rect x="457.82608695652175" y="39.16666666666666" width="246.5217391304348" height="260.83333333333337" fill="#16a34a" rx="6"></rect><text class="bar-label" x="228.91304347826085" y="196.58333333333334" text-anchor="middle" font-size="12" fill="#0f172a">28.6</text><text class="bar-label" x="581.0869565217391" y="31.166666666666657" text-anchor="middle" font-size="12" fill="#0f172a">78.3</text></g><text x="70" y="408" font-size="12" fill="#64748b">Quality Score</text></svg>