<svg xmlns="http://www.w3.org/2000/svg" width="1080" height="480" style="background: rgb(255, 255, 255);"><text x="540" y="30" text-anchor="middle" font-size="16" font-weight="700" fill="#0f172a">Few-shot Gain &amp; Efficiency (exp_benchmark_50_20260209_140431)</text><g transform="translate(70,70)"><g transform="translate(0,330)" fill="none" font-size="10" font-family="sans-serif" text-anchor="middle"><path class="domain" stroke="currentColor" d="M0.5,6V0.5H930.5V6"></path><g class="tick" opacity="1" transform="translate(258.33333333333337,0)"><line stroke="currentColor" y2="6"></line><text fill="currentColor" y="9" dy="0.71em">baseline</text></g><g class="tick" opacity="1" transform="translate(671.6666666666667,0)"><line stroke="currentColor" y2="6"></line><text fill="currentColor" y="9" dy="0.71em">fewshot_r1</text></g></g><g fill="none" font-size="10" font-family="sans-serif" text-anchor="end"><path class="domain" stroke="currentColor" d="M-6,330.5H0.5V0.5H-6"></path><g class="tick" opacity="1" transform="translate(0,330.5)"><line stroke="currentColor" x2="-6"></line><text fill="currentColor" x="-9" dy="0.32em">−5</text></g><g class="tick" opacity="1" transform="translate(0,297.5)"><line stroke="currentColor" x2="-6"></line><text fill="currentColor" x="-9" dy="0.32em">−4</text></g><g class="tick" opacity="1" transform="translate(0,264.5)"><line stroke="currentColor" x2="-6"></line><text fill="currentColor" x="-9" dy="0.32em">−3</text></g><g class="tick" opacity="1" transform="translate(0,231.49999999999997)"><line stroke="currentColor" x2="-6"></line><text fill="currentColor" x="-9" dy="0.32em">−2</text></g><g class="tick" opacity="1" transform="translate(0,198.5)"><line stroke="currentColor" x2="-6"></line><text fill="currentColor" x="-9" dy="0.32em">−1</text></g><g class="tick" opacity="1" transform="translate(0,165.5)"><line stroke="currentColor" x2="-6"></line><text fill="currentColor" x="-9" dy="0.32em">0</text></g><g class="tick" opacity="1" transform="translate(0,132.5)"><line stroke="currentColor" x2="-6"></line><text fill="currentColor" x="-9" dy="0.32em">1</text></g><g class="tick" opacity="1" transform="translate(0,99.50000000000001)"><line stroke="currentColor" x2="-6"></line><text fill="currentColor" x="-9" dy="0.32em">2</text></g><g class="tick" opacity="1" transform="translate(0,66.49999999999999)"><line stroke="currentColor" x2="-6"></line><text fill="currentColor" x="-9" dy="0.32em">3</text></g><g class="tick" opacity="1" transform="translate(0,33.49999999999999)"><line stroke="currentColor" x2="-6"></line><text fill="currentColor" x="-9" dy="0.32em">4</text></g><g class="tick" opacity="1" transform="translate(0,0.5)"><line stroke="currentColor" x2="-6"></line><text fill="currentColor" x="-9" dy="0.32em">5</text></g></g><g transform="translate(930,0)" fill="none" font-size="10" font-family="sans-serif" text-anchor="start"><path class="domain" stroke="currentColor" d="M6,330.5H0.5V0.5H6"></path><g class="tick" opacity="1" transform="translate(0,330.5)"><line stroke="currentColor" x2="6"></line><text fill="currentColor" x="9" dy="0.32em">−5</text></g><g class="tick" opacity="1" transform="translate(0,297.5)"><line stroke="currentColor" x2="6"></line><text fill="currentColor" x="9" dy="0.32em">−4</text></g><g class="tick" opacity="1" transform="translate(0,264.5)"><line stroke="currentColor" x2="6"></line><text fill="currentColor" x="9" dy="0.32em">−3</text></g><g class="tick" opacity="1" transform="translate(0,231.49999999999997)"><line stroke="currentColor" x2="6"></line><text fill="currentColor" x="9" dy="0.32em">−2</text></g><g class="tick" opacity="1" transform="translate(0,198.5)"><line stroke="currentColor" x2="6"></line><text fill="currentColor" x="9" dy="0.32em">−1</text></g><g class="tick" opacity="1" transform="translate(0,165.5)"><line stroke="currentColor" x2="6"></line><text fill="currentColor" x="9" dy="0.32em">0</text></g><g class="tick" opacity="1" transform="translate(0,132.5)"><line stroke="currentColor" x2="6"></line><text fill="currentColor" x="9" dy="0.32em">1</text></g><g class="tick" opacity="1" transform="translate(0,99.50000000000001)"><line stroke="currentColor" x2="6"></line><text fill="currentColor" x="9" dy="0.32em">2</text></g><g class="tick" opacity="1" transform="translate(0,66.49999999999999)"><line stroke="currentColor" x2="6"></line><text fill="currentColor" x="9" dy="0.32em">3</text></g><g class="tick" opacity="1" transform="translate(0,33.49999999999999)"><line stroke="currentColor" x2="6"></line><text fill="currentColor" x="9" dy="0.32em">4</text></g><g class="tick" opacity="1" transform="translate(0,0.5)"><line stroke="currentColor" x2="6"></line><text fill="currentColor" x="9" dy="0.32em">5</text></g></g><line x1="0" x2="930" y1="165" y2="165" stroke="#94a3b8" stroke-dasharray="4 4"></line><rect class="delta" x="103.33333333333337" y="165" width="310" height="0" fill="#16a34a" opacity="0.85"></rect><rect class="delta" x="516.6666666666667" y="102.96000000000016" width="310" height="62.039999999999836" fill="#16a34a" opacity="0.85"></rect><path fill="none" stroke="#2563eb" stroke-width="2.5" d="M258.333,165L671.667,3.832"></path><circle class="eff" cx="258.33333333333337" cy="165" r="4.5" fill="#2563eb"></circle><circle class="eff" cx="671.6666666666667" cy="3.8320257702503646" r="4.5" fill="#2563eb"></circle></g><g transform="translate(800, 56)"><rect x="0" y="0" width="12" height="12" fill="#16a34a"></rect><line x1="0" x2="14" y1="28" y2="28" stroke="#2563eb" stroke-width="2.5"></line><text x="20" y="10" font-size="12" fill="#0f172a">Quality Gain vs Baseline</text><text x="20" y="28" font-size="12" fill="#0f172a">Gain per 1k Extra Tokens</text></g></svg>