<svg xmlns="http://www.w3.org/2000/svg" width="1080" height="480" style="background: rgb(255, 255, 255);"><text x="540" y="30" text-anchor="middle" font-size="16" font-weight="700" fill="#0f172a">Teacher Alignment &amp; Stability (exp_benchmark_50_20260209_140431)</text><g transform="translate(70,70)"><g transform="translate(0,330)" fill="none" font-size="10" font-family="sans-serif" text-anchor="middle"><path class="domain" stroke="currentColor" d="M0.5,6V0.5H930.5V6"></path><g class="tick" opacity="1" transform="translate(0.5,0)"><line stroke="currentColor" y2="6"></line><text fill="currentColor" y="9" dy="0.71em">0</text></g><g class="tick" opacity="1" transform="translate(465.5,0)"><line stroke="currentColor" y2="6"></line><text fill="currentColor" y="9" dy="0.71em">1</text></g><g class="tick" opacity="1" transform="translate(930.5,0)"><line stroke="currentColor" y2="6"></line><text fill="currentColor" y="9" dy="0.71em">1</text></g></g><g fill="none" font-size="10" font-family="sans-serif" text-anchor="end"><path class="domain" stroke="currentColor" d="M-6,330.5H0.5V0.5H-6"></path><g class="tick" opacity="1" transform="translate(0,330.5)"><line stroke="currentColor" x2="-6"></line><text fill="currentColor" x="-9" dy="0.32em">0</text></g><g class="tick" opacity="1" transform="translate(0,297.5)"><line stroke="currentColor" x2="-6"></line><text fill="currentColor" x="-9" dy="0.32em">10</text></g><g class="tick" opacity="1" transform="translate(0,264.5)"><line stroke="currentColor" x2="-6"></line><text fill="currentColor" x="-9" dy="0.32em">20</text></g><g class="tick" opacity="1" transform="translate(0,231.49999999999997)"><line stroke="currentColor" x2="-6"></line><text fill="currentColor" x="-9" dy="0.32em">30</text></g><g class="tick" opacity="1" transform="translate(0,198.5)"><line stroke="currentColor" x2="-6"></line><text fill="currentColor" x="-9" dy="0.32em">40</text></g><g class="tick" opacity="1" transform="translate(0,165.5)"><line stroke="currentColor" x2="-6"></line><text fill="currentColor" x="-9" dy="0.32em">50</text></g><g class="tick" opacity="1" transform="translate(0,132.5)"><line stroke="currentColor" x2="-6"></line><text fill="currentColor" x="-9" dy="0.32em">60</text></g><g class="tick" opacity="1" transform="translate(0,99.50000000000001)"><line stroke="currentColor" x2="-6"></line><text fill="currentColor" x="-9" dy="0.32em">70</text></g><g class="tick" opacity="1" transform="translate(0,66.49999999999999)"><line stroke="currentColor" x2="-6"></line><text fill="currentColor" x="-9" dy="0.32em">80</text></g><g class="tick" opacity="1" transform="translate(0,33.49999999999999)"><line stroke="currentColor" x2="-6"></line><text fill="currentColor" x="-9" dy="0.32em">90</text></g><g class="tick" opacity="1" transform="translate(0,0.5)"><line stroke="currentColor" x2="-6"></line><text fill="currentColor" x="-9" dy="0.32em">100</text></g></g><g transform="translate(930,0)" fill="none" font-size="10" font-family="sans-serif" text-anchor="start"><path class="domain" stroke="currentColor" d="M6,330.5H0.5V0.5H6"></path><g class="tick" opacity="1" transform="translate(0,330.5)"><line stroke="currentColor" x2="6"></line><text fill="currentColor" x="9" dy="0.32em">0</text></g><g class="tick" opacity="1" transform="translate(0,297.5)"><line stroke="currentColor" x2="6"></line><text fill="currentColor" x="9" dy="0.32em">2</text></g><g class="tick" opacity="1" transform="translate(0,264.5)"><line stroke="currentColor" x2="6"></line><text fill="currentColor" x="9" dy="0.32em">4</text></g><g class="tick" opacity="1" transform="translate(0,231.49999999999997)"><line stroke="currentColor" x2="6"></line><text fill="currentColor" x="9" dy="0.32em">6</text></g><g class="tick" opacity="1" transform="translate(0,198.5)"><line stroke="currentColor" x2="6"></line><text fill="currentColor" x="9" dy="0.32em">8</text></g><g class="tick" opacity="1" transform="translate(0,165.5)"><line stroke="currentColor" x2="6"></line><text fill="currentColor" x="9" dy="0.32em">10</text></g><g class="tick" opacity="1" transform="translate(0,132.5)"><line stroke="currentColor" x2="6"></line><text fill="currentColor" x="9" dy="0.32em">12</text></g><g class="tick" opacity="1" transform="translate(0,99.50000000000001)"><line stroke="currentColor" x2="6"></line><text fill="currentColor" x="9" dy="0.32em">14</text></g><g class="tick" opacity="1" transform="translate(0,66.49999999999999)"><line stroke="currentColor" x2="6"></line><text fill="currentColor" x="9" dy="0.32em">16</text></g><g class="tick" opacity="1" transform="translate(0,33.49999999999999)"><line stroke="currentColor" x2="6"></line><text fill="currentColor" x="9" dy="0.32em">18</text></g><g class="tick" opacity="1" transform="translate(0,0.5)"><line stroke="currentColor" x2="6"></line><text fill="currentColor" x="9" dy="0.32em">20</text></g></g><path fill="none" stroke="#7c3aed" stroke-width="2.5" d="M0,330L930,330"></path><circle class="align" cx="0" cy="330" r="4.5" fill="#7c3aed"></circle><circle class="align" cx="930" cy="330" r="4.5" fill="#7c3aed"></circle><path fill="none" stroke="#f59e0b" stroke-width="2.5" d="M0,243.803L930,261.297"></path><rect x="-4" y="239.8029339589461" width="8" height="8" fill="#f59e0b"></rect><rect x="926" y="257.2967394166568" width="8" height="8" fill="#f59e0b"></rect></g></svg>