<svg xmlns="http://www.w3.org/2000/svg" width="1280" height="720" style="background: rgb(255, 255, 255);"><text x="40" y="42" font-size="28" font-weight="700" fill="#0f172a">分类洞察：不同类别的增益与 ROI</text><g transform="translate(0,560)" fill="none" font-size="10" font-family="sans-serif" text-anchor="middle"><path class="domain" stroke="currentColor" d="M170.5,6V0.5H1120.5V6"></path><g class="tick" opacity="1" transform="translate(355.3658536585366,0)"><line stroke="currentColor" y2="6"></line><text fill="currentColor" y="9" dy="0.71em">日常词汇</text></g><g class="tick" opacity="1" transform="translate(645,0)"><line stroke="currentColor" y2="6"></line><text fill="currentColor" y="9" dy="0.71em">技术术语</text></g><g class="tick" opacity="1" transform="translate(934.6341463414634,0)"><line stroke="currentColor" y2="6"></line><text fill="currentColor" y="9" dy="0.71em">歧义复杂</text></g></g><g transform="translate(170,0)" fill="none" font-size="10" font-family="sans-serif" text-anchor="end"><path class="domain" stroke="currentColor" d="M-6,560.5H0.5V150.5H-6"></path><g class="tick" opacity="1" transform="translate(0,560.5)"><line stroke="currentColor" x2="-6"></line><text fill="currentColor" x="-9" dy="0.32em">0</text></g><g class="tick" opacity="1" transform="translate(0,519.5)"><line stroke="currentColor" x2="-6"></line><text fill="currentColor" x="-9" dy="0.32em">1</text></g><g class="tick" opacity="1" transform="translate(0,478.5)"><line stroke="currentColor" x2="-6"></line><text fill="currentColor" x="-9" dy="0.32em">2</text></g><g class="tick" opacity="1" transform="translate(0,437.5)"><line stroke="currentColor" x2="-6"></line><text fill="currentColor" x="-9" dy="0.32em">3</text></g><g class="tick" opacity="1" transform="translate(0,396.5)"><line stroke="currentColor" x2="-6"></line><text fill="currentColor" x="-9" dy="0.32em">4</text></g><g class="tick" opacity="1" transform="translate(0,355.5)"><line stroke="currentColor" x2="-6"></line><text fill="currentColor" x="-9" dy="0.32em">5</text></g><g class="tick" opacity="1" transform="translate(0,314.5)"><line stroke="currentColor" x2="-6"></line><text fill="currentColor" x="-9" dy="0.32em">6</text></g><g class="tick" opacity="1" transform="translate(0,273.5)"><line stroke="currentColor" x2="-6"></line><text fill="currentColor" x="-9" dy="0.32em">7</text></g><g class="tick" opacity="1" transform="translate(0,232.49999999999997)"><line stroke="currentColor" x2="-6"></line><text fill="currentColor" x="-9" dy="0.32em">8</text></g><g class="tick" opacity="1" transform="translate(0,191.5)"><line stroke="currentColor" x2="-6"></line><text fill="currentColor" x="-9" dy="0.32em">9</text></g><g class="tick" opacity="1" transform="translate(0,150.5)"><line stroke="currentColor" x2="-6"></line><text fill="currentColor" x="-9" dy="0.32em">10</text></g></g><rect x="251.09756097560978" y="407.07" width="95.92682926829268" height="152.93" fill="#2563eb"></rect><rect x="363.70731707317077" y="188.54" width="95.92682926829268" height="371.46000000000004" fill="#16a34a"></rect><text x="299.0609756097561" y="399.07" text-anchor="middle" font-size="14" fill="#1e3a8a">3.73</text><text x="411.6707317073171" y="180.54" text-anchor="middle" font-size="14" fill="#166534">9.06</text><rect x="540.7317073170732" y="523.1" width="95.92682926829268" height="36.89999999999998" fill="#2563eb"></rect><rect x="653.3414634146342" y="464.46999999999997" width="95.92682926829268" height="95.53000000000003" fill="#16a34a"></rect><text x="588.6951219512196" y="515.1" text-anchor="middle" font-size="14" fill="#1e3a8a">0.90</text><text x="701.3048780487804" y="456.46999999999997" text-anchor="middle" font-size="14" fill="#166534">2.33</text><rect x="830.3658536585366" y="502.18999999999994" width="95.92682926829268" height="57.81000000000006" fill="#2563eb"></rect><rect x="942.9756097560976" y="406.25" width="95.92682926829268" height="153.75" fill="#16a34a"></rect><text x="878.329268292683" y="494.18999999999994" text-anchor="middle" font-size="14" fill="#1e3a8a">1.41</text><text x="990.939024390244" y="398.25" text-anchor="middle" font-size="14" fill="#166534">3.75</text><text x="1040" y="120" font-size="14" fill="#1e3a8a">蓝: Delta Quality</text><text x="1040" y="144" font-size="14" fill="#166534">绿: Gain/1k Tokens</text><text x="40" y="700" font-size="12" fill="#64748b">Data: benchmark_experiment_report.md (category table)</text></svg>